<svg width="36" height="36" viewBox="0 0 36 36" fill="none" xmlns="http://www.w3.org/2000/svg">
<path d="M10.967 20.4667L11.8003 19.8001L10.8003 18.5334L10.1003 19.4334L10.967 20.4667Z" fill="url(#paint0_linear)"/>
<path d="M12.1666 17.1667C12.7 17.1667 13.1333 16.7333 13.1333 16.2C13.1333 15.6667 12.7 15.2333 12.1666 15.2333C11.6333 15.2333 11.2 15.6667 11.2 16.2C11.2 16.7333 11.6333 17.1667 12.1666 17.1667Z" fill="url(#paint1_linear)"/>
<path d="M12.9666 19.7334L13.9666 20.2001L14.5666 19.0001L13.8332 18.0334L12.9666 19.7334Z" fill="url(#paint2_linear)"/>
<path d="M11.5667 21.6667C11.5 22.2 11.8667 22.7 12.4 22.7667C12.9333 22.8333 13.4333 22.4667 13.5 21.9333C13.5667 21.4 13.2 20.9 12.6667 20.8333C12.1333 20.7667 11.6667 21.1333 11.5667 21.6667Z" fill="url(#paint3_linear)"/>
<path d="M1.66667 34.3333V0H0V34.6667V35.3333V36H36V34.3333H1.66667Z" fill="url(#paint4_linear)"/>
<path d="M4.90002 12.8C5.43335 12.8 5.86668 12.3667 5.86668 11.8334C5.86668 11.3 5.43335 10.8667 4.90002 10.8667C4.36668 10.8667 3.93335 11.3 3.93335 11.8334C3.93335 12.3667 4.36668 12.8 4.90002 12.8Z" fill="url(#paint5_linear)"/>
<path d="M4.43336 24.2333C4.36669 24.7666 4.73336 25.2666 5.26669 25.3333C5.80002 25.4 6.30002 25.0333 6.36669 24.5C6.43336 23.9666 6.06669 23.4666 5.53336 23.4C5.00002 23.3333 4.50002 23.7 4.43336 24.2333Z" fill="url(#paint6_linear)"/>
<path d="M5.56641 13.7667L10.1664 19.5L10.8331 18.6L6.39974 13.1L5.56641 13.7667Z" fill="url(#paint7_linear)"/>
<path d="M6.36646 22.5334L7.19979 23.2334L10.0998 19.4334L9.39979 18.5334L6.36646 22.5334Z" fill="url(#paint8_linear)"/>
<path d="M24.9669 10.1L21.2335 7.8667L20.7002 8.80003L24.4002 11.0334L24.9669 10.1Z" fill="url(#paint9_linear)"/>
<path d="M32.2001 6.0333L31.3335 5.39996L27.9668 9.86663L28.8335 10.5L32.2001 6.0333Z" fill="url(#paint10_linear)"/>
<path d="M26 18.2333C25.9333 18.7666 26.3 19.2666 26.8333 19.3333C27.3667 19.4 27.8667 19.0333 27.9333 18.5C28 17.9666 27.6333 17.4666 27.1 17.4C26.5667 17.3333 26.0667 17.7 26 18.2333Z" fill="url(#paint11_linear)"/>
<path d="M28.4333 20.1L31.8333 22.8L32.5 21.9333L29.1 19.2667L28.4333 20.1Z" fill="url(#paint12_linear)"/>
<path d="M33 23.5334C32.9333 24.0667 33.3 24.5667 33.8333 24.6334C34.3667 24.7 34.8667 24.3334 34.9333 23.8C35 23.2667 34.6333 22.7667 34.1 22.7C33.5667 22.6 33.0667 23 33 23.5334Z" fill="url(#paint13_linear)"/>
<path d="M33.1669 4.96667C33.7002 4.96667 34.1335 4.53333 34.1335 4C34.1335 3.46667 33.7002 3 33.1669 3C32.6335 3 32.2002 3.43333 32.2002 3.96667C32.2002 4.5 32.6002 4.96667 33.1669 4.96667Z" fill="url(#paint14_linear)"/>
<path d="M19.0333 8.2C19.5666 8.2 20 7.76666 20 7.23333C20 6.7 19.5666 6.26666 19.0333 6.26666C18.5 6.26666 18.0667 6.7 18.0667 7.23333C18.0667 7.76666 18.5 8.2 19.0333 8.2Z" fill="url(#paint15_linear)"/>
<path d="M18.1 23.5667L18.9 22.8667L14.3667 16.9667L13.8 18.0334L18.1 23.5667Z" fill="url(#paint16_linear)"/>
<path d="M19.2003 9.79997L18.2336 9.36664L14.3669 16.9666L15.1003 17.9333L19.2003 9.79997Z" fill="url(#paint17_linear)"/>
<path d="M18.5667 24.9666C18.5 25.5 18.8667 26 19.4 26.0666C19.9333 26.1333 20.4333 25.7666 20.5 25.2333C20.5667 24.7 20.2 24.2 19.6667 24.1333C19.1333 24.0333 18.6333 24.4333 18.5667 24.9666Z" fill="url(#paint18_linear)"/>
<path d="M21.4666 24L25.6999 20.4L24.9999 19.6L20.7666 23.1667L21.4666 24Z" fill="url(#paint19_linear)"/>
<path d="M26.6334 12.5666C27.1667 12.5666 27.6001 12.1333 27.6001 11.6C27.6001 11.0666 27.1667 10.6333 26.6334 10.6333C26.1001 10.6333 25.6667 11.0333 25.6667 11.5666C25.6667 12.1 26.1001 12.5666 26.6334 12.5666Z" fill="url(#paint20_linear)"/>
<defs>
<linearGradient id="paint0_linear" x1="-3.77882" y1="24.193" x2="36.5239" y2="11.2948" gradientUnits="userSpaceOnUse">
<stop stop-color="#316BAE"/>
<stop offset="1" stop-color="#C82F3F"/>
</linearGradient>
<linearGradient id="paint1_linear" x1="-5.31358" y1="21.7735" x2="34.9892" y2="8.87522" gradientUnits="userSpaceOnUse">
<stop stop-color="#316BAE"/>
<stop offset="1" stop-color="#C82F3F"/>
</linearGradient>
<linearGradient id="paint2_linear" x1="-3.61079" y1="24.7194" x2="36.692" y2="11.8212" gradientUnits="userSpaceOnUse">
<stop stop-color="#316BAE"/>
<stop offset="1" stop-color="#C82F3F"/>
</linearGradient>
<linearGradient id="paint3_linear" x1="-2.95457" y1="26.7695" x2="37.3482" y2="13.8713" gradientUnits="userSpaceOnUse">
<stop stop-color="#316BAE"/>
<stop offset="1" stop-color="#C82F3F"/>
</linearGradient>
<linearGradient id="paint4_linear" x1="-3.55361" y1="24.8977" x2="36.8672" y2="11.9617" gradientUnits="userSpaceOnUse">
<stop stop-color="#316BAE"/>
<stop offset="1" stop-color="#C82F3F"/>
</linearGradient>
<linearGradient id="paint5_linear" x1="-6.56106" y1="15.5004" x2="33.7417" y2="2.60215" gradientUnits="userSpaceOnUse">
<stop stop-color="#316BAE"/>
<stop offset="1" stop-color="#C82F3F"/>
</linearGradient>
<linearGradient id="paint6_linear" x1="-2.87608" y1="27.0146" x2="37.4267" y2="14.1164" gradientUnits="userSpaceOnUse">
<stop stop-color="#316BAE"/>
<stop offset="1" stop-color="#C82F3F"/>
</linearGradient>
<linearGradient id="paint7_linear" x1="-6.55814" y1="21.049" x2="39.3767" y2="6.34834" gradientUnits="userSpaceOnUse">
<stop stop-color="#316BAE"/>
<stop offset="1" stop-color="#C82F3F"/>
</linearGradient>
<linearGradient id="paint8_linear" x1="-3.61516" y1="24.7061" x2="36.6876" y2="11.8078" gradientUnits="userSpaceOnUse">
<stop stop-color="#316BAE"/>
<stop offset="1" stop-color="#C82F3F"/>
</linearGradient>
<linearGradient id="paint9_linear" x1="-5.5911" y1="18.5307" x2="34.7117" y2="5.63242" gradientUnits="userSpaceOnUse">
<stop stop-color="#316BAE"/>
<stop offset="1" stop-color="#C82F3F"/>
</linearGradient>
<linearGradient id="paint10_linear" x1="-5.34903" y1="19.2871" x2="34.9537" y2="6.38889" gradientUnits="userSpaceOnUse">
<stop stop-color="#316BAE"/>
<stop offset="1" stop-color="#C82F3F"/>
</linearGradient>
<linearGradient id="paint11_linear" x1="-2.61312" y1="27.8364" x2="37.6896" y2="14.9382" gradientUnits="userSpaceOnUse">
<stop stop-color="#316BAE"/>
<stop offset="1" stop-color="#C82F3F"/>
</linearGradient>
<linearGradient id="paint12_linear" x1="-1.51627" y1="31.2636" x2="38.7865" y2="18.3654" gradientUnits="userSpaceOnUse">
<stop stop-color="#316BAE"/>
<stop offset="1" stop-color="#C82F3F"/>
</linearGradient>
<linearGradient id="paint13_linear" x1="-0.432068" y1="34.6516" x2="39.8707" y2="21.7533" gradientUnits="userSpaceOnUse">
<stop stop-color="#316BAE"/>
<stop offset="1" stop-color="#C82F3F"/>
</linearGradient>
<linearGradient id="paint14_linear" x1="-6.2159" y1="16.5784" x2="34.0869" y2="3.68012" gradientUnits="userSpaceOnUse">
<stop stop-color="#316BAE"/>
<stop offset="1" stop-color="#C82F3F"/>
</linearGradient>
<linearGradient id="paint15_linear" x1="-6.58212" y1="15.4346" x2="33.7206" y2="2.5364" gradientUnits="userSpaceOnUse">
<stop stop-color="#316BAE"/>
<stop offset="1" stop-color="#C82F3F"/>
</linearGradient>
<linearGradient id="paint16_linear" x1="-6.04195" y1="27.3944" x2="39.992" y2="12.6619" gradientUnits="userSpaceOnUse">
<stop stop-color="#316BAE"/>
<stop offset="1" stop-color="#C82F3F"/>
</linearGradient>
<linearGradient id="paint17_linear" x1="-4.94095" y1="20.5618" x2="35.3618" y2="7.66358" gradientUnits="userSpaceOnUse">
<stop stop-color="#316BAE"/>
<stop offset="1" stop-color="#C82F3F"/>
</linearGradient>
<linearGradient id="paint18_linear" x1="-1.3541" y1="31.7705" x2="38.9486" y2="18.8722" gradientUnits="userSpaceOnUse">
<stop stop-color="#316BAE"/>
<stop offset="1" stop-color="#C82F3F"/>
</linearGradient>
<linearGradient id="paint19_linear" x1="-1.96617" y1="29.8582" x2="38.3366" y2="16.9599" gradientUnits="userSpaceOnUse">
<stop stop-color="#316BAE"/>
<stop offset="1" stop-color="#C82F3F"/>
</linearGradient>
<linearGradient id="paint20_linear" x1="-4.61407" y1="21.5839" x2="35.6887" y2="8.68563" gradientUnits="userSpaceOnUse">
<stop stop-color="#316BAE"/>
<stop offset="1" stop-color="#C82F3F"/>
</linearGradient>
</defs>
</svg>
