<svg width="88" height="90" viewBox="0 0 88 90" fill="none" xmlns="http://www.w3.org/2000/svg">
<path d="M0 2.58124C0 4.02232 1.1874 5.16178 2.61228 5.16178C4.07108 5.16178 5.22456 3.98881 5.22456 2.58124C5.22456 1.14016 4.03716 0.000700733 2.61228 0.000700733C1.15347 -0.0328128 0 1.14016 0 2.58124Z" transform="translate(39.9292 40.6753) scale(2)" fill="url(#paint0_linear)"/>
<path d="M4.17286 7.30595C4.17286 10.1211 2.47657 12.5341 0 13.64L0.47496 14.6454C3.32472 13.4054 5.29241 10.5568 5.29241 7.30595C5.29241 4.05513 3.32472 1.24 0.508885 0L0 1.00541C2.47657 2.07784 4.17286 4.49081 4.17286 7.30595Z" transform="translate(50.853 31.2269) scale(2)" fill="url(#paint1_linear)"/>
<path d="M1.11955 7.44C1.11955 4.52432 2.95154 2.01081 5.56381 1.00541L5.05493 0C2.10339 1.20649 0 4.08865 0 7.44C0 10.7914 2.10339 13.707 5.08885 14.88L5.56381 13.8746C2.95154 12.8357 1.11955 10.3557 1.11955 7.44Z" transform="translate(28.937 30.9578) scale(2)" fill="url(#paint2_linear)"/>
<path d="M7.29402 21.6162L7.76898 20.6108C3.90145 19.0022 1.15347 15.1816 1.15347 10.7914C1.15347 6.40108 3.86753 2.61405 7.70113 1.00541L7.19225 0C2.98546 1.80973 0 5.96541 0 10.7914C0.0339257 15.6508 3.01939 19.8065 7.29402 21.6162Z" transform="translate(21.27 24.2551) scale(2)" fill="url(#paint3_linear)"/>
<path d="M0.644589 0L0.135703 1.00541C3.8336 2.71459 6.37803 6.40108 6.37803 10.6908C6.37803 15.0141 3.76575 18.7341 0 20.4097L0.47496 21.4151C4.61389 19.5719 7.5315 15.4497 7.5315 10.6908C7.5315 5.9654 4.68175 1.87676 0.644589 0Z" transform="translate(53.9741 24.4569) scale(2)" fill="url(#paint4_linear)"/>
<path d="M0.746367 0L0.237481 1.00541C5.12278 3.4854 8.51535 8.64649 8.51535 14.6119C8.51535 20.6778 5.021 25.9059 0 28.3189L0.47496 29.3243C5.90307 26.7438 9.66882 21.1135 9.66882 14.5784C9.66882 8.1773 6.03877 2.64757 0.746367 0Z" transform="translate(57.6382 16.614) scale(2)" fill="url(#paint5_linear)"/>
<path d="M0.678514 0C0.508885 0 0.339257 0.067027 0.203554 0.201081C-0.0678514 0.469189 -0.0678514 0.871351 0.203554 1.13946C0.47496 1.40757 0.882068 1.40757 1.15347 1.13946C1.42488 0.871351 1.42488 0.469189 1.15347 0.201081C1.01777 0.067027 0.848142 0 0.678514 0Z" transform="translate(14.417 14) scale(2)" fill="url(#paint6_linear)"/>
<path d="M0.678514 0C0.508886 0 0.339257 0.067027 0.203554 0.201081C-0.0678514 0.469189 -0.0678514 0.871351 0.203554 1.13946C0.47496 1.40757 0.882069 1.40757 1.15347 1.13946C1.42488 0.871351 1.42488 0.469189 1.15347 0.201081C1.01777 0.067027 0.848143 0 0.678514 0Z" transform="translate(70.8691 14) scale(2)" fill="url(#paint7_linear)"/>
<path d="M0.657508 0C0.386103 0 0.148623 0.167568 0.0468461 0.402162C-0.0888567 0.737298 0.0807717 1.10595 0.420029 1.27351C0.759285 1.40757 1.13247 1.24 1.3021 0.904865C1.4378 0.56973 1.26817 0.201081 0.928914 0.0335136C0.827137 0.0335136 0.759286 0 0.657508 0Z" transform="translate(5.23145 27.6065) scale(2)" fill="url(#paint8_linear)"/>
<path d="M0.691432 0C0.589655 0 0.521805 1.27345e-07 0.420028 0.0335136C0.0807713 0.167568 -0.0888566 0.56973 0.0468462 0.904865C0.182549 1.24 0.589657 1.40757 0.928913 1.27351C1.26817 1.13946 1.4378 0.737298 1.3021 0.402162C1.20032 0.167568 0.928912 0 0.691432 0Z" transform="translate(80.0708 27.6065) scale(2)" fill="url(#paint9_linear)"/>
<path d="M0.678514 1.34054C1.05325 1.34054 1.35703 1.04045 1.35703 0.67027C1.35703 0.30009 1.05325 0 0.678514 0C0.303781 0 0 0.30009 0 0.67027C0 1.04045 0.303781 1.34054 0.678514 1.34054Z" transform="translate(2 43.626) scale(2)" fill="url(#paint10_linear)"/>
<path d="M0.678514 1.34054C1.05325 1.34054 1.35703 1.04045 1.35703 0.67027C1.35703 0.30009 1.05325 0 0.678514 0C0.303781 0 0 0.30009 0 0.67027C0 1.04045 0.303781 1.34054 0.678514 1.34054Z" transform="translate(83.2861 43.626) scale(2)" fill="url(#paint11_linear)"/>
<path d="M0.691434 0C0.589657 0 0.521806 2.045e-06 0.420029 0.0335156C0.0807717 0.16757 -0.0888567 0.569731 0.0468461 0.904866C0.182549 1.24 0.589657 1.40757 0.928914 1.27351C1.26817 1.13946 1.4378 0.737299 1.3021 0.402164C1.20032 0.167569 0.96284 0 0.691434 0Z" transform="translate(5.16309 59.7124) scale(2)" fill="url(#paint12_linear)"/>
<path d="M0.657507 0C0.386101 0 0.148623 0.167569 0.0468462 0.402164C-0.0888566 0.737299 0.0807713 1.10595 0.420028 1.27351C0.759285 1.40757 1.13247 1.24 1.3021 0.904866C1.4378 0.569731 1.26817 0.201083 0.928913 0.0335156C0.827136 0.0335156 0.725358 0 0.657507 0Z" transform="translate(80.1392 59.7124) scale(2)" fill="url(#paint13_linear)"/>
<path d="M0.678514 0C0.508886 0 0.339257 0.0670265 0.203554 0.201081C-0.0678514 0.469189 -0.0678514 0.871352 0.203554 1.13946C0.47496 1.40757 0.882069 1.40757 1.15347 1.13946C1.42488 0.871352 1.42488 0.469189 1.15347 0.201081C1.01777 0.0670265 0.848143 0 0.678514 0Z" transform="translate(70.8691 73.3189) scale(2)" fill="url(#paint14_linear)"/>
<path d="M0.678514 0C0.508885 0 0.339257 0.0670265 0.203554 0.201081C-0.0678514 0.469189 -0.0678514 0.871352 0.203554 1.13946C0.47496 1.40757 0.882068 1.40757 1.15347 1.13946C1.42488 0.871352 1.42488 0.469189 1.15347 0.201081C1.01777 0.0670265 0.848142 0 0.678514 0Z" transform="translate(14.417 73.3189) scale(2)" fill="url(#paint15_linear)"/>
<path d="M9.83845 28.5535C4.71567 26.1741 1.15347 20.8789 1.15347 14.7459C1.15347 8.68 4.68175 3.41838 9.70275 1.00541L9.19386 0C3.76575 2.58054 0 8.21081 0 14.7459C0 21.3146 3.8336 26.9784 9.32956 29.5589L9.83845 28.5535Z" transform="translate(13.3311 16.2789) scale(2)" fill="url(#paint16_linear)"/>
<defs>
<linearGradient id="paint0_linear" x2="1" gradientUnits="userSpaceOnUse" gradientTransform="translate(-0.00719225 -0.0293609) scale(5.25828 5.19439)">
<stop stop-color="#316BAE"/>
<stop offset="1" stop-color="#C82F3F"/>
</linearGradient>
<linearGradient id="paint1_linear" x2="1" gradientUnits="userSpaceOnUse" gradientTransform="translate(0.00495315 4.6903) scale(5.29115 5.22687)">
<stop stop-color="#914760"/>
<stop offset="1" stop-color="#C82F3F"/>
</linearGradient>
<linearGradient id="paint2_linear" x2="1" gradientUnits="userSpaceOnUse" gradientTransform="translate(-0.0187948 4.67911) scale(5.57185 5.50416)">
<stop stop-color="#316BAE"/>
<stop offset="1" stop-color="#5C5A89"/>
</linearGradient>
<linearGradient id="paint3_linear" x2="1" gradientUnits="userSpaceOnUse" gradientTransform="translate(0.0286672 6.97391) scale(7.73509 7.64111)">
<stop stop-color="#316BAE"/>
<stop offset="1" stop-color="#5C5A89"/>
</linearGradient>
<linearGradient id="paint4_linear" x2="1" gradientUnits="userSpaceOnUse" gradientTransform="translate(0.011874 7.00226) scale(7.50976 7.41852)">
<stop stop-color="#914760"/>
<stop offset="1" stop-color="#C82F3F"/>
</linearGradient>
<linearGradient id="paint5_linear" x2="1" gradientUnits="userSpaceOnUse" gradientTransform="translate(0.0181163 9.89909) scale(9.64663 9.52943)">
<stop stop-color="#914760"/>
<stop offset="1" stop-color="#C82F3F"/>
</linearGradient>
<linearGradient id="paint6_linear" x2="1" gradientUnits="userSpaceOnUse" gradientTransform="translate(0.00892245 0.00353568) scale(1.32646 1.31034)">
<stop stop-color="#316BAE"/>
<stop offset="1" stop-color="#C82F3F"/>
</linearGradient>
<linearGradient id="paint7_linear" x2="1" gradientUnits="userSpaceOnUse" gradientTransform="translate(0.0189984 0.00459135) scale(1.3267 1.31058)">
<stop stop-color="#316BAE"/>
<stop offset="1" stop-color="#C82F3F"/>
</linearGradient>
<linearGradient id="paint8_linear" x2="1" gradientUnits="userSpaceOnUse" gradientTransform="translate(-0.000683799 0.00462487) scale(1.3269 1.31078)">
<stop stop-color="#316BAE"/>
<stop offset="1" stop-color="#C82F3F"/>
</linearGradient>
<linearGradient id="paint9_linear" x2="1" gradientUnits="userSpaceOnUse" gradientTransform="translate(0.0187895 0.00449081) scale(1.3269 1.31078)">
<stop stop-color="#316BAE"/>
<stop offset="1" stop-color="#C82F3F"/>
</linearGradient>
<linearGradient id="paint10_linear" x2="1" gradientUnits="userSpaceOnUse" gradientTransform="translate(-0.000915993 0.0202422) scale(1.32683 1.31071)">
<stop stop-color="#316BAE"/>
<stop offset="1" stop-color="#C82F3F"/>
</linearGradient>
<linearGradient id="paint11_linear" x2="1" gradientUnits="userSpaceOnUse" gradientTransform="translate(0.0271745 0.0202589) scale(1.3268 1.31068)">
<stop stop-color="#316BAE"/>
<stop offset="1" stop-color="#C82F3F"/>
</linearGradient>
<linearGradient id="paint12_linear" x2="1" gradientUnits="userSpaceOnUse" gradientTransform="translate(0.0329705 0.00231243) scale(1.32744 1.31132)">
<stop stop-color="#316BAE"/>
<stop offset="1" stop-color="#C82F3F"/>
</linearGradient>
<linearGradient id="paint13_linear" x2="1" gradientUnits="userSpaceOnUse" gradientTransform="translate(-0.0154075 0.00244649) scale(1.32717 1.31105)">
<stop stop-color="#316BAE"/>
<stop offset="1" stop-color="#C82F3F"/>
</linearGradient>
<linearGradient id="paint14_linear" x2="1" gradientUnits="userSpaceOnUse" gradientTransform="translate(0.0187609 0.00311676) scale(1.32643 1.31031)">
<stop stop-color="#316BAE"/>
<stop offset="1" stop-color="#C82F3F"/>
</linearGradient>
<linearGradient id="paint15_linear" x2="1" gradientUnits="userSpaceOnUse" gradientTransform="translate(0.00763328 0.00340162) scale(1.32694 1.31081)">
<stop stop-color="#316BAE"/>
<stop offset="1" stop-color="#C82F3F"/>
</linearGradient>
<linearGradient id="paint16_linear" x2="1" gradientUnits="userSpaceOnUse" gradientTransform="translate(0.0228998 9.95152) scale(9.80978 9.6906)">
<stop stop-color="#316BAE"/>
<stop offset="1" stop-color="#5C5A89"/>
</linearGradient>
</defs>
</svg>
