<svg width="88" height="88" viewBox="0 0 88 88" fill="none" xmlns="http://www.w3.org/2000/svg">
<path d="M2.50681 10.0155L1.96185 9.32378L4.49591 7.27642L5.04087 7.96809L2.50681 10.0155ZM7.46594 7.58076L10.5177 9.43445L10.9809 8.65977L7.92916 6.80608L7.46594 7.58076ZM13.1335 8.1341L13.7875 8.74277L16.8392 5.33973L16.1853 4.73106L13.1335 8.1341ZM22.5341 5.89307L19.4823 4.03938L19.0191 4.81406L22.0708 6.66775L22.5341 5.89307ZM24.9864 5.6994L25.6948 6.25274L28.4196 2.54536L27.7112 1.99202L24.9864 5.6994ZM0.790191 9.90478C0.354223 9.90478 0 10.2645 0 10.7071C0 11.1498 0.354223 11.5095 0.790191 11.5095C1.22616 11.5095 1.58038 11.1498 1.58038 10.7071C1.58038 10.2645 1.25341 9.90478 0.790191 9.90478ZM6.13079 5.42273C5.69482 5.42273 5.3406 5.7824 5.3406 6.22507C5.3406 6.66775 5.69482 7.02742 6.13079 7.02742C6.56676 7.02742 6.92098 6.66775 6.92098 6.22507C6.92098 5.7824 6.56676 5.42273 6.13079 5.42273ZM12.3433 9.01944C11.9074 9.01944 11.5531 9.37911 11.5531 9.82178C11.5531 10.2645 11.9074 10.6241 12.3433 10.6241C12.7793 10.6241 13.1335 10.2645 13.1335 9.82178C13.1335 9.37911 12.7793 9.01944 12.3433 9.01944ZM18.4741 3.51371C18.4741 3.07104 18.1199 2.71137 17.6839 2.71137C17.248 2.71137 16.8937 3.07104 16.8937 3.51371C16.8937 3.95638 17.248 4.31605 17.6839 4.31605C18.1199 4.31605 18.4741 3.95638 18.4741 3.51371ZM24.6866 7.11042C24.6866 6.66775 24.3324 6.30808 23.8965 6.30808C23.4605 6.30808 23.1063 6.66775 23.1063 7.11042C23.1063 7.55309 23.4605 7.91276 23.8965 7.91276C24.3324 7.91276 24.6866 7.58076 24.6866 7.11042ZM29.2098 1.63235C29.6458 1.63235 30 1.27268 30 0.83001C30 0.387338 29.6458 0 29.2098 0C28.7738 0 28.4196 0.359671 28.4196 0.802343C28.4196 1.24501 28.7738 1.63235 29.2098 1.63235ZM0.217984 32.6471H1.58038V18.8136H0.217984V32.6471V32.6471ZM2.39782 32.6471H3.76022V22.9636H2.39782V32.6471ZM4.57766 32.6471H5.94005V21.8569H4.57766V32.6471ZM6.75749 32.6471H8.11989V16.3235H6.75749V32.6471ZM8.93733 32.6471H10.2997V18.8136H8.93733V32.6471ZM11.1172 32.6471H12.4796V22.9636H11.1172V32.6471ZM13.297 32.6471H14.6594V21.8569H13.297V32.6471ZM15.4768 32.6471H16.8392V15.4935H15.4768V32.6471ZM17.6567 32.6471H19.0191V18.8136H17.6567V32.6471ZM19.8365 32.6471H21.1989V22.1336H19.8365V32.6471ZM22.0163 32.6471H23.3787V20.1969H22.0163V32.6471ZM24.1962 32.6471H25.5586V17.9835H24.1962V32.6471ZM26.376 32.6471H27.7384V21.8569H26.376V32.6471ZM28.5559 32.6471H29.9183V16.3235H28.5559V32.6471Z" transform="translate(12 10) scale(2)" fill="url(#paint0_linear)"/>
<defs>
<linearGradient id="paint0_linear" x2="1" gradientUnits="userSpaceOnUse" gradientTransform="translate(0 1.0851) scale(30.0153 30.4769)">
<stop stop-color="#316BAE"/>
<stop offset="1" stop-color="#C82F3F"/>
</linearGradient>
</defs>
</svg>
