<svg width="88" height="88" viewBox="0 0 88 88" fill="none" xmlns="http://www.w3.org/2000/svg">
<path d="M6.60484 0C6.43548 0 6.26613 0.0671846 6.16452 0.201554C5.92742 0.4367 5.92742 0.839808 6.16452 1.10855C6.40161 1.34369 6.80806 1.34369 7.07903 1.10855C7.31613 0.8734 7.31613 0.470293 7.07903 0.201554C6.94355 0.0335923 6.77419 0 6.60484 0ZM35.3952 0C35.2258 0 35.0564 0.0671846 34.9548 0.201554C34.7177 0.403108 34.7177 0.806216 34.9548 1.07495C35.1919 1.3101 35.5984 1.3101 35.8694 1.07495C36.1065 0.839808 36.1065 0.4367 35.8694 0.167962C35.7339 0.0335923 35.5645 0 35.3952 0ZM21 3.42642C14.5306 3.42642 9.28065 8.63323 9.28065 15.0494C9.28065 18.7109 10.9065 21.0288 12.4645 22.7756C13.2435 23.649 13.9887 24.388 14.5306 25.0935C15.0726 25.7989 15.3774 26.4372 15.3774 27.1762V28.184V32.215C15.3774 33.5923 16.529 34.7345 17.9177 34.7345H18.4935C18.7306 35.8766 19.7468 36.75 21 36.75C22.2532 36.75 23.2694 35.8766 23.5065 34.7345H24.0823C25.471 34.7345 26.6226 33.5923 26.6226 32.215V27.6465V27.1426C26.6226 26.4036 26.9274 25.7653 27.4694 25.0599C28.0113 24.3544 28.7565 23.6154 29.5355 22.742C31.0935 20.9952 32.7194 18.7109 32.7194 15.0158C32.7194 8.63323 27.4694 3.42642 21 3.42642ZM21 4.43419C26.9274 4.43419 31.7032 9.1707 31.7032 15.0158C31.7032 18.4086 30.2806 20.3905 28.7903 22.0702C28.0452 22.91 27.2661 23.649 26.6565 24.4552C26.0468 25.2614 25.6065 26.1348 25.6065 27.1426V27.6465H23.0661V17.4344C23.9468 17.1993 24.5903 16.4602 24.5903 15.5197C24.5903 14.4111 23.6758 13.5041 22.5581 13.5041C21.9484 13.5041 21.4065 13.8064 21.0339 14.2431C20.6274 13.8064 20.0855 13.5041 19.4758 13.5041C18.3581 13.5041 17.4435 14.4111 17.4435 15.5197C17.4435 16.4602 18.0871 17.1993 18.9677 17.4344V27.6465H16.4274V27.1426C16.4274 26.1012 15.9871 25.2278 15.3774 24.4552C14.7677 23.649 13.9887 22.91 13.2435 22.0702C11.7532 20.3905 10.3306 18.4086 10.3306 15.0158C10.2968 9.1707 15.1065 4.43419 21 4.43419ZM8.84032 2.21709C8.67097 2.21709 8.50161 2.28428 8.4 2.41865C8.1629 2.65379 8.1629 3.0569 8.4 3.32564C8.6371 3.56079 9.04355 3.56079 9.31452 3.32564C9.55161 3.09049 9.55161 2.68739 9.31452 2.41865C9.17903 2.28428 9.00968 2.21709 8.84032 2.21709ZM33.1597 2.21709C32.9903 2.21709 32.821 2.28428 32.7194 2.41865C32.4823 2.65379 32.4823 3.0569 32.7194 3.32564C32.9565 3.56079 33.3629 3.56079 33.6339 3.32564C33.871 3.09049 33.871 2.68739 33.6339 2.41865C33.4645 2.28428 33.329 2.21709 33.1597 2.21709ZM6.84194 4.8037C6.60484 4.77011 6.33387 4.87089 6.19839 5.07244C5.99516 5.37477 6.09677 5.74429 6.36774 5.94584C6.67258 6.1474 7.04516 6.04662 7.24839 5.77788C7.45161 5.47555 7.35 5.10603 7.07903 4.90448C7.01129 4.87089 6.90968 4.83729 6.84194 4.8037ZM35.1581 4.8037C35.0903 4.8037 34.9887 4.83729 34.921 4.90448C34.6161 5.10603 34.5484 5.47555 34.7516 5.77788C34.9548 6.08021 35.3274 6.1474 35.6323 5.94584C35.9371 5.74429 36.0048 5.37477 35.8016 5.07244C35.6661 4.87089 35.3952 4.77011 35.1581 4.8037ZM2.20161 6.5505C1.96452 6.5505 1.72742 6.68487 1.62581 6.95361C1.49032 7.28953 1.65968 7.65905 1.96452 7.79342C2.30323 7.92779 2.67581 7.75983 2.81129 7.4575C2.94677 7.12157 2.77742 6.75206 2.47258 6.61769C2.37097 6.5505 2.26935 6.5505 2.20161 6.5505ZM39.8323 6.5505C39.7645 6.5505 39.6629 6.5505 39.5952 6.5841C39.2565 6.71846 39.121 7.08798 39.2565 7.4239C39.3919 7.75983 39.7645 7.8942 40.1032 7.75983C40.4419 7.62546 40.5774 7.25594 40.4419 6.92002C40.3065 6.68487 40.0694 6.5505 39.8323 6.5505ZM5.11452 7.75983C4.87742 7.75983 4.64032 7.8942 4.53871 8.16294C4.40323 8.49886 4.57258 8.86837 4.87742 9.00274C5.21613 9.13711 5.58871 8.96915 5.72419 8.66682C5.85968 8.3309 5.69032 7.96138 5.38548 7.82701C5.28387 7.75983 5.21613 7.75983 5.11452 7.75983ZM36.8855 7.75983C36.8177 7.75983 36.7161 7.75983 36.6484 7.79342C36.3097 7.92779 36.1742 8.2973 36.3097 8.63323C36.4452 8.96915 36.8177 9.10352 37.1565 8.96915C37.4952 8.83478 37.6306 8.46527 37.4952 8.12934C37.3597 7.8942 37.1226 7.75983 36.8855 7.75983ZM4.26774 10.9511C3.92903 10.8839 3.59032 11.1191 3.52258 11.455C3.45484 11.7909 3.69194 12.1268 4.03064 12.194C4.36935 12.2612 4.70806 12.0261 4.77581 11.6901C4.84355 11.3542 4.60645 11.0183 4.26774 10.9511ZM37.7323 10.9511C37.3935 11.0183 37.1565 11.3542 37.2242 11.6901C37.2919 12.0261 37.6306 12.2612 37.9694 12.194C38.3081 12.1268 38.5452 11.7909 38.4774 11.455C38.4097 11.1191 38.071 10.8839 37.7323 10.9511ZM0.643548 14.2767C0.304839 14.2767 0 14.5455 0 14.915C0 15.2509 0.270968 15.5532 0.643548 15.5532C1.01613 15.5532 1.2871 15.2845 1.2871 14.915C1.2871 14.5455 0.982258 14.2767 0.643548 14.2767ZM3.82742 14.2767C3.48871 14.2767 3.18387 14.5455 3.18387 14.915C3.18387 15.2509 3.45484 15.5532 3.82742 15.5532C4.2 15.5532 4.47097 15.2845 4.47097 14.915C4.47097 14.5455 4.16613 14.2767 3.82742 14.2767ZM19.4758 14.5119C20.0516 14.5119 20.4919 14.9486 20.4919 15.5197H21.5081C21.5081 14.9486 21.9484 14.5119 22.5242 14.5119C23.1 14.5119 23.5403 14.9486 23.5403 15.5197C23.5403 16.0907 23.1 16.5274 22.5242 16.5274H22.0161V27.6465H19.9839V16.5274H19.4758C18.9 16.5274 18.4597 16.0907 18.4597 15.5197C18.4597 14.9822 18.9 14.5119 19.4758 14.5119ZM38.1726 14.2767C37.8339 14.2767 37.529 14.5455 37.529 14.915C37.529 15.2509 37.8 15.5532 38.1726 15.5532C38.5452 15.5532 38.8161 15.2845 38.8161 14.915C38.8161 14.5455 38.5452 14.2767 38.1726 14.2767ZM41.3565 14.2767C41.0177 14.2767 40.7129 14.5455 40.7129 14.915C40.7129 15.2509 40.9839 15.5532 41.3565 15.5532C41.729 15.5532 42 15.2845 42 14.915C42 14.5455 41.729 14.2767 41.3565 14.2767ZM4.03064 17.6024C3.69194 17.6696 3.45484 18.0055 3.52258 18.3414C3.59032 18.6773 3.92903 18.9125 4.26774 18.8453C4.60645 18.7781 4.84355 18.4422 4.77581 18.1063C4.70806 17.7703 4.36935 17.5352 4.03064 17.6024ZM37.7323 17.6024C37.4952 17.636 37.2919 17.8375 37.2242 18.1063C37.1565 18.4422 37.3935 18.7781 37.7323 18.8453C38.071 18.9125 38.4097 18.6773 38.4774 18.3414C38.5452 18.0055 38.3081 17.6696 37.9694 17.6024C37.9016 17.6024 37.8 17.6024 37.7323 17.6024ZM5.14839 20.7936C5.08065 20.7936 4.97903 20.7936 4.91129 20.8272C4.57258 20.9616 4.4371 21.3311 4.57258 21.667C4.70806 22.003 5.08065 22.1373 5.41935 22.003C5.75806 21.8686 5.89355 21.4991 5.75806 21.1632C5.62258 20.928 5.38548 20.7936 5.14839 20.7936ZM36.8855 20.7936C36.6484 20.7936 36.4113 20.928 36.3097 21.1968C36.1742 21.5327 36.3435 21.9022 36.6484 22.0366C36.9871 22.1709 37.3597 22.003 37.4952 21.7006C37.6306 21.3647 37.4613 20.9952 37.1565 20.8608C37.021 20.7936 36.9532 20.7936 36.8855 20.7936ZM2.20161 22.003C2.13387 22.003 2.03226 22.003 1.96452 22.0366C1.62581 22.1709 1.49032 22.5404 1.62581 22.8764C1.76129 23.2123 2.13387 23.3467 2.47258 23.2123C2.81129 23.0779 2.94677 22.7084 2.81129 22.3725C2.67581 22.1373 2.43871 22.003 2.20161 22.003ZM39.7984 22.003C39.5613 22.003 39.3242 22.1373 39.2226 22.4061C39.0871 22.742 39.2565 23.1115 39.5613 23.2459C39.9 23.3803 40.2726 23.2123 40.4081 22.91C40.5435 22.574 40.3742 22.2045 40.0694 22.0702C39.9677 22.003 39.9 22.003 39.7984 22.003ZM6.60484 23.7498C6.5371 23.7498 6.43548 23.7834 6.36774 23.8505C6.0629 24.0521 5.99516 24.4216 6.19839 24.7239C6.40161 25.0263 6.77419 25.0935 7.07903 24.8919C7.38387 24.6904 7.45161 24.3208 7.24839 24.0185C7.1129 23.7834 6.84194 23.6826 6.60484 23.7498ZM35.3952 23.7498C35.1581 23.7162 34.8871 23.817 34.7516 24.0185C34.5484 24.3208 34.65 24.6904 34.921 24.8919C35.2258 25.0935 35.5984 24.9927 35.8016 24.7239C36.0048 24.4216 35.9032 24.0521 35.6323 23.8505C35.5645 23.7834 35.4968 23.7498 35.3952 23.7498ZM8.84032 26.3028C8.67097 26.3028 8.50161 26.37 8.4 26.5043C8.1629 26.7395 8.1629 27.1426 8.4 27.4113C8.6371 27.6465 9.04355 27.6465 9.31452 27.4113C9.55161 27.1762 9.55161 26.7731 9.31452 26.5043C9.17903 26.37 9.00968 26.3028 8.84032 26.3028ZM33.1597 26.3028C32.9903 26.3028 32.821 26.37 32.7194 26.5043C32.4823 26.7395 32.4823 27.1426 32.7194 27.4113C32.9565 27.6465 33.3629 27.6465 33.6339 27.4113C33.871 27.1762 33.871 26.7731 33.6339 26.5043C33.4645 26.37 33.329 26.3028 33.1597 26.3028ZM35.3952 28.5535C35.2258 28.5535 35.0564 28.6207 34.9548 28.755C34.7177 28.9902 34.7177 29.3933 34.9548 29.662C35.1919 29.8972 35.5984 29.8972 35.8694 29.662C36.1065 29.4269 36.1065 29.0238 35.8694 28.755C35.7339 28.6207 35.5645 28.5535 35.3952 28.5535ZM6.60484 28.5535C6.43548 28.5535 6.26613 28.6207 6.16452 28.755C5.92742 28.9902 5.92742 29.3933 6.16452 29.662C6.40161 29.8972 6.80806 29.8972 7.07903 29.662C7.31613 29.4269 7.31613 29.0238 7.07903 28.755C6.94355 28.6207 6.77419 28.5535 6.60484 28.5535ZM16.4274 28.6543H25.5726V29.662H19.4758V30.6698H25.5726V31.6776H19.4758V32.6853H25.5048C25.3016 33.29 24.7258 33.6931 24.0823 33.6931H17.9855C17.3081 33.6931 16.7661 33.2564 16.5629 32.6853H18.4597V31.6776H16.4274V30.6698H18.4597V29.662H16.4274V28.6543ZM19.5774 34.7009H22.4565C22.2532 35.3055 21.6774 35.7086 21.0339 35.7086C20.3226 35.7086 19.7806 35.3055 19.5774 34.7009Z" transform="translate(2 8) scale(2)" fill="url(#paint0_linear)"/>
<defs>
<linearGradient id="paint0_linear" x2="1" gradientUnits="userSpaceOnUse" gradientTransform="translate(0.00569032 -2.46396) scale(41.9943 41.6488)">
<stop stop-color="#316BAE"/>
<stop offset="1" stop-color="#C82F3F"/>
</linearGradient>
</defs>
</svg>
