<svg xmlns="http://www.w3.org/2000/svg" width="17" height="18" fill="none">
  <path fill="#181B2B" d="M6.76 9.01l.07.03-.07-.03z"/>
  <path fill="#8AFFCE" d="M13.84 5.2a4.8 4.8 0 0 0-6.47 3.1l-.28.76-.15-.02-.1.01.13.07-.13-.06c-.23-.08-.67-.28-.72-.3l-.83-.34c-2-.79-3.94 1.2-4 3.05-.12 3.59 3.5 6.01 6.76 6.19 3.8.2 6.61-2.34 8.09-5.65 1.16-2.62.56-5.6-2.3-6.81z"/>
  <path fill="#181B2B" d="M7.53 14.34c-.32 0-.62-.11-.85-.33-1.12-1.04-2.23-2.1-3.33-3.16A231.3 231.3 0 0 0 .4 8.04a1.25 1.25 0 0 1-.06-1.78l.56-.6C2.56 3.9 4.26 2.08 6.03.36 6.5-.1 7.23-.13 7.72.3c1.21 1.04 2.37 2.15 3.5 3.2.85.83 1.75 1.67 2.64 2.47.52.46.56 1.25.1 1.77-.84.97-1.7 1.91-2.55 2.87-.98 1.1-1.97 2.19-2.94 3.3-.22.26-.54.4-.88.43h-.06zm-4.5-7.27l2.06 1.97c.77.76 1.56 1.5 2.35 2.24l2.1-2.36L11.28 7 9.48 5.32c-.82-.78-1.67-1.59-2.53-2.36a199.9 199.9 0 0 0-3.93 4.11z"/>
</svg>
