<svg xmlns="http://www.w3.org/2000/svg" width="121" height="40" fill="none">
  <path fill="#181B2B" d="M50.2 26.46A.62.62 0 0 1 50 26v-12.4c0-.18.07-.33.18-.45a.62.62 0 0 1 .45-.17h2.15c.19 0 .34.05.45.17.12.1.17.27.17.46v1.07a5.24 5.24 0 0 1 4.33-1.96 4.8 4.8 0 0 1 3.78 1.57c.93 1.05 1.4 2.5 1.4 4.33v7.38c0 .17-.06.32-.17.44a.58.58 0 0 1-.46.18h-2.33a.62.62 0 0 1-.62-.62v-7.22a3.5 3.5 0 0 0-.74-2.37c-.5-.57-1.2-.85-2.11-.85-.88 0-1.59.29-2.13.87-.53.57-.8 1.36-.8 2.36v7.22c0 .17-.06.32-.17.44a.58.58 0 0 1-.46.18h-2.3a.58.58 0 0 1-.44-.18zM67.44 25.23c-1.13-1.12-1.73-2.72-1.8-4.78l-.03-.66c0-2.18.57-3.9 1.7-5.16 1.13-1.27 2.7-1.9 4.7-1.9 2.06 0 3.64.64 4.76 1.9 1.11 1.26 1.67 2.93 1.67 5.03v.55a.6.6 0 0 1-.18.45.61.61 0 0 1-.47.18h-8.6v.21c.03.98.3 1.79.78 2.43.5.64 1.17.96 2.04.96.98 0 1.78-.4 2.4-1.2.16-.2.28-.32.36-.36.1-.05.24-.07.44-.07h2.29c.16 0 .29.05.4.13.11.1.17.22.17.37 0 .42-.25.92-.74 1.48-.5.57-1.2 1.07-2.11 1.49a7.6 7.6 0 0 1-3.19.63 6.24 6.24 0 0 1-4.6-1.68zm7.42-6.62v-.05a3.8 3.8 0 0 0-.77-2.48 2.57 2.57 0 0 0-2.08-.94c-.89 0-1.57.32-2.08.94-.5.61-.75 1.45-.75 2.48v.05h5.68zM82.42 25.33c-.91-1.05-1.38-2.5-1.38-4.33v-7.37c0-.2.07-.35.18-.47a.62.62 0 0 1 .44-.17H84a.62.62 0 0 1 .62.63v7.22c0 2.15.93 3.23 2.77 3.23.9 0 1.61-.29 2.14-.87.52-.57.8-1.36.8-2.36v-7.22c0-.2.06-.34.17-.46a.62.62 0 0 1 .45-.17h2.3a.6.6 0 0 1 .45.17c.12.1.17.27.17.46V26c0 .17-.05.32-.17.44a.57.57 0 0 1-.45.18H91.1a.62.62 0 0 1-.62-.62v-1.07c-.95 1.31-2.38 1.97-4.3 1.97a4.73 4.73 0 0 1-3.75-1.58zM97.47 26.46a.62.62 0 0 1-.18-.45V13.65c0-.2.07-.35.18-.47a.58.58 0 0 1 .45-.19h2.12c.2 0 .35.07.47.19s.18.28.18.47v1.08a4.37 4.37 0 0 1 3.73-1.74h1.1a.6.6 0 0 1 .44.17c.12.12.17.27.17.47v1.91c0 .18-.05.33-.17.45a.6.6 0 0 1-.45.18h-2.05c-.81 0-1.45.24-1.92.7-.47.47-.7 1.12-.7 1.95v7.2a.6.6 0 0 1-.18.44.58.58 0 0 1-.44.18h-2.3a.55.55 0 0 1-.45-.18zM109.23 25.33a6.13 6.13 0 0 1-1.79-4.35l-.02-1.16.02-1.16c.1-1.83.7-3.28 1.82-4.34 1.11-1.06 2.68-1.59 4.68-1.59 2 0 3.54.53 4.67 1.59a6.1 6.1 0 0 1 1.8 4.34c.03.22.03.6.03 1.16 0 .56 0 .94-.02 1.16a6.14 6.14 0 0 1-1.79 4.35c-1.1 1.05-2.67 1.58-4.69 1.58-2.03 0-3.6-.53-4.7-1.58zm6.83-1.94c.5-.58.76-1.43.79-2.55.02-.17.03-.51.03-1.02 0-.5-.01-.85-.03-1.03a4.04 4.04 0 0 0-.8-2.56 2.6 2.6 0 0 0-2.1-.88c-.92 0-1.63.3-2.13.88-.5.59-.77 1.44-.8 2.56l-.03 1.03.02 1.02c.03 1.12.3 1.97.8 2.55.5.57 1.22.87 2.13.87.92 0 1.63-.3 2.12-.87z"/>
  <path fill="#5275FF" d="M20 0a20 20 0 1 0 0 40 20 20 0 0 0 0-40zM9.72 21.88a1.87 1.87 0 0 1-1.32-3.2l5.32-5.33a8.9 8.9 0 0 1 12.56 0 1.88 1.88 0 0 1 0 2.65l-2.77 2.77a1.87 1.87 0 0 1-2.65-2.65l1.19-1.2A5.15 5.15 0 0 0 16.37 16l-5.33 5.32c-.36.37-.84.55-1.32.55zm21.89-.55l-5.33 5.32a8.86 8.86 0 0 1-12.56 0 1.88 1.88 0 0 1 0-2.65l2.77-2.77a1.87 1.87 0 0 1 2.65 2.65l-1.19 1.2c1.88.81 4.15.45 5.68-1.08l5.33-5.32a1.87 1.87 0 0 1 2.65 2.64z"/>
</svg>
