<svg xmlns="http://www.w3.org/2000/svg" width="160" height="30" fill="none">
  <path fill="#181B2B" d="M0 18.91c0-.78.2-1.36.58-1.75.38-.4.9-.59 1.55-.59.66 0 1.17.2 1.56.59.38.39.57.97.57 1.75 0 .81-.19 1.41-.57 1.8-.39.39-.9.59-1.56.59-.65 0-1.17-.2-1.55-.59-.39-.39-.58-.99-.58-1.8zM9.25 26.07a9.3 9.3 0 0 0 4.44 1.21c.94 0 1.73-.23 2.39-.69.65-.46.98-1.21.98-2.25 0-.87-.2-1.58-.6-2.14-.4-.56-.9-1.06-1.51-1.51-.61-.45-1.28-.86-1.99-1.24-.7-.37-1.37-.82-1.98-1.35a5.65 5.65 0 0 1-2.11-4.62c0-1.78.49-3.12 1.47-4.02.98-.9 2.37-1.35 4.16-1.35 1.16 0 2.17.1 3.03.3.85.22 1.59.5 2.21.87l-.8 2.5a8.92 8.92 0 0 0-4.06-.96c-1.02 0-1.77.21-2.24.63-.47.42-.7 1.07-.7 1.96 0 .7.2 1.3.6 1.78.4.49.9.93 1.51 1.34.61.4 1.27.81 1.98 1.23.71.42 1.37.91 1.99 1.48a7.18 7.18 0 0 1 1.51 2.05c.4.8.6 1.79.6 2.99 0 .78-.13 1.51-.39 2.21-.25.7-.64 1.3-1.17 1.82-.53.51-1.18.92-1.96 1.23-.78.3-1.7.46-2.75.46a13 13 0 0 1-3.24-.36 8.27 8.27 0 0 1-2.3-.94l.93-2.63zM23.8 9.86c.82-.5 1.82-.9 3-1.17a16.2 16.2 0 0 1 3.73-.42c1.2 0 2.16.18 2.88.52.73.35 1.3.83 1.71 1.42.41.6.68 1.29.8 2.05.14.77.2 1.57.2 2.4 0 1.68-.04 3.3-.1 4.9-.08 1.58-.12 3.08-.12 4.5 0 1.06.04 2.05.11 2.95.07.9.21 1.76.41 2.57h-2.4l-.75-2.47h-.17A5.65 5.65 0 0 1 31.24 29c-.82.53-1.92.8-3.3.8a4.9 4.9 0 0 1-3.75-1.57c-.97-1.04-1.46-2.48-1.46-4.32 0-1.2.2-2.2.61-3.01.41-.8 1-1.46 1.74-1.97.75-.5 1.63-.85 2.66-1.06 1.03-.21 2.18-.31 3.45-.31h.85c.28 0 .57 0 .89.04.08-.87.12-1.63.12-2.3 0-1.59-.24-2.7-.72-3.34-.48-.64-1.35-.97-2.62-.97-.79 0-1.64.12-2.57.36-.93.24-1.7.54-2.33.9L23.8 9.86zm9.16 10.11a16.94 16.94 0 0 0-1.68-.08c-.67 0-1.33.05-1.98.17-.65.1-1.22.3-1.73.58-.5.28-.9.66-1.2 1.13-.3.47-.44 1.07-.44 1.8 0 1.11.27 1.97.82 2.59.55.6 1.26.91 2.13.91a4.07 4.07 0 0 0 4.08-2.67v-4.43zM51.98 29.5V16.75c0-2.08-.25-3.6-.74-4.53-.5-.93-1.4-1.4-2.67-1.4-1.14 0-2.08.34-2.81 1a5.88 5.88 0 0 0-1.63 2.47V29.5h-3.07V8.6h2.22l.56 2.22h.13a6.55 6.55 0 0 1 5.5-2.72c.9 0 1.7.13 2.4.38s1.28.68 1.75 1.28.83 1.4 1.07 2.4c.24 1 .36 2.27.36 3.8V29.5h-3.07zM57.65 8.6h2.6V4.48l3.08-.96v5.1h4.6v2.71h-4.6v12.46c0 1.22.15 2.1.44 2.65.3.54.8.81 1.48.81.56 0 1.05-.06 1.47-.19.4-.12.86-.28 1.34-.48l.6 2.39a10.04 10.04 0 0 1-4.44 1c-1.42 0-2.44-.45-3.05-1.36-.6-.9-.91-2.37-.91-4.4V11.31h-2.6V8.61zM71.47 2.26c0-.67.2-1.21.58-1.63.38-.42.89-.63 1.51-.63.63 0 1.15.2 1.56.6.4.41.62.96.62 1.66 0 .67-.21 1.19-.62 1.56-.41.38-.93.57-1.56.57-.62 0-1.13-.2-1.51-.59a2.1 2.1 0 0 1-.58-1.54zm.56 6.35h3.07V29.5h-3.07V8.6zM90.75 29.5V17.09c0-1.11-.04-2.07-.11-2.86a6.09 6.09 0 0 0-.45-1.95c-.23-.5-.54-.87-.94-1.1-.4-.24-.92-.36-1.57-.36-.97 0-1.79.37-2.46 1.1a6.1 6.1 0 0 0-1.38 2.54V29.5h-3.07V8.6h2.17l.56 2.22h.12c.6-.8 1.31-1.46 2.14-1.96a6 6 0 0 1 3.15-.76c1.08 0 1.97.23 2.67.7.7.45 1.24 1.27 1.64 2.44a5.66 5.66 0 0 1 2.2-2.3c.95-.56 2-.84 3.13-.84.94 0 1.74.12 2.41.36.67.24 1.2.65 1.62 1.25.41.6.72 1.4.92 2.39.2.98.3 2.23.3 3.73V29.5h-3.08V16.2c0-1.8-.17-3.16-.53-4.05-.35-.9-1.17-1.34-2.45-1.34-1.08 0-1.94.33-2.58.98a5.44 5.44 0 0 0-1.34 2.66V29.5h-3.07zM121.28 28.08a7 7 0 0 1-2.6 1.42c-1.05.33-2.16.5-3.33.5-1.33 0-2.5-.26-3.47-.77a6.54 6.54 0 0 1-2.43-2.22c-.64-.96-1.11-2.1-1.41-3.45-.3-1.33-.45-2.84-.45-4.5 0-3.57.67-6.29 2-8.16a6.56 6.56 0 0 1 5.68-2.8c.8 0 1.58.1 2.37.3.78.2 1.48.58 2.1 1.17a6.2 6.2 0 0 1 1.52 2.46c.38 1.06.57 2.44.57 4.14 0 .47-.02.98-.06 1.52l-.15 1.7H110.8c0 1.2.1 2.28.3 3.26.2.97.51 1.8.94 2.48.42.69.97 1.21 1.64 1.6.67.37 1.5.55 2.5.55a6.51 6.51 0 0 0 4-1.42l1.11 2.22zm-2.39-11.2c.06-2.09-.24-3.62-.9-4.6a3.07 3.07 0 0 0-2.68-1.46c-1.3 0-2.34.5-3.11 1.46-.77.98-1.22 2.51-1.37 4.6h8.06zM137.06 29.5V16.75c0-2.08-.25-3.6-.75-4.53-.5-.93-1.38-1.4-2.66-1.4-1.14 0-2.08.34-2.82 1a5.88 5.88 0 0 0-1.62 2.47V29.5h-3.07V8.6h2.22l.55 2.22h.13a6.54 6.54 0 0 1 5.5-2.72c.91 0 1.71.13 2.41.38.7.25 1.28.68 1.75 1.28s.82 1.4 1.06 2.4c.25 1 .37 2.27.37 3.8V29.5h-3.07zM142.73 8.6h2.6V4.48l3.07-.96v5.1h4.6v2.71h-4.6v12.46c0 1.22.15 2.1.45 2.65.3.54.79.81 1.47.81.57 0 1.06-.06 1.47-.19.41-.12.86-.28 1.34-.48l.6 2.39a10.06 10.06 0 0 1-4.43 1c-1.43 0-2.44-.45-3.05-1.36-.61-.9-.92-2.37-.92-4.4V11.31h-2.6V8.61zM155.74 18.91c0-.78.19-1.36.57-1.75.39-.4.9-.59 1.56-.59.65 0 1.17.2 1.55.59.39.39.58.97.58 1.75 0 .81-.2 1.41-.58 1.8-.38.39-.9.59-1.55.59-.66 0-1.17-.2-1.56-.59-.38-.39-.57-.99-.57-1.8z"/>
</svg>
