<svg xmlns="http://www.w3.org/2000/svg" width="402" height="242" fill="none">
  <path fill="#181B2B" fill-rule="evenodd" d="M218.64 22.3a1 1 0 0 1-.35 1.36 39.04 39.04 0 0 1-3.37 1.71l-.86.4-1.72.82a1 1 0 0 1-1.29-.38 19.63 19.63 0 0 0-3.13-4.12l-4.66 1.61a1 1 0 0 1-1.22-.49 28.57 28.57 0 0 0-2.09-3.38l-.46-.7-.42-.64c-.52.23-1.05.44-1.58.65l-1.58.66h-.01l-2.8 1.18a1 1 0 0 1-1.13-.25 34.54 34.54 0 0 1-3.85-4.96 1 1 0 0 1 1.7-1.06 30.94 30.94 0 0 0 3.15 4.15l2.16-.9 1.6-.67 1.58-.64c.43-.2.91-.22 1.34-.1.4.11.84.38 1.1.85l.41.63v.01l.43.64c.63.9 1.25 1.84 1.82 2.85l3.82-1.32a1.86 1.86 0 0 1 2.08.45 19.82 19.82 0 0 1 2.97 3.74l.92-.43.92-.43a36.57 36.57 0 0 0 3.15-1.6 1 1 0 0 1 1.37.35zM113.51 211.38a1 1 0 0 1-1.32.5 39.1 39.1 0 0 1-3.34-1.77l-.83-.47-1.66-.94a1 1 0 0 1-.43-1.27c.69-1.57 1.3-3.19 1.56-4.93l-4-2.89a1 1 0 0 1-.3-1.27c.62-1.2 1.11-2.42 1.56-3.66l.3-.78c.1-.25.2-.47.28-.7l-1.44-.92-1.45-.92h-.01l-2.58-1.62a1 1 0 0 1-.45-1.06 34.6 34.6 0 0 1 1.84-6 1 1 0 1 1 1.84.77 30.98 30.98 0 0 0-1.57 4.97l1.98 1.24c.5.3.98.62 1.47.93l1.43.91c.42.24.71.62.86 1.04.14.4.17.9-.06 1.39l-.28.7v.01c-.1.25-.2.48-.28.72a33.39 33.39 0 0 1-1.28 3.13l3.28 2.36c.68.41.98 1.18.83 1.96-.24 1.66-.77 3.2-1.34 4.59l.88.5.88.5c1.1.62 2.08 1.18 3.13 1.65a1 1 0 0 1 .5 1.32z" clip-rule="evenodd"/>
  <path fill="#E7EAF3" d="M154.3 13.9a6.11 6.11 0 0 0-2.38-4.12c-1.92-1.41-3.79 1.55-2.37 3.15.06.07.06.13.12.2a11.72 11.72 0 0 1-1.22 4.12c-3.79 1.99-12.07 2.5-13.68 2.7-2.82.38-5.71.7-8.54 1.16-3.34.51-7.13 1.48-9.76-1.23-.52-.51-1.42.13-1.03.78 1.93 3.28 5.4 3.92 9 3.86 5.9-.13 11.87-.84 17.78-1.42 2.19-.2 4.63-.45 6.75-1.29-2.76 2.32-7.65 3.29-10.86 3.93-6.68 1.29-13.42 1.54-19.85-.84-.9-.32-1.34.97-.64 1.48 7.45 5.15 17.22 4.12 25.57 2.2 3.66-.85 7.51-2.2 9.89-5.22 2.12-2.7 2.89-6.5 1.22-9.46z"/>
  <path fill="#E7EAF3" d="M138.88 3.22c-.64-.58-1.67.19-1.22.96a15.48 15.48 0 0 1 2.19 8.43c-.07 1.8 2.76 1.8 2.82 0a13.03 13.03 0 0 0-3.79-9.4z"/>
  <path fill="#181B2B" fill-rule="evenodd" d="M128.83 14.3a2 2 0 0 1-2.13-.3 4.49 4.49 0 0 0-3-.93c-1.03 0-2.5.67-3.8 2.08a7.65 7.65 0 0 0-2.1 5.06c0 1.1.16 1.73.4 2.14.2.37.58.75 1.43 1.1 1.9.78 5.38 1.13 11.7 1.13a71 71 0 0 0 19.86-2.94c.85-.27 1.62-1 2.24-2.27a12.6 12.6 0 0 0 1.09-4.39v-.57c0-1.68-.61-3.5-1.64-4.85-1.03-1.35-2.32-2.09-3.68-2.09-1.82 0-2.92.67-3.6 1.34a2 2 0 0 1-3.41-1.32C142.03 3.79 140 2 137.83 2c-1.52 0-3.5.58-5.07 1.95-1.51 1.32-2.76 3.48-2.76 6.92v1.61a2 2 0 0 1-1.17 1.82zm27.69.76c-.26 3.47-1.6 7.53-4.76 8.5a73 73 0 0 1-20.42 3.02c-12.53 0-15.55-1.3-15.55-6.37 0-4.9 4.37-9.14 7.9-9.14.88 0 1.65.12 2.3.33.84.26 1.5.65 2 1.08v-1.6c0-.27.02-.54.03-.8.37-7.38 6.02-10.08 9.8-10.08 2.93 0 5.17 2 6.01 5.09.2.71.32 1.49.36 2.31.49-.5 1.1-.95 1.88-1.3a7.52 7.52 0 0 1 3.13-.63c4.3 0 7.32 4.7 7.32 8.94v.65z" clip-rule="evenodd"/>
  <path fill="#E7EAF3" d="M392.17 183.49a6.1 6.1 0 0 0 .35-4.75c-.8-2.25-4-.85-3.73 1.27.01.1-.02.15 0 .23a11.7 11.7 0 0 1-3.33 2.72c-4.25-.48-11.4-4.72-12.83-5.46-2.56-1.27-5.13-2.63-7.72-3.85-3.05-1.45-6.72-2.79-7.38-6.5-.14-.72-1.24-.7-1.28.06-.26 3.8 2.25 6.28 5.26 8.25 4.96 3.22 10.3 6 15.5 8.84 1.92 1.07 4.08 2.23 6.3 2.73-3.58.36-8.16-1.59-11.18-2.86-6.24-2.7-11.96-6.28-15.94-11.86-.56-.77-1.65.04-1.36.86 3.27 8.45 11.92 13.1 19.9 16.2 3.5 1.36 7.45 2.41 11.12 1.25 3.27-1.04 6.04-3.75 6.32-7.13z"/>
  <path fill="#E0DFE6" d="M385.44 165.98c-.21-.84-1.5-.78-1.56.11a15.48 15.48 0 0 1-2.93 8.2c-1.07 1.45 1.27 3.04 2.34 1.59a13.03 13.03 0 0 0 2.14-9.9z"/>
  <path fill="#181B2B" fill-rule="evenodd" d="M371.07 168.93a2 2 0 0 1-1.6-1.45 4.49 4.49 0 0 0-1.96-2.46c-.84-.58-2.44-.86-4.31-.42a7.65 7.65 0 0 0-4.58 3 4.3 4.3 0 0 0-.87 2c-.04.42.06.94.57 1.71 1.12 1.71 3.8 3.96 9.04 7.52a71 71 0 0 0 18.07 8.74c.85.26 1.89.1 3.12-.61 1.21-.7 2.4-1.81 3.37-3.02l.32-.47a8.31 8.31 0 0 0 1.38-4.94c-.1-1.69-.75-3.03-1.88-3.8a4.83 4.83 0 0 0-3.72-.9 2 2 0 0 1-2.08-3.02c1.94-3.14 1.28-5.77-.52-7a7.97 7.97 0 0 0-5.29-1.23c-1.99.24-4.24 1.32-6.17 4.17l-.9 1.33a2 2 0 0 1-2 .85zm22.46 16.2c-2.16 2.73-5.56 5.32-8.7 4.35a73 73 0 0 1-18.6-9c-10.35-7.04-12.12-9.8-9.26-14 2.75-4.05 8.75-5.1 11.67-3.12a7.7 7.7 0 0 1 1.72 1.57c.54.69.87 1.39 1.04 2.03l.9-1.34c.15-.22.3-.43.46-.63 4.47-5.9 10.66-4.96 13.79-2.83 2.41 1.65 3.14 4.56 2.1 7.59-.24.7-.58 1.4-1 2.1a6.31 6.31 0 0 1 2.28 0c.92.16 1.91.53 2.94 1.23 3.56 2.42 3.41 8 1.02 11.52l-.36.53z" clip-rule="evenodd"/>
  <path fill="#8AFFCE" d="M257.22 24.5c-.39-1.09-1.6-1.73-2.63-1.09-.65.39-1.22.9-1.74 1.54-.25.2-.51.52-.7.9-.13.26-.2.52-.2.78-.06.32-.19.58-.19.9-.13 1.16.32 2.25 1.6 2.44 1.1.13 2-.58 2.19-1.6.38-.13.7-.4 1.03-.71.7-.84.96-2.06.64-3.16z"/>
  <path fill="#E7EAF3" d="M259.66 26.56c-.7.77-1.35 1.55-1.93 2.38-.45.58-1.41 2.51-2.05 2.77-1.29.52-3.99-1.6-5.33-2.12-1.1-.39-1.87 1.16-1.1 1.86 1.16 1.16 2.57 2.06 3.92 2.96.97.71 2 1.48 3.28 1.23 1.22-.26 1.93-1.48 2.7-2.38 1.15-1.48 2.44-2.9 3.4-4.5.96-1.75-1.48-3.68-2.89-2.2z"/>
  <path fill="#181B2B" fill-rule="evenodd" d="M248.71 26.56c-.25.39-.19.9.2 1.23a47.23 47.23 0 0 0 6.25 4.38c.03.01.07.03.1.06.05 0 .08.02.12.04.13.04.25.08.4.08.26 0 .51-.06.51-.19.7-.7 1.48-1.41 2.19-2.06a51.73 51.73 0 0 0 3.79-3.73c.19-.2.32-.52.25-.77 0-.32-.13-.58-.38-.71l-.85-.58c-2.1-1.44-4.03-2.76-5.96-4.18a.97.97 0 0 0-1.22.13l-.58.58-.62.64c-1.55 1.59-3.12 3.21-4.2 5.08zm6.2-4.27l-.57.58a30.4 30.4 0 0 0-3.44 3.96 44.6 44.6 0 0 0 4.66 3.25l1.57-1.46c.99-.89 1.95-1.8 2.88-2.76a235.43 235.43 0 0 1-5.1-3.57z" clip-rule="evenodd"/>
  <path fill="#181B2B" d="M286.17 11.9c-.84 0-1.68-.45-1.68-1.35 0-.45.2-.83.65-1.28.25-.26.64-.33.96-.26.83 0 1.41.58 1.41 1.41 0 1.03-.7 1.48-1.34 1.48z"/>
  <path fill="#E7EAF3" d="M57.12 24.37c-.51-2.19-3.47-1.48-3.66.51a7.37 7.37 0 0 1-1.93 4.38c-.64.7-1.15 1.29-2.12.77-.83-.45-1.35-1.54-1.86-2.32-.45-.7-1.41-.25-1.35.58.45 2.84 2.9 6.37 6.17 4.7 2.76-1.41 5.52-5.4 4.75-8.62z"/>
  <path fill="#181B2B" fill-rule="evenodd" d="M53.31 30.34a30.42 30.42 0 0 0-.69 1.04c-.12.26-.38.39-.64.45-.06-.06-.13-.06-.2-.06-.18 0-.44-.07-.57-.2-.96-.77-1.86-1.54-2.76-2.31-.7-.64-1.48-1.29-2.19-1.87-.38-.32-.44-.9-.19-1.35.13-.2.28-.38.42-.58.14-.19.29-.38.42-.58a111.5 111.5 0 0 0 3.2-4.44c.14-.25.4-.38.65-.45.26-.06.51 0 .77.2l.7.58a78.74 78.74 0 0 1 4.44 3.66c.39.32.45.9.13 1.35l-.45.58-.16.2a68.99 68.99 0 0 0-2.88 3.78zm1.33-5.04l-.03.04c-.99 1.23-2.05 2.57-3.01 3.97a146.34 146.34 0 0 1-3.35-2.87 101.33 101.33 0 0 0 2.9-3.99 87.2 87.2 0 0 1 3.49 2.85z" clip-rule="evenodd"/>
  <path fill="#E7EAF3" d="M323.43 33.29c-.57-6.7-2.5-13.26-2.57-20.01 0-1.3-1.86-1.23-1.92 0-.39 4.5.06 8.88.57 13.32.2 2 .45 4.05.52 6.04v.4c-.26-.14-.51-.2-.84-.2h-.51c.77-2.06.26-5.02.2-6.89a40.2 40.2 0 0 0-2.2-11.7c-.25-.72-1.28-.59-1.28.18-.19 3.22-.12 6.5-.12 9.72 0 1.87.57 5.99-.32 7.27-.45.65-3.8.97-4.63 1.1-1.35.25-2.76.51-4.11.64-3.15.39-6.3.39-9.44.39-1.1 0-1.67.7-1.86 1.48-.2 0-.33.06-.52.06-1.1.13-1.15 1.87 0 1.8.32 0 .7 0 1.03-.06.32.32.77.51 1.28.58 3.73.25 7.45 0 11.12-.58.83-.13 1.8-.2 2.89-.32H312c-1.35.19-2.7.25-3.92.38-3.98.45-7.96.9-11.94 1.16-1.29.06-1.29 2.06 0 2.06 5.2-.06 10.34.2 15.54-.26 1.99-.2 4.17-.32 6.1-.83 1.54.45 3.21.7 4.37.12 2.05-1.03 1.48-4.11 1.28-5.85zM310.46 42.36c-.51.84-.96 3.54-2.12 3.41-1.29-.13-2.19-1.48-3.47-.7-.51.32-.7.96-.38 1.47.19.33.38.52.7.58 1.42 1.29 2.96 2.45 5.01 1.8 2.06-.64 3.47-3.66 3.66-5.66.13-1.93-2.57-2.25-3.4-.9z"/>
  <path fill="#181B2B" fill-rule="evenodd" d="M295.08 36.7l.13.83a.96.96 0 0 0 .96.84c.02 0 .05-.01 0-.06l2.02-.19c3.29-.29 6.6-.49 9.87-.68.02.47.08.96.13 1.37l.06.5.02.15.06.68c-.47.15-.95.36-1.37.87-.35.42-.64.91-.84 1.43-.33.06-.81.05-1.46 0l-.23-.02c-.6-.04-1.3-.1-1.88-.02h-.04c-1.13.13-2.36.26-3.54.61a1 1 0 1 0 .57 1.92c.99-.3 2.06-.41 3.23-.55.39-.04.88 0 1.52.04l.23.02c.4.02.86.05 1.32.04a3.7 3.7 0 0 0 3.63 3.1c2.82 0 3.98-2.7 4.04-3.8 0-.15 0-.3-.02-.45 1.94-.12 3.82-.26 5.77-.56a1 1 0 1 0-.31-1.98 63.48 63.48 0 0 1-6.26.6 3.87 3.87 0 0 0-2.37-1.42l-.06-.7-.02-.16-.08-.7c-.05-.38-.1-.73-.1-1.1l1.72-.1 3.35-.18c2.08-.12 4.2-.23 6.28-.4.26 0 .45-.12.65-.32.19-.2.25-.45.25-.7-.51-6.12-1.4-12.3-2.3-18.28l-.33-2.25c-.11-.76-.23-1.52-.32-2.26a1 1 0 0 0-1.1-.83c-.67.1-1.33.18-1.98.26l-2 .25-.6.08c-1.8.23-3.65.47-5.43.76a.99.99 0 0 0-.77 1.1c.06.32.06.57.06.83 0 4.63-7.06 5.21-13.62 5.4-.25.07-.51.2-.7.4-.2.18-.26.5-.2.76.5 2.61.82 5.34 1.13 8.02l.03.28.1.77c.25 1.9.5 3.83.79 5.74l.01.06zm1.95-.48c3.78-.35 7.58-.58 11.3-.8l3.32-.2 3.4-.2c1.74-.09 3.46-.18 5.18-.3-.52-5.7-1.36-11.45-2.2-17.1l-.01-.03c-.1-.72-.2-1.46-.32-2.22v-.01l-.18-1.25-1 .12-1.95.25h-.03l-.61.09c-1.47.19-2.94.38-4.39.6v.1c0 1.74-.7 3.17-1.85 4.24a9.74 9.74 0 0 1-3.94 2.05c-2.52.73-5.63.96-8.55 1.07.4 2.32.67 4.69.93 6.96l.04.3.1.75c.24 1.86.48 3.73.76 5.58zm11.48 6.05l-.02.03a2.95 2.95 0 0 0-.68 1.73c0 .28.13.68.46 1.02.3.32.7.52 1.2.52.68 0 1.14-.3 1.5-.73a2.92 2.92 0 0 0 .54-1.14 1.87 1.87 0 0 0-1.85-1.78h-.26-.02l-.06.02c-.57.17-.68.2-.76.27l-.05.06z" clip-rule="evenodd"/>
  <path fill="#E7EAF3" d="M298.73 70.4c-1.35 1.3-2.63 2.7-3.91 4.06-.45.45-.84 1.29-1.35 1.1-.52-.14-.9-1.1-1.22-1.49-.45-.51-1.16-.2-1.42.39-.77 1.86 1.29 4.63 3.28 4.7 1.41 0 2.57-1.36 3.53-2.26 1.29-1.15 2.63-2.31 3.86-3.6 1.92-1.93-.84-4.7-2.77-2.9z"/>
  <path fill="#181B2B" fill-rule="evenodd" d="M295.05 69.31c-1.23 1.1-2.45 2.19-3.4 3.6-.27.39-.2.9.12 1.23l.32.32c1.03.96 2.12 2 3.08 3.02.2.2.45.32.71.32.26 0 .51-.12.83-.32.65-.77 1.42-1.48 2.19-2.19l.78-.76c.53-.52 1.08-1.06 1.6-1.62.38-.38.32-.96-.07-1.35a86.95 86.95 0 0 1-3.53-3.34c-.2-.2-.45-.33-.7-.33a.96.96 0 0 0-.71.26c-.2.2-.4.39-.62.58l-.6.58zm4.02 3.01a86.59 86.59 0 0 1-2.15-2.04 16.05 16.05 0 0 0-.54.52c-.99.89-1.85 1.66-2.56 2.54.68.64 1.4 1.33 2.1 2.04.53-.55 1.08-1.06 1.58-1.52h.01l.82-.82.74-.72z" clip-rule="evenodd"/>
  <path fill="#E7EAF3" d="M313.06 117.5c-1.09-1.88-3.4-1.42-4.69-.14-.64.65-.64 1.55-.25 2.32-.84.06-1.42-.45-2-1.03-.5-.45-1.53-.2-1.47.64.39 3.22 4.37 4.31 6.8 2.64 1.3-.96 2.51-2.83 1.61-4.44z"/>
  <path fill="#181B2B" fill-rule="evenodd" d="M309.18 119.33l.13.02s.12 0 .35-.11a3.03 3.03 0 0 0 1.2-1.1 1 1 0 0 0 .11-.23v-.74c0-.3-.12-.6-.37-.85-.25-.23-.71-.5-1.55-.5-.42 0-.62.1-.72.18a2.13 2.13 0 0 0-.87 1.62c0 .44.21.85.67 1.2a2.84 2.84 0 0 0 1.05.51zm3.8-1.32c-.07 1.48-2.13 3.34-3.67 3.34-1.28 0-3.85-1.28-3.85-3.73 0-1.22.64-2.45 1.67-3.22a3.1 3.1 0 0 1 1.92-.58c2.57 0 3.92 1.68 3.92 3.35v.84z" clip-rule="evenodd"/>
  <path fill="#E7EAF3" d="M151.34 150.31c-1.37-2.3-4.28-1.75-5.9-.16-.8.8-.8 1.91-.32 2.86-1.05.08-1.78-.55-2.5-1.27-.66-.55-1.95-.24-1.87.8.49 3.97 5.5 5.32 8.57 3.26 1.62-1.2 3.15-3.5 2.02-5.49z"/>
  <path fill="#181B2B" fill-rule="evenodd" d="M144.7 152.05c.68.53 1.41.71 1.66.71.21 0 .83-.2 1.5-.81.3-.28.54-.57.7-.83a1.72 1.72 0 0 0 .17-.43v-.92c0-.46-.18-.93-.57-1.3-.37-.35-1.02-.7-2.11-.7-.58 0-.9.14-1.1.3a2.92 2.92 0 0 0-1.2 2.24c0 .68.34 1.26.96 1.74zm6.03-1.28c-.07 1.76-2.53 3.99-4.37 3.99-1.54 0-4.61-1.54-4.61-4.45 0-1.46.77-2.92 2-3.84.61-.47 1.38-.7 2.3-.7 3.07 0 4.68 2 4.68 4v1z" clip-rule="evenodd"/>
  <path fill="#E7EAF3" d="M67.6 219.54c-1.38-2.3-4.3-1.75-5.9-.16-.82.8-.82 1.9-.33 2.86-1.05.08-1.78-.56-2.5-1.27-.65-.56-1.95-.24-1.87.8.49 3.97 5.5 5.32 8.57 3.25 1.62-1.19 3.15-3.5 2.02-5.48z"/>
  <path fill="#181B2B" fill-rule="evenodd" d="M60.96 221.28c.67.52 1.4.7 1.65.7a3.75 3.75 0 0 0 2.2-1.64 1.76 1.76 0 0 0 .17-.42V219c0-.46-.18-.93-.56-1.3-.38-.35-1.03-.69-2.12-.69-.58 0-.9.14-1.1.3a2.92 2.92 0 0 0-1.2 2.23c0 .68.34 1.26.96 1.75zm6.02-1.29c-.07 1.77-2.53 4-4.37 4-1.54 0-4.61-1.54-4.61-4.46 0-1.46.77-2.92 2-3.84.61-.46 1.38-.69 2.3-.69 3.07 0 4.68 2 4.68 4v1z" clip-rule="evenodd"/>
  <path fill="#8AFFCE" d="M353.87 78.89l-.13-.13-.07-.06c-.06-.58-.13-1.16-.25-1.68-.26-1.8-2.9-1.93-3.73-.58-.9-.32-2.12.2-2.63 1.1-.84-.26-1.74.13-2.06 1.16-.38 1.22-.77 2.44-1.09 3.66-.32 1.36 1.35 2.45 2.38 1.74.77.39 1.73.32 2.3-.38 0 0 0 .06.07.06.58 1.1 2 1.22 2.96.58.83 0 1.67-.45 1.99-1.42.13-.38.26-.7.38-1.09.2-.26.33-.51.45-.9.2-.64-.06-1.55-.57-2.06z"/>
  <path fill="#E7EAF3" d="M363.37 68.02a2.01 2.01 0 0 0-2.89-1.16c-.9-1.1-1.86-2.2-2.82-3.16-.58-.64-1.35.07-1.29.71-.26-.26-.45-.51-.7-.7-.71-.59-1.55.32-.97.96 3.66 4.31 1.8 11.9.32 16.73-.45 1.42 1.16 2.12 2.19 1.54-.77.97-1.74 1.87-2.9 2.58a11.45 11.45 0 0 1-15.67-3.16c-.38-.51-1.35-.25-1.15.46 2.37 7.46 10.92 10.1 17.66 6.82 7.77-3.8 11.11-13.58 8.22-21.63zm-5.59 13.96c1.55-4.38 2.32-11.2-.12-15.7.64.9 1.28 1.8 1.8 2.76v.07c.9 4.44.7 9.2-1.68 12.87z"/>
  <path fill="#E7EAF3" d="M349.05 70.14c-.58.7-1.16 1.41-1.86 2.06-.65.64-1.35 1.1-1.74 1.93-.19.45.26.83.65.83.96.07 1.92-.64 2.7-1.15.9-.58 1.66-1.3 2.43-2 1.54-1.35-.9-3.4-2.18-1.67z"/>
  <path fill="#181B2B" fill-rule="evenodd" d="M349.57 59.9h.73c7.4 0 11.82 4.7 11.82 12.55 0 8.24-5.9 14.93-13.1 14.93-7.38 0-13.62-6.1-13.62-13.32 0-7.13 6.6-13.75 14.17-14.15zm.74 1.94h-.71c-6.59.36-12.27 6.07-12.27 12.22 0 3.85 2.21 7.42 5.43 9.5-.1-.68-.16-1.35-.16-1.97v-.06c.01-2.57.86-4.67 2.38-6.06a4.84 4.84 0 0 1-1.8-3.72v-.07c0-2.7 2.12-5.08 4.62-5.2h.58c3.47 0 5.59 1.92 5.59 4.95v.06a5.21 5.21 0 0 1-.9 2.7l.22.22c2.13 2.14 3.46 4.61 3.8 7.02 1.93-2.34 3.1-5.5 3.1-8.98 0-6.75-3.59-10.61-9.88-10.61zm5.03 21.33a1.2 1.2 0 0 1-.02-.23v-.35c-.02-2.27-1.25-4.7-3.37-6.82l-.13-.14c-.91.77-2 1.27-3.06 1.27-.63 0-1.34-.14-2.04-.41-1.81 1.23-2.2 3.38-2.2 5.04v.06a11.41 11.41 0 0 0 .25 2.37l.01.08.02.07c.03.17 0 .34-.05.5 1.34.54 2.78.84 4.27.84 2.34 0 4.52-.84 6.32-2.28zm-8.66-8.77c.28.18.32.1.87.4.44.16.87.23 1.21.23 1.35 0 3.28-1.87 3.28-3.54v-.06c-.03-1.96-1.31-3.03-3.66-3.03h-.48l-.1.01c-1.4.15-2.66 1.67-2.7 3.27v.07c0 1.27.72 2.13 1.58 2.65z" clip-rule="evenodd"/>
  <path fill="#E7EAF3" d="M391.53 98.72c-.32-.7-.96-1.48-1.86-1.42h-.26c-1.41.13-2.3 1.74-1.6 2.84-.07.25-.2.5-.32.83a1.33 1.33 0 0 0-1.61-.26c-1.48.65-2.89 1.36-4.5 1.61-1.4.2-1.47 2.38 0 2.26 1.55-.13 3.15-.4 4.63-.97-.45.84-.9 1.67-1.41 2.45-.84 1.09-1.23.5-2.32-.13-1.28-.71-2.57-1.55-3.85-2.26-.7-.38-1.48.52-.9 1.16 2.18 2.19 6.04 7.66 9.31 4.31 1.42-1.41 2.5-3.47 3.4-5.27.65-1.42 2-3.48 1.3-5.15z"/>
  <path fill="#181B2B" fill-rule="evenodd" d="M379.62 103.55c1.03.64 2 1.22 2.96 1.8 1.02.64 2.12 1.28 3.2 1.93l.12.04c.14.05.25.09.4.09h.26c.26-.07.45-.2.58-.45 1.22-2.26 2.7-4.9 4.24-7.53.13-.26.13-.58.06-.84a1.27 1.27 0 0 0-.58-.58 52.56 52.56 0 0 1-6.3-3.02.91.91 0 0 0-1.21.25 31.52 31.52 0 0 0-2.9 4.9l-1.15 2.12a.94.94 0 0 0 .32 1.28zm9.44-4.11a55.39 55.39 0 0 1-4.64-2.25c-.8 1.19-1.5 2.48-2.17 3.84l-.04.06-.7 1.28 2.1 1.26.03.02c.73.46 1.49.91 2.27 1.38.95-1.74 2.02-3.65 3.15-5.6zM295.19 135.25a1 1 0 0 1-.17 1.4c-2.4 1.9-4.76 4-7.05 6.18-.66.64-1.8.79-2.62.12a70.58 70.58 0 0 1-3.89-3.35 44.47 44.47 0 0 0-4.1 4.18c-.37.61-1.07.8-1.52.8-.36 0-.69-.12-.8-.16l-.03-.01a1.06 1.06 0 0 1-.23-.1l-5.3-3.43-.34.28c-1.24.97-2.53 1.94-3.8 2.9h-.01a1 1 0 1 1-1.2-1.6c1.28-.96 2.56-1.92 3.76-2.87l.9-.71a1 1 0 0 1 1.15-.06l.53.33 5.3 3.4v.01h.01a46.08 46.08 0 0 1 5.06-5.07 1 1 0 0 1 1.34.03 66.69 66.69 0 0 0 4.41 3.86c2.32-2.2 4.72-4.34 7.19-6.3a1 1 0 0 1 1.4.17z" clip-rule="evenodd"/>
  <path fill="#8AFFCE" d="M360.24 134.36l-.32-.33c-.51-.7-1.73-.9-2.37-.19-.2.2-.39.45-.52.7-.25.2-.51.46-.7.72-.52.32-.78.9-.71 1.48-.13.64-.2 1.28-.07 1.93.2 1.03 1.48 1.74 2.44 1.41a2.02 2.02 0 0 0 1.42-1.54c.51-.2.96-.52 1.22-1.03.58-1.1.38-2.25-.39-3.15z"/>
  <path fill="#181B2B" fill-rule="evenodd" d="M359.62 132.81h-.03a2.97 2.97 0 0 0-3.22 2.9c0 .55.2 1.3.68 1.86.4.5 1.1.96 2.33.96h.45c.13 0 .67-.17 1.32-1.03.62-.8.92-1.7.92-2.24 0-.64-.34-1.2-.89-1.8-.14-.15-.36-.31-.68-.44a3 3 0 0 0-.88-.2zm3.04-.7c.64.7 1.4 1.73 1.4 3.15 0 2.19-2.11 5.27-4.23 5.27h-.45a4.79 4.79 0 0 1-5.01-4.82c0-2.83 2.5-5.15 5.4-4.9.9.07 2.12.46 2.89 1.3z" clip-rule="evenodd"/>
  <path fill="#E7EAF3" d="M332.38 199.18c-4-7.2-8.25-14.18-12.04-21.54-.36-.75-1.67-.58-1.5.38.3 1.47.66 2.92 1.08 4.35-.77-1.43-1.56-2.92-2.38-4.32-1.03-1.74-3.83-.09-3.07 1.69 3.94 9.16 9.6 17.6 13.42 26.8.65 1.48 1.28 2.75 0 4.08-.69.69-1.85 1.07-2.66 1.46-2.26 1.1-4.52 2.2-6.76 3.35-3.69 1.86-8.39 3.42-11.22 6.4-.35.35.04.82.45.8 2.98-.14 5.75-1.7 8.48-2.85 2.72-1.14 5.39-2.25 8.1-3.45.6-.24 1.3-.52 2-.86a83.38 83.38 0 0 1-6.93 3.97c-4.14 2.1-8.62 3.52-12.59 5.9-.4.23-.2 1.05.28 1.07 9.44.3 19.3-5.5 26.76-11.12.29.02.63.02.93-.1 6.68-2.13-.46-12.6-2.35-16zm1 11.5c-.33.06-.69.2-1.02.4-.1.1-.22.16-.25.24.33-.55.5-1.17.54-1.94.07-.72-.1-1.49-.3-2.17.56 1.24 1 2.52 1.02 3.47z"/>
  <path fill="#181B2B" d="M316.62 188.91a1 1 0 0 1-.42 1.35c-2.44 1.3-4.93 2.48-7.35 3.63l-.73.35c-2.36 1.12-4.79 2.27-7.12 3.51a1 1 0 1 1-.94-1.76c2.38-1.26 4.84-2.44 7.2-3.55l.72-.35c2.42-1.15 4.88-2.32 7.29-3.6a1 1 0 0 1 1.35.42zM317.68 195.28a1 1 0 0 0-.92-1.77 293.45 293.45 0 0 1-6.74 3.4c-1.1.58-2.23 1.13-3.35 1.7l-3.38 1.7a1 1 0 1 0 .91 1.78l3.36-1.7c1.12-.55 2.25-1.12 3.37-1.7a299.4 299.4 0 0 0 6.74-3.4h.01zM321.4 199.48a1 1 0 0 1-.51 1.32 178.89 178.89 0 0 0-7.6 3.68 121.48 121.48 0 0 1-6.12 3.02 1 1 0 1 1-.83-1.82c2.03-.93 4.03-1.92 6.02-2.98h.01c2.48-1.25 5.1-2.56 7.7-3.72a1 1 0 0 1 1.32.5zM323.74 205.06a1 1 0 0 0-1.06-1.7c-3.8 2.39-7.88 4.75-13.29 7.63a1 1 0 1 0 .94 1.76 212.4 212.4 0 0 0 13.41-7.7z"/>
  <path fill="#181B2B" fill-rule="evenodd" d="M293.61 186.1c-.27-.17-.6-.1-.83-.01-.65.28-1.3.6-1.96.9-.65.31-1.3.62-1.95.9-.24.1-.38.3-.48.54-.11.25-.08.51.01.75a1319.2 1319.2 0 0 0 18.5 35.53c.22.4.72.62 1.2.43 0 0 .05-.02.07.03h.01l1.8-.87c2.2-1.08 4.4-2.15 6.55-3.16 6.18-2.9 12.57-5.97 18.33-9.75.37-.28.5-.82.34-1.24a1579.6 1579.6 0 0 0-9.86-20.4 697.6 697.6 0 0 1-6.79-14.13c-.1-.24-.28-.37-.53-.48a.96.96 0 0 0-.75.02 67.34 67.34 0 0 1-3.27 1.6c-.47.2-.95.43-1.44.66a.84.84 0 0 0-.52.72v.04c-.07.37.05.67.35.9l.01.02.08.08.22.19.11.1c.68.5 1.3 1 1.46 1.43.26.66.7 2.29-.8 2.87-.72.28-1.69.11-1.99-.67a9.15 9.15 0 0 1-.33-1.11c-.06-.25-.12-.5-.2-.76a74 74 0 0 1-.21-.81l-.06-.22-.16-.6a.8.8 0 0 0-.43-.57.95.95 0 0 0-.09-.05c-.27-.17-.53-.13-.77-.04l-4.3 1.9c-.36.13-.58.43-.59.78 0 .34.12.64.42.87l.05.04c.74.51 1.37.96 1.8 2.06.6 1.5.14 2.65-1.23 3.19-1.2.47-2.4-.3-2.8-1.33-.11-.3-.2-.88-.26-1.55l-.18-1.52a.98.98 0 0 0-.49-.7c-.25-.12-.53-.14-.83-.03-1.38.54-2.67 1.12-3.96 1.7-.3.11-.47.39-.56.7-.08.3.04.6.27.86a5.1 5.1 0 0 1 1.35 1.68c.54 1.38-.12 2.68-.78 2.94-.66.25-1.74.13-2.28-1.25-.21-.54-.36-1.1-.52-1.67a3.8 3.8 0 0 0-.2-.88c-.12-.3-.28-.52-.53-.63zm5.4-.52a4.73 4.73 0 0 1 .87 4.54 3.66 3.66 0 0 1-2 2.27 3.6 3.6 0 0 1-2.68-.02c-1-.41-1.76-1.24-2.2-2.36-.22-.55-.38-1.1-.51-1.6l-.81.39h-.01l-.99.47a1319.2 1319.2 0 0 0 17.53 33.66c2.49-1.22 5.02-2.45 7.47-3.6 5.91-2.78 11.9-5.65 17.33-9.12-2.57-5.38-5.13-10.74-7.71-15.97l-1.75-3.6c-2.13-4.33-4.3-8.76-6.36-13.2-.76.38-1.53.75-2.31 1.1.07.08.15.14.23.21.3.28.77.77 1.02 1.42.18.44.48 1.34.4 2.36-.05.53-.21 1.16-.61 1.76a3.83 3.83 0 0 1-4.15 1.47 3.22 3.22 0 0 1-2.15-1.93c-.16-.4-.26-.8-.35-1.12l-.06-.27-.18-.65v-.04l-.14-.48-1.6.7c.44.47.86 1.06 1.19 1.9.41 1.05.56 2.25.12 3.4a4.22 4.22 0 0 1-2.5 2.37c-2.46.97-4.68-.67-5.38-2.46a8.22 8.22 0 0 1-.4-2.1V185l-1.31.57zm8.38 37.76l-.02-.06.02.06z" clip-rule="evenodd"/>
  <path fill="#E7EAF3" d="M268.05 180c-1.67-1.54-3.85.46-3.02 2.2-.32.19-.58.38-.9.51-.9.39-1.02.13-1.67-.45-.45-.39-1.15-.32-1.47.2-.58.96-.07 2.05.7 2.76 1.03.97 2.63.9 3.86.52 1.15-.4 2.3-.97 2.95-2.06.64-1.1.58-2.7-.45-3.67z"/>
  <path fill="#181B2B" fill-rule="evenodd" d="M264.28 179l-.03.01c-.43.38-.71.97-.71 1.64 0 1.46 1.14 2.44 2.1 2.44 1.22 0 2.08-.96 2.05-1.93v-.06c0-.48-.24-1.08-.77-1.6a2.65 2.65 0 0 0-1.79-.77c-.43 0-.7.13-.85.26zm5.41 2.1c0-2.25-2.18-4.37-4.56-4.37-.83 0-1.6.25-2.18.77a4.14 4.14 0 0 0-1.41 3.15c0 2.45 1.92 4.44 4.1 4.44 2.25 0 4.12-1.8 4.05-3.99z" clip-rule="evenodd"/>
  <path fill="#E7EAF3" d="M271.55 226.09c.47-.7.31-1.38-.11-1.86.26-2.74.48-5.44.38-8.16a71 71 0 0 0 .52-4.34c.2-2.29-3.16-3.2-3.57-.78-.38 2.2-.66 4.4-.94 6.59-.07.64-.36 1.42-.18 1.5-.55-.15-2.2-1.77-2.44-2-.65-.51-1.8-.7-2.45.1-1.17 1.55-2.41 3.55-3.92 4.8-1.06.85-.88.75-2.09-.02-.93-.6-1.78-1.57-2.59-2.31-.6-.57-1.72.25-1.14.95.61.75 1.34 2.04 2.2 3.1a12 12 0 0 0-3.26-2.06c-.5-.2-.95.18-.84.72.62 3.11 3.94 5.58 6.28 7.5.52.38 1.44.62 2.01.19a26 26 0 0 0 3.3-3.08c.61-.66 1.12-1.69 1.77-2.48 2.2 1.69 5.09 4.72 7.07 1.64zm-14.26-.69c.41.22.87.29 1.32.18l.68-.16-.83.9c-.42-.3-.8-.57-1.17-.92z"/>
  <path fill="#181B2B" fill-rule="evenodd" d="M252.1 220.54c-.17.2-.2.42-.2.7.01.27.11.44.3.62 1.85 1.58 3.7 2.98 5.75 4.53l1.5 1.15a.94.94 0 0 0 1.32-.18c1.34-1.8 2.7-3.45 3.97-5l.25-.3c.2.15.4.3.6.47.2.16.4.33.62.48.65.52 1.35 1.09 1.97 1.65.47.44.85.88 1.23 1.32.24.31.65.43 1.01.33.36-.1.67-.44.7-.85.48-5.34.91-11.09.7-16.81a.97.97 0 0 0-.34-.67c-.23-.13-.51-.21-.78-.2l-1.95.3-1.94.3-3.31.5c-2.73.42-5.5.84-8.23 1.17a.87.87 0 0 0-.8.67c-.12.32.03.72.31.99.69.54 1.33 1.22 2.01 1.94l.07.07c.2.27.47.53.7.75-.77.94-1.65 1.88-2.48 2.78-.96 1.03-2.02 2.17-2.97 3.3zm5.64-8.8c2.04-.27 4.09-.58 6.1-.89l3.25-.49 1.97-.3h.01c.27-.05.53-.1.79-.13.09 4.4-.18 8.82-.54 13.07a39.8 39.8 0 0 0-2.46-2.02l-.01-.01a13.9 13.9 0 0 0-.7-.54 2 2 0 0 0-2.7.35l-.26.31c-1.07 1.3-2.22 2.7-3.37 4.21a232.42 232.42 0 0 1-5.5-4.27l2.22-2.42.02-.02c.82-.89 1.73-1.86 2.55-2.84a2 2 0 0 0-.18-2.75 4.05 4.05 0 0 1-.62-.66l-.1-.1-.47-.5zm1.4 14.45l.02-.02-.01.02zm9.98-.88v-.02.02z" clip-rule="evenodd"/>
  <path fill="#E7EAF3" d="M164.13 191.04c-.96.39-1.6.84-1.8 1.87 0 .06.07 1.02.13 1.09-.2.58-.9 1.35-1.15 1.8-.33.51-.65 1.22-1.03 1.67-.13.13-.2.2-.2.26-.19-.13-.45-.26-.64-.38-.25-.13-3.4-2.06-3.47-1.74.26-.97-.9-1.55-1.6-.9-1.29 1.1-.26 2.5.64 3.4 1.28 1.23 3.21 3.29 5.08 3.48 2.05.26 3.08-1.41 4.1-2.96.65-.9 1.3-1.8 1.8-2.76.26-.4.39-.78.52-1.23 0-.2.06-.38.06-.58 0-.25 0-.38-.06-.51.45-1.35-.77-3.22-2.38-2.51z"/>
  <path fill="#181B2B" fill-rule="evenodd" d="M161.15 198.25a44.98 44.98 0 0 1-6.04-3.74c-.2-.13-.32-.38-.38-.64 0-.26.06-.52.19-.7.6-.74 1.14-1.52 1.68-2.31l.82-1.17c.3-.42.58-.85.87-1.29l.87-1.29c.13-.19.38-.38.64-.38.26-.07.51.06.7.19.46.39.9.77 1.36 1.1a45.56 45.56 0 0 0 4.43 3.47.7.7 0 0 1 .38.64c.07.26-.06.52-.19.78a73.28 73.28 0 0 0-3.92 5.14c-.19.26-.51.45-.77.45-.13 0-.32-.06-.45-.13l-.2-.12zm.31-2.1a44.88 44.88 0 0 1-4.3-2.62c.4-.54.8-1.1 1.16-1.63.25-.37.5-.73.73-1.04l.02-.04.88-1.3v-.01c.07-.1.13-.2.2-.28l.46.35a53.7 53.7 0 0 0 3.62 2.91 75.74 75.74 0 0 0-2.76 3.66z" clip-rule="evenodd"/>
  <path fill="#E7EAF3" d="M225.97 219.78a2.15 2.15 0 0 0-2-1.42c-1.02-.64-2.75 0-2.75 1.48-.07 4.76-1.74 8.95-5.98 11.52-5.07 3.09-11.56 2.45-13.87-3.54a.56.56 0 0 0-1.1.13v.06c-.19-.45-.31-.9-.44-1.35-.13-.51-1.03-.58-1.1 0-1.15 8.43 9.19 16.8 17.22 15.13 9.25-1.94 12.97-14.03 10.02-22.01zM216 237.67c-2.76.96-5.78.19-8.54-1.48 2.44.51 5.14.38 7.32-.45a16.62 16.62 0 0 0 7.39-5.67c-.84 3.48-2.7 6.44-6.17 7.6z"/>
  <path fill="#E7EAF3" d="M216.14 215.47c-.77-.45-1.6.45-1.15 1.15.7 1.23 1.4 2.32 1.47 3.8 0 .84-.19 1.55-.45 2.25-.77 0-1.47.52-1.41 1.48.06.84.2 1.68.26 2.51 0 .26.13.84.13 1.16-.07-.06-.33.13-.45.26-1.67.83-3.47 1.41-5.14 2.25-.84.45-.2 1.6.64 1.48 1.41-.26 2.83-.64 4.24-.97.96-.19 2.05-.25 2.89-.83 1.28-.9 1.22-2.96.9-4.63 1.99-2.9 1.09-8.05-1.93-9.91z"/>
  <path fill="#181B2B" fill-rule="evenodd" d="M218.03 221.88c.2-.56.32-1.17.33-1.84a5.16 5.16 0 0 0-5.4-5.28 4 4 0 0 0-1.6.25c-1.86.65-3.02 2.45-3.02 4.7 0 1.36.44 2.6 1.16 3.55a.99.99 0 0 0-.16.17 8.6 8.6 0 0 0-1.55 5.23v.34c0 .99 0 1.83.11 2.5.12.73.4 1.38 1.05 1.87a2.5 2.5 0 0 0 1.64.53c.68 0 1.47-.24 2.23-.47l.04-.02a37.5 37.5 0 0 1 6.9-1.27 2.32 2.32 0 0 0 1.23-.8c.14-.21.49-.77.35-1.45-.38-2.54-1.07-5.67-3.31-8zm-5.88-5.03l-.14.06c-.9.31-1.67 1.24-1.67 2.8 0 2.15 1.51 3.54 3.08 3.54 1.3 0 2.89-1.14 2.94-3.24 0-1.69-1.13-3.25-3.4-3.25-.52 0-.72.06-.81.1zm4.79 6.81a4.9 4.9 0 0 1-3.52 1.59c-.9 0-1.72-.25-2.45-.67l-.02.04a6.62 6.62 0 0 0-1.16 4.04v.25c0 1.1 0 1.78.08 2.25.07.42.18.54.3.62l.02.02c.06.05.1.07.14.08a1 1 0 0 0 .26.02c.33 0 .8-.13 1.7-.4l.03-.01a39.4 39.4 0 0 1 7-1.3l.02-.02.01-.01c-.34-2.3-.9-4.69-2.41-6.5z" clip-rule="evenodd"/>
  <path fill="#181B2B" fill-rule="evenodd" d="M224.08 233.1a12.86 12.86 0 0 1-10.34 4.95c-8.03 0-14.07-6.5-14.07-15.06 0-6.37 3.86-11.58 9.44-12.74 1.8-.38 3.47-.57 5.08-.57 8.22 0 13.36 4.88 13.36 12.74 0 3.99-1.29 7.85-3.47 10.68zm-14.55-20.9l-.01.01c-4.51.94-7.85 5.2-7.85 10.78 0 7.6 5.27 13.06 12.07 13.06 3.56 0 6.58-1.46 8.76-4.19a15.72 15.72 0 0 0 3.05-9.44c0-3.48-1.13-6.1-2.98-7.87-1.86-1.78-4.67-2.88-8.38-2.88-1.45 0-2.97.18-4.66.54z" clip-rule="evenodd"/>
  <path fill="#8AFFCE" d="M117.21 99.7c.07-.19.07-.32.13-.51a1.27 1.27 0 0 0-.7-1.22c-.78-.33-1.48-.39-2.25.06-.07.06-.13.13-.2.13a.95.95 0 0 0-1.09.38 2.26 2.26 0 0 0-.06 2.13c-.13.38-.13.83-.07 1.28.13.84 1.1 1.3 1.87 1.23.45-.07.9-.32 1.15-.71.13 0 .26 0 .39-.06 1.16-.33 1.6-1.87.83-2.7z"/>
  <path fill="#E7EAF3" d="M120.62 101.83c-.13-1.16-1.41-2.45-2.64-1.55-.64.45-.96.9-1.28 1.61-.26.58-.45 1.22-.83 1.67-.65.84-1.87 1.48-2.57.39-.45-.7-1.8-.52-1.67.45.25 2.19 2.3 3.35 4.43 2.96 2.12-.39 4.88-3.22 4.56-5.53z"/>
  <path fill="#181B2B" d="M115.64 104.47a4.15 4.15 0 0 1-4.1-4.19c0-1.1.44-2.06 1.21-2.76l.2-.2c.38-.38.9-.83 1.6-.96.32-.07.71-.13 1.03-.13a4.3 4.3 0 0 1 4.5 4.05c-.07 2-1.6 4.19-4.44 4.19zm-1.6-5.6c-.52.45-.58.96-.58 1.35 0 1.1.84 2.25 2.19 2.25a2.26 2.26 0 0 0 2.44-2.25c0-.45-.45-2.13-2.57-2.13-.2 0-.45 0-.65.07-.19.06-.38.26-.64.51l-.2.2z"/>
  <path fill="#8AFFCE" d="M145.33 227.38c-.45.65-2.44-4.5-2.7-5.02-.32-.7-1.28-2.12-1.22-2.77.13-1.6 1.6-2.63 2.83-3.28 2.25-1.22.25-4.5-2-3.4-1.99 1.02-4.04 2.37-4.68 4.63-.07-.07-.13-.2-.2-.26-.64-.97-2.5-.39-1.99.84 1.03 2.5 2.19 5.01 3.4 7.46.97 1.87 1.87 4.18 3.47 5.6 2.57 2.19 6.81 1.03 6.75-2.7-.13-2.2-2.57-2.58-3.66-1.1z"/>
  <path fill="#E7EAF3" d="M141.73 212.26c-1.6-2.25-3.02-4.57-4.62-6.76-.45-.64-1.6-.32-1.35.58.83 2.7 2.05 5.21 3.21 7.85.77 1.87 3.98.07 2.76-1.67z"/>
  <path fill="#E7EAF3" d="M153.74 227.12c-.58-3.66-1.99-7.01-4.17-9.97a1.73 1.73 0 0 0-.97-.7c-.32-.52-.64-.97-.96-1.42-1.28-1.93-3.15-3.74-4.04-5.86-.33-.77-1.42-.2-1.29.52.38 2.25 2 4.18 3.08 6.17l.9 1.68c-.19.45-.19.96.13 1.54 1.03 1.74 2 3.54 2.63 5.47.58 1.6 1.74 4.63 1.22 6.3-.38 1.23-3.14 2.97-4.5 3.35-1.6.45-2.05-.38-3.27-1.35a28.8 28.8 0 0 1-2.57-2.31c-.25-.26-.58.12-.38.38 1.47 1.87 2.95 6.24 5.59 6.76 2.3.45 5.84-2.32 7.45-3.74 2.05-1.86 1.54-4.5 1.15-6.82z"/>
  <path fill="#181B2B" fill-rule="evenodd" d="M130.78 206.85c-.06-.38.07-.77.39-.96 2.12-1.48 4.63-2.38 7-3.15a1 1 0 0 1 1.03.25c7.45 8.05 11.18 18.6 13.55 26.84.13.45-.06.9-.45 1.1a33.03 33.03 0 0 0-5.97 3.98c-.2.2-.39.26-.64.26a.82.82 0 0 1-.65-.26c-7.06-6.56-11.81-16.02-14.25-28.06zm14.95 25.95a35.7 35.7 0 0 1 4.87-3.22c-.47-1.59-.99-3.24-1.57-4.94-.37.25-.78.49-1.2.66-.74.31-1.7.52-2.62.1a3.43 3.43 0 0 1-1.35-1.15 7.85 7.85 0 0 1-1.36-3.88c0-.33.06-.67.22-1 .17-.32.4-.57.66-.77a8.41 8.41 0 0 1 1.92-.96c.25-.1.53-.23.81-.36a60.29 60.29 0 0 0-2-3.95l-.8.36c-2.66 1.2-4.69 2.11-7.4 3.75 2.43 6.21 5.72 11.34 9.82 15.36zm1.2-13.69l-.85.38h-.02a7.03 7.03 0 0 0-1.55.78v.15l.01.14.08.41c.07.32.19.7.34 1.09.15.38.33.73.53 1.01a1.47 1.47 0 0 0 .58.51c.17.08.48.1 1-.12.43-.18.87-.46 1.28-.77-.43-1.19-.9-2.38-1.4-3.58zm-8.75-14.27a44.5 44.5 0 0 1 4.93 6.74l-.61.28a65.03 65.03 0 0 0-7.3 3.67 68.02 68.02 0 0 1-2.31-8.38 24.8 24.8 0 0 1 5.29-2.31z" clip-rule="evenodd"/>
  <path fill="#E7EAF3" d="M52.53 191.34a49.8 49.8 0 0 0-1.67-8.17c-.26-.83-.9-1.22-1.54-1.22-.58-1.54-3.09-2-3.54.06a15.3 15.3 0 0 0-.32 4.83c-1.67-.58-3.47-.97-4.75-.51-.97.32-1.54 1.09-2 1.86-.31-.51-.7-.96-1.21-1.35-.32-.26-.84-.06-.71.39.13.32.2.64.32.96-.06-.06-.06-.13-.13-.2-.7-1.09-1.47-2.18-2.37-3.2-.26-.27-.58 0-.52.31.26 1.35.7 2.64 1.16 3.93.38 1.22.77 2.5 1.41 3.67.7 1.15 2.7.58 2.57-.65.45-.19.77-.38 1.16-.7.38-.4.58-1.23 1.02-1.55 1.1-.77 4.89 1.22 6.04 1.67.64.26 1.22.07 1.67-.32.07.32.13.64.13.9-2.31 0-4.56-1.74-6.87-.77-1.6.64-2.44 2.57-3.8 3.67-.57.45.07 1.22.65 1.16 2.12-.33 2.96-2.7 5.4-1.93 1.92.57 4.56 2 6.61 1.09 1.48-.84 1.48-2.5 1.29-3.93z"/>
  <path fill="#181B2B" fill-rule="evenodd" d="M40.51 192.78a64.92 64.92 0 0 1 2.71-3.27 2 2 0 0 1 2.36-.48 63.7 63.7 0 0 0 4.23 1.86l-.26-.7c-.56-1.45-1.15-2.99-1.66-4.5a2 2 0 0 1 .72-2.25c.64-.47 1.25-.98 1.85-1.5l-.4-.06c-1.22-.2-2.45-.38-3.68-.5a2 2 0 0 1-1.45-.86 89.3 89.3 0 0 0-1.69-2.35l-.46-.63-.66-.92c-.12.99-.21 2-.31 3l-.05.47v.01l-.2 1.93a2 2 0 0 1-1.28 1.68c-1.23.45-2.49.9-3.77 1.3l1.1.4.02.01.06.03.45.17h.02l.56.21a2 2 0 0 1 1.25 1.76 35 35 0 0 0 .24 2.44l.14 1.25.12 1.14.04.36zm-1.77 2.63c-.04-.88-.14-1.78-.24-2.68l-.14-1.25-.13-1.13c-.1-.88-.21-1.77-.26-2.66l-.51-.2-.51-.19c-1.3-.47-2.6-.94-3.9-1.37l-.34-.1a.97.97 0 0 1-.71-.97.9.9 0 0 1 .77-.9 51.99 51.99 0 0 0 6.8-2.13l.2-1.93.05-.48c.18-1.85.36-3.8.66-5.63.06-.39.38-.71.77-.77.38-.07.77.06 1.03.38l1.06 1.48a110.69 110.69 0 0 0 1.5 2.1c.58.78 1.18 1.6 1.74 2.4 1.29.13 2.57.33 3.79.52l2.5.39c.4.06.71.32.78.7.12.4 0 .78-.33 1.03l-.83.78c-.84.77-1.73 1.54-2.7 2.25.5 1.47 1.06 2.95 1.61 4.4.18.44.35.89.51 1.33l.58 1.48c.13.32.06.7-.2 1.03-.25.25-.64.38-.96.25a51.31 51.31 0 0 1-6.61-2.7A68.35 68.35 0 0 0 40.6 196c-.32.2-.58.32-.9.32-.07 0-.2 0-.26-.06a1.05 1.05 0 0 1-.7-.84z" clip-rule="evenodd"/>
  <path fill="#E7EAF3" d="M84.19 112.86c-1.54 1.54-1.74 3.54-2.5 5.47-1.16 3.02-3.8 2.12-6.17 1.1-.97-.46-2.06.7-1.22 1.54 2.18 2.19 5.46 4.24 8.54 2.38 2.7-1.67 3.15-5.47 4.43-8.11.9-1.93-1.41-3.99-3.08-2.38z"/>
  <path fill="#181B2B" d="M81.85 122.51c-.2 0-.39-.06-.52-.13a43.72 43.72 0 0 0-3.79-2.12l-.96-.52c-.45-.25-.64-.77-.45-1.22a52.07 52.07 0 0 1 3.15-6.05.94.94 0 0 1 1.22-.38c2.05.96 3.92 1.8 5.78 2.57.26.13.45.32.58.58.06.26.06.58-.13.84-.84 1.22-1.67 2.5-2.5 3.73-.52.77-1.1 1.6-1.61 2.38-.2.2-.51.32-.77.32zm-3.6-4.05l.13.06c1.03.52 2.12 1.1 3.08 1.74.39-.52.7-1.1 1.1-1.61.64-.9 1.22-1.87 1.86-2.77a92.76 92.76 0 0 1-3.98-1.73c-.65 1.22-1.42 2.76-2.19 4.3z"/>
  <path fill="#8AFFCE" fill-rule="evenodd" d="M233.18 121.39a9.11 9.11 0 0 1-.61 5.8c-.45 2.18-1.4 4.17-3.34 5.59-3.72 2.7-8.41 1.22-11.81-1.29-1.22-.9-1.03-2.38-.26-3.22a7.18 7.18 0 0 1-.26-5.98c-.2-.97-.2-2 .13-2.96.2-.7 1.22-.52 1.28.2 0 .38.07.83.2 1.22.19.12.25.32.19.57.9 2.39 3.15 4.64 5.59 4.96 2.89.39 4.94-2.06 4.88-4.7l-.06-.6a6.7 6.7 0 0 0-.07-.62c-.13-.97.58-1.55 1.41-1.74a10.2 10.2 0 0 0-.44-1.29c-.4-.9 1.09-1.47 1.47-.64a20.73 20.73 0 0 1 1.35 3.28c.26.39.32.78.32 1.16 0 .1.02.18.03.26zm-11.53 7.91c.13-.13.26-.25.45-.38a8.57 8.57 0 0 1-3.2-2.51 6.33 6.33 0 0 0 2.75 2.9z" clip-rule="evenodd"/>
  <path fill="#8AFFCE" d="M225.12 176.28c.65-1.16 1.6-2.25 2.96-2.38 4.75-.39 2.31 7.2 1.03 9.26a1.9 1.9 0 0 1-1.55.84c-.77 1.8-3.02 1.35-3.66-.26a1.75 1.75 0 0 1-.64-2.12c.11-.26.2-.53.3-.82.06-.22.13-.44.22-.66a21.26 21.26 0 0 1 .19-.9c-.07-.71.06-1.48.32-2.25.13-.46.45-.65.83-.71z"/>
  <path fill="#E7EAF3" fill-rule="evenodd" d="M251.59 58.97c-.07-1.1-1.6-1.1-1.67 0a29.65 29.65 0 0 1-1.54 7.46c-.07.22-.14.5-.22.82-.27 1-.63 2.37-1.07 3.5a38.89 38.89 0 0 1-4.11-4.5l-.58-1.36c-.26-.58-.96-.64-1.28-.32-.65.06-1.22.7-.71 1.35.26.39.53.76.8 1.13.28.37.55.74.8 1.12l.3.65c.1.2.19.41.28.64a28 28 0 0 1-3.34-4.83c1.1-.96 1.16-2.18.65-3.15.64-1.35-.65-3.41-2.44-2.9-1.72.53-3.38 1.13-5.02 1.73-4.4 1.6-8.7 3.15-13.61 3.1-4.4-.04-8.45-1.45-12.5-2.85a80.04 80.04 0 0 0-6-1.91c-.84-.2-1.16.84-.51 1.29 5.46 4.05 12.2 7.07 19.07 7.4 2.96.12 6.1-.2 9.19-.9-3.02 1.54-6.17 2.63-9.83 2.63-3.66.07-8.48-.32-11.82-2.5l-.1-.17-.1-.16a32.34 32.34 0 0 0-2.26-2.5l-.94-.97c-1.1-1.1-3.28 0-2.7 1.54a12.54 12.54 0 0 0 2.63 4.18 46.93 46.93 0 0 0-2.89 5.67c-.45 1.1 1.03 2.06 1.6.96a36.9 36.9 0 0 1 3.1-5.08c3.07 2.19 7.12 3.15 11.17 3.47 7.83.65 14.2-2.31 20.23-6.56.11 1.7 1.67 3.6 2.74 4.9l.4.5.38.47.01.01c1.82 2.27 4.17 5.21 6.75 6.47.64.33 1.54.33 2.05-.25l.1-.13c.03-.05.06-.1.1-.13.64-.77.51-2.12-.39-2.57.7.19 1.35-.07 1.8-1.1.26-.26.45-.64.45-1.03.06-.32.06-.7 0-1.03v-.19c0-.03.01-.05.03-.06.02-.02.03-.04.03-.07.2-.45-.06-.84-.38-1.1.3-1.08.51-2.16.72-3.16l.18-.89a32 32 0 0 0 .45-8.62zm-14 6.95l.19-.2a24.6 24.6 0 0 0 1.8 3.42c-1.1-1.1-2-2.25-2-3.22zm9.82 10.3c-.37 0-1.1-.66-1.73-1.23l-.07-.06.13-.1c.05-.03.1-.06.13-.1.13.26.38.46.64.58.45.4.9.78 1.35.9h-.12a.63.63 0 0 0-.33 0zM192.94 114.76c.07-2.57-3.85-3.28-4.62-.9a3.19 3.19 0 0 0-2.12-.77c-.76.03-1.3.46-1.82.88-.45.35-.9.7-1.46.8-1.17.14-2.53-1.1-3.6-2.06-.33-.3-.63-.58-.9-.78-1.66-1.22-3.85-2.06-5.64-.64-.56.43-.86.97-1.17 1.54-.16.28-.31.56-.5.84-1.8 2.44-4.63 2.25-6.62.19-.7-.7-1.86.2-1.35 1.1.26.44.51.83.77 1.15-.7-.38-1.35-.9-1.54-1.41a.67.67 0 0 0-1.28 0c-1.1 3.21 5.33 6.5 7.77 7.08 1.54.38 3.2 0 4.5-.84a9.65 9.65 0 0 0 4.23 3.4c1.29.52 2.76.65 4.18.4a4.47 4.47 0 0 0 1.88-1.03c.21-.16.41-.32.62-.45 2.12 1.47 4.7 2.89 6.88.38a3.38 3.38 0 0 0 .12-4.57c1.16-.96 1.67-2.64 1.67-4.3zm-14.83 4.95c-1.4-.87-2.33-2.6-3.11-4.07l-.23-.43c.06-.13.19-.2.38-.2.33-.04 1.05.68 1.55 1.2l.44.42.25.2c1 .83 1.97 1.64 3.22 2.11.45.2.84.26 1.22.33l-.27.17c-1.08.7-1.9 1.23-3.45.28z" clip-rule="evenodd"/>
  <path fill="#E7EAF3" d="M232.64 128.47c-.2-2.2 3.4-2.64 3.79-.52 2.31 13.7-23.32 15.9-22.48 1.93.06-.77 1.15-.96 1.35-.19 1.28 4.57 5.33 6.18 9.82 5.8 3.98-.4 7.97-2.52 7.52-7.02zM235.4 108.9c-3.15-3.08-8.22-3.73-12.78-3.02a18.37 18.37 0 0 0-10.92 4.38 19.16 19.16 0 0 0-5.85 9.52 17.26 17.26 0 0 0-.77 3.15c-.13.71.13 1.35.58 1.74.06.45.2.97.32 1.42.64 2 3.53 1.6 3.66-.52.13-2.77.39-5.21 1.16-7.53a18.2 18.2 0 0 1 7.39-7.4 19.08 19.08 0 0 1 8.99-2.12c1.6 0 3.12.3 4.65.58 1.05.2 2.1.4 3.18.51.45.13.65-.45.39-.7z"/>
  <path fill="#E7EAF3" fill-rule="evenodd" d="M232.38 94.23c7.07 1.03 12.91 5.34 17.02 11.07 8.35 11.58 8.42 28-.38 39.38-8.55 10.88-24.09 14.93-36.8 9.46a30.2 30.2 0 0 1-16.26-16.47c-.83.2-1.73-.13-2.12-1.16-4.3-12.16-.77-26.25 8.6-34.55-.95.32-2.05-.07-2.3-1.3-.13-.67-.24-1.34-.36-2.02-.1-.67-.22-1.35-.35-2.03-.13-.67-.2-1.37-.27-2.07l-.12-1.08c-.15 0-.3-.02-.42-.04a1.7 1.7 0 0 0-.22-.02c-.51 0-.96-.07-1.47-.2-.58-.19-.78-1.09-.2-1.35 1.42-.64 3.73-1.48 4.76.2.06 0 .06.06.06.06.77-.2 1.73 0 2.18.7.07-.44.71-.64.84-.12.13.58.26 1.16.58 1.67.06.07.25.32.32.45h.2a217.5 217.5 0 0 0 3-.77c1.94-.51 2.7 1.6 2 2.83a42.42 42.42 0 0 1 21.71-2.64zM204 96.1c0 1.29 0 2.64-.06 3.99 0 .26-.07.51-.2.7a26.92 26.92 0 0 1 5.08-3.15c-.26 0-.55.02-.86.04-1.21.06-2.68.14-3.45-.68-.34-.4-.38-.8-.43-1.28l-.01-.2c-.07-.13-.07-.2-.07-.32v.9zm13.75 55.98c12.2 3.1 25.43-3.02 31.21-14.15 5.53-10.69 3.34-24.46-4.94-33.08-5.2-5.47-11.44-7.2-18.82-6.95-6.62.26-13.36 1.67-18.82 5.53-7.97 5.67-10.66 15-10.28 24.26 2.18 11.4 10.02 21.43 21.65 24.4z" clip-rule="evenodd"/>
  <path fill="#E7EAF3" fill-rule="evenodd" d="M254.86 88.7l-1 .28c-1.2.32-2.1.56-2.66 1.33-.96-.39-2.25-.07-2.5 1.22-.07.26-.13.58-.13.9-.32-.58-1.42-.58-1.35.26.05 1.02-2.97.95-4.7.9a14.7 14.7 0 0 0-1.02 0 15.48 15.48 0 0 0-5.23 1.35c-.03.02-.07.03-.1.07a21.1 21.1 0 0 1 4.95 2.18c.38-.13.77-.25 1.15-.32l.26-.06c.08-.02.16-.03.26-.07.06.13.19.32.32.45.22.26.46.52.7.77.25.26.49.52.71.78.45.51 1.41.51 1.86 0h.52c.19 0 .38 0 .58-.07l.38-.19c0 .97 0 1.87.06 2.83.2 2.13 1.29 3.93 3.6 3.86 1.03-.06 2-.9 2-2-.07-2.5-.14-4.95-.26-7.46-.02-.3-.06-.62-.1-.96a9.76 9.76 0 0 1-.1-2.25c-.38-.78-.19-1.3.58-1.42.52-.32 1.03-.64 1.6-.97.84-.57.4-1.67-.38-1.41zm-6.8 6.95a.9.9 0 0 0-.2-.26l.39-.38c0 .12-.02.25-.04.38l-.03.39-.13-.13z" clip-rule="evenodd"/>
  <path fill="#E7EAF3" d="M214.07 77.25c1.16-.65 2.9-.84 3.28.83.2 1.03-.9 1.8-1.73 1.35h-.07c-.26.07-.51.2-.77.32l-.8.42-.8.42-.92.48c-.63.33-1.24.65-1.85 1l-.1.03c-.03.02-.06.04-.09.04-.2.06-.58 0-.7-.2 0-.03-.02-.05-.04-.06-.01-.02-.03-.03-.03-.07a.9.9 0 0 1 0-1.22 7.69 7.69 0 0 1 1.65-1.36l.53-.38c.2-.12.39-.25.58-.39.6-.4 1.24-.83 1.86-1.21zM236.75 79.43c-.91-.16-1.71-.49-2.53-.82-.45-.18-.9-.37-1.39-.53a4.33 4.33 0 0 0-3.47.07c-.9.38-.26 1.73.64 1.54 1.16-.3 2.09.35 3 .98.24.18.48.35.73.5 1.03.58 1.86.9 3.02.7 1.22-.18 1.16-2.18 0-2.44zM219.8 90.73l.12.03c1.67.51 1.41 3.34-.45 3.15.2-.13.13-.13-.13.07l-.16.1-.16.09c-.32.13-.58.2-.9.26-.64.06-1.22 0-1.73-.39a2.29 2.29 0 0 1-.64-.77c-1.35.51-2.57-1.42-1.22-2.51-.26-.39-.26-.97.25-1.1.8-.56 1.74-.78 2.7-1l.39-.09c1.09-.26 1.86.9 1.28 1.8.06.07.06.2.06.26.22 0 .38.04.58.1zM235.34 89.73a1.9 1.9 0 0 1-.1-.05.42.42 0 0 0-.23-.08c.26-.7-.38-1.54-1.15-1.29l-.7.2-.71.19c-.58.13-.71.84-.52 1.29-.03 0-.05.01-.06.03-.02.01-.03.03-.07.03-1.28.84-.45 2.64 1.03 2.38.06 0 .39-.06.58-.13 0 .52.32 1.03.77 1.35.64.39 1.8.2 2.18-.57.45-1.3.13-2.58-1.02-3.35z"/>
  <path fill="#E7EAF3" fill-rule="evenodd" d="M237.65 157.75c-.45-2.13 2.82-3.03 3.21-.9.64 3.86 0 7.59-2 11.06-.4.78-.85 1.46-1.29 2.12-1.03 1.54-1.97 2.94-1.78 5.15l.08 1.06c.13 1.37.25 2.72.04 4.16-.38 3.21-2.05 6.24-5.2 7.46-2.57 1.03-6.42.77-7.84-1.93-.25-.45.07-1.16.65-1.1l1.07.08c3 .23 5.95.45 7.21-3.23.63-1.87.32-3.61.02-5.4-.14-.8-.28-1.61-.34-2.45a5.54 5.54 0 0 1 1.29-3.67l-.39.2c-.45.32-.9.64-1.41.9a36.73 36.73 0 0 1-8.33 2.93c-1.57.42-3.13.84-4.65.03-.64-.32-.38-1.48.39-1.42 2.18.13 5.2-1.48 7.58-2.83-.1-.03-.2-.08-.3-.13-.09-.05-.18-.1-.28-.13-1.03-.51-.32-2.25.77-1.86.9.32 1.8.45 2.7.45 2.82-1.87 4.37-4.06 4.56-7.72.06-.26.13-.52.2-.71-6.3 2.38-13.3 3.73-19.34 1.54l-3.66-.19-.64-.05a9.6 9.6 0 0 1-1.23-.14v.13c-.32 1.15-1.8 1.35-2.56.7-.65.52-1.68.65-2.38.2-6.55-4-9.32-12.49-9.32-19.82 0-1.03 1.42-1.16 1.74-.26.26.9.58 1.8.9 2.7a.7.7 0 0 1 .83.13c1.16 1.27 2.18 2.63 3.17 3.97l.5.66c.7-.83 2.18-1.09 2.82.2.84 1.54 1.74 2.19 3.15 3.15.51.39.96.77 1.22 1.22l.1.03c.03.02.06.04.1.04.7.25 1.21.58 1.73 1.1l.13.12c.1.09.23.19.31.32l.08-.04c.74-.44 1.44-.85 2.5-.47.83.25 1.34.9 1.53 1.6a.5.5 0 0 1 .13.04l.13.03c3.47.64 6.81.77 10.28.7.38 0 .7.14.96.27 1.83-.48 3.62-1.12 5.4-1.75l1.22-.44c2.18-.71 3.21 1.8 2.12 3.28.7 0 1.41.45 1.67 1.29.26.77.32 1.54.32 2.31.38-1.48.45-3.09.13-4.7zm-31.38-.02c.01-.11.03-.23.03-.37 0-.13 0-.26.13-.39a.93.93 0 0 1-.38-.58 1.82 1.82 0 0 0-.58-.64c-.58.97-2.12.77-2.76-.13-.4-.57-.83-1.17-1.28-1.77l-1.04-1.44a15.5 15.5 0 0 0 4.5 5.27c.45-.06.96.07 1.35.39V158l.03-.27z" clip-rule="evenodd"/>
  <path fill="#E7EAF3" fill-rule="evenodd" d="M220.5 178.72a1.86 1.86 0 0 0-2.38-1.6 10 10 0 0 0 .39-2c.06-.45-.52-.77-.84-.32l-.91 1.45c-1.28 2.06-2.69 4.33-4.55 5.88-.92-.24-2.26-1.08-2.82-1.44l-.07-.04a10.83 10.83 0 0 1-3.08-2.83c-.64-.83-1.86-.32-1.67.71.38 2.19 1.93 3.8 3.6 5.08a1.63 1.63 0 0 0 .37.27l.08.06c0 .19.06.38.19.57l.64.78.03.1.03.09c-.03 0-.04.02-.06.03-.02.02-.03.03-.06.03a16.94 16.94 0 0 1-20.1.65c-2.9-2-5.28-4.64-7.52-7.2-.3-.37-.62-.73-.92-1.08-2.34-2.72-4.66-5.41-6.08-8.71-.2-.51-.84-.13-.78.32.71 4.57 3.6 8.75 6.23 12.48a82.5 82.5 0 0 1-3.6-5.08c-.38-.58-1.15-.06-.9.52 4.57 9.97 12.15 20.78 24.35 20.97 10.09 0 21.46-8.81 20.43-19.69zm-8.67 10.81a16.95 16.95 0 0 1-13.56 4.64 20.63 20.63 0 0 1-9.3-3.6 20.28 20.28 0 0 0 22.6-1.42c.96-.71 1.1-1.87.7-2.77.33-.13.58-.26.9-.45.4-.06.84-.2 1.16-.52.52-.38.77-1.02.77-1.6l.39-.62.38-.6a.35.35 0 0 0 .08-.14l.05-.12c-.9 2.63-1.99 5.08-4.17 7.2z" clip-rule="evenodd"/>
  <path fill="#E7EAF3" fill-rule="evenodd" d="M194.1 168.43c3.66 2.96 9.9 3.28 13.8.7 2-1.28 4.31 1.74 2.51 3.22-1.4 1.22-3.2 2-5.13 2.38.12.58.06 1.16-.45 1.61-4.56 4.06-8.68 2.38-12.6-1.6-3.27-3.35-7.44-8.7-5.77-13.65 0-.06.06-.13.13-.2a24.48 24.48 0 0 1-.07-5.72c.06-.77 1.28-1.1 1.41-.2.84 4.77 2.25 10.3 6.17 13.46zm2.18 5.72c.45.26.97.52 1.42.71.96.39 1.8.39 2.5.2-1.35-.2-2.7-.46-3.92-.9z" clip-rule="evenodd"/>
  <path fill="#181B2B" d="M231.1 76.02a1 1 0 0 1 1-1c2.92 0 4.97 1.74 6.5 3.08a1 1 0 0 1-1.32 1.5c-1.55-1.36-3.1-2.58-5.18-2.58a1 1 0 0 1-1-1zM216.55 76.98a1 1 0 0 0-.9-1.79l-.27.12-.08.02-.39.14-.22.09c-2.31.83-4.68 1.7-6.36 4.3a1 1 0 0 0 1.67 1.08c1.32-2.03 3.39-2.78 5.53-3.56l.08-.03.03-.01.3-.11.1-.04.51-.2z"/>
  <path fill="#181B2B" fill-rule="evenodd" d="M232.22 82.9c.52-.57 1.03-.7 1.35-.7 1.74 0 2.64 2.7 2.64 4.63 0 2.38-1.16 3.22-2.25 3.22-1.29 0-2.83-1.74-2.83-4.05 0-1.16.39-2.26 1.1-3.1zm1.77 5.12a1.39 1.39 0 0 1-.33-.33 2.84 2.84 0 0 1-.53-1.7c0-.6.18-1.16.47-1.59l.14.26c.3.61.47 1.47.47 2.17 0 .76-.16 1.08-.22 1.19zm-.57-3.85l-.02-.01.02.01zM216.75 90.89c1.47 0 2.63-2.13 2.7-3.86 0-2.58-2.13-4.19-3.6-4.19-.52 0-.97.2-1.22.65a7.15 7.15 0 0 0-.97 3.54c0 2.18 1.35 3.86 3.09 3.86zm-1.09-3.86c0-.68.16-1.43.47-2.1.18.07.4.2.65.44.37.39.65.93.66 1.62-.02.5-.21 1.1-.5 1.54-.13.2-.24.3-.3.35-.15-.03-.34-.12-.53-.35a2.4 2.4 0 0 1-.45-1.5zM216.87 117.78c-.51.71-1.09 1.61-1.41 2.45-.45 1.29-.7 2.64-.7 3.99 0 6.44 4.88 11.71 10.91 11.71 7.13 0 11.44-6.05 11.44-11.97 0-6.37-4.3-10.68-10.67-10.68-3.79 0-7.51 1.74-9.57 4.5zm8.8 16.15c-4.8 0-8.92-4.24-8.92-9.71 0-1.09.21-2.2.59-3.3.23-.58.67-1.3 1.15-1.95 1.63-2.2 4.72-3.69 7.95-3.69 2.72 0 4.85.91 6.3 2.37 1.45 1.45 2.37 3.59 2.37 6.31 0 5.08-3.66 9.97-9.44 9.97z" clip-rule="evenodd"/>
  <path fill="#181B2B" d="M217.81 112.25a1 1 0 0 0-1.1-1.67c-4.42 2.93-7.13 7.53-7.13 12.48 0 .77.07 1.54.2 2.3a1 1 0 1 0 1.98-.35c-.12-.65-.18-1.3-.18-1.95 0-4.19 2.3-8.2 6.23-10.81zM211.03 130.98a1 1 0 0 1 1.4.13c1.32 1.56 2.77 2.97 4.63 3.43h.07a1 1 0 0 1 0 2h-.2c-.07 0-.14 0-.22-.02-2.59-.6-4.44-2.5-5.8-4.13a1 1 0 0 1 .12-1.4z"/>
  <path fill="#181B2B" fill-rule="evenodd" d="M217.56 105.23l-.18.06a22.05 22.05 0 0 0-1.7.64c-6.27 2.75-10.32 9.14-10.69 16.87a23.35 23.35 0 0 0 5.52 15.77c3.67 4.38 8.48 7.01 13.24 7.2h1.09c12.84 0 20.23-10.55 20.62-20.65.25-5.4-1.35-10.42-4.56-14.16-3.54-4.18-8.74-6.56-15.03-6.82-2.87-.11-5.68.23-8.3 1.09zm8.23.91c-2.98-.12-5.85.3-8.47 1.29h-.01c-5.94 2.2-9.97 8.03-10.32 15.47-.23 5 1.63 10.3 5.06 14.38 3.37 4.03 7.68 6.32 11.74 6.5h1.05c11.51 0 18.26-9.43 18.62-18.73v-.02c.23-4.96-1.24-9.46-4.08-12.76l-.01-.02c-3.12-3.69-7.77-5.87-13.58-6.1z" clip-rule="evenodd"/>
  <path fill="#181B2B" d="M238.86 101.65c6.58 4.93 10.51 11.6 10.51 17.94v.45c-.06.58-.44.96-.96.96a.95.95 0 0 1-.96-.96v-.45c0-5.7-3.61-11.78-9.72-16.38l-.27-.2-.03-.03c-.45-.32-.52-.9-.2-1.35.32-.44.88-.5 1.32-.21l.02.01.01.01.28.2zM246.86 132.57c.73-1.13.78-2.57.78-3.91v-1.35a15.12 15.12 0 0 1 .05-1.29c0-.04 0-.08.02-.13.06-.51.5-.9 1.02-.9.52.07.9.52.9 1.03v.15l-.02.25v.1c-.02.23-.04.5-.04.79v1.35c0 1.63-.11 3.54-1.24 5.15l-.24.32a1.18 1.18 0 0 1-.77.32c-.2 0-.45-.06-.58-.2-.38-.3-.5-.94-.15-1.32l.01-.01.01-.01a3.82 3.82 0 0 0 .25-.34z"/>
  <path fill="#181B2B" fill-rule="evenodd" d="M204.09 99.07a35.31 35.31 0 0 1-2.5-6.14c-.62.28-1.3.5-2 .5-2.52 0-5.23-1.73-5.23-5.05 0-3.13 1.7-5.83 4.66-7.9v-.05a57.1 57.1 0 0 1-1.58-13.29c0-.7-.02-1.37-.05-2.02a25 25 0 0 1 .08-4.06c-.85-.8-1.66-1.63-2.4-2.51a1.85 1.85 0 0 1-.43-1.69c.1-.36.33-.95.94-1.27a55.13 55.13 0 0 1 27.65-7.72c4.38 0 10.83.35 15.92 3.43 1.44-.51 3-.8 4.44-.8 3.49 0 6.36 1.45 8.33 4.07 1.94 2.6 2.95 6.26 2.95 10.64 0 3.33-.65 6.7-1.26 9.86l-.1.56-.27 1.37c-.13.66-.25 1.3-.36 1.96 3.05.74 5.9 2.92 5.9 6.65 0 1.89-.72 3.51-2.07 4.74a9.97 9.97 0 0 1-4.6 2.2c-.03 3.48-.75 6.9-2.03 9.89 4.6 5.64 9.31 14.7 9.31 24.03 0 3.35-.64 6.57-1.8 9.46-3.81 9.16-10.73 16.16-19 19.8.88 2.15 1.38 4.5 1.38 6.84 0 4.82-2.35 7.89-5.54 9.94l-.75.45c.29 1.8.5 3.68.5 5.63 0 1.95-.16 4.03-1.08 5.65a5.09 5.09 0 0 1-2.07 2.03c-.92.48-2.04.72-3.37.72a6.57 6.57 0 0 1-3.97-1.16 6.28 6.28 0 0 1-2.1-2.83 10.6 10.6 0 0 1-.57-2.05 21.56 21.56 0 0 1-5.53 8.76c-.1.17-.26.31-.44.4a20.15 20.15 0 0 1-13.72 5.06c-8.05 0-16.18-5.11-22.24-12.42-6.08-7.33-10.23-17.04-10.23-26.55 0-15.9 11.98-27.74 23.05-33.56.35-9.86 4.88-18.35 12.18-23.57zm16.64-31.25c-9.53 0-18.53-3.99-24.1-10.53a53.13 53.13 0 0 1 26.6-7.42c4.5 0 10.65.4 15.26 3.38.27.17.6.2.9.09 1.38-.54 2.86-.83 4.2-.83a8.03 8.03 0 0 1 6.73 3.26c1.6 2.14 2.55 5.33 2.55 9.44 0 3.13-.62 6.33-1.23 9.53l-.1.52-.25 1.28v.01l-.18.97c-3.29-2.99-5.75-7.76-7.38-14.7a1 1 0 1 0-1.95.45c1.82 7.77 4.74 13.26 8.97 16.56a1 1 0 0 0 .86.91c2.9.42 5.18 2.18 5.18 4.87 0 1.33-.5 2.41-1.42 3.26-.96.87-2.43 1.53-4.43 1.87a1 1 0 0 0-.83.98v.58c0 2.95-.53 5.85-1.5 8.44a18.49 18.49 0 0 0-4.18-3.55c-4.88-2.76-10.15-4.3-14.39-4.3-6.23 0-11.5.31-16.96 1.86-2.64.75-5.09 1.84-7.32 3.2a32.01 32.01 0 0 1-2.56-6.73 1 1 0 0 0-1.47-.62c-.92.53-1.6.83-2.13.83-1.72 0-3.24-1.1-3.24-3.05 0-2.45 1.4-4.75 4.35-6.62a1 1 0 0 0 .43-1.1l-.09-.36a20.8 20.8 0 0 1 5.34-11.62 1 1 0 1 0-1.47-1.36 22.63 22.63 0 0 0-4.83 8.19c-.43-2.8-.65-5.6-.65-8.37 0-.7-.03-1.36-.05-2-.03-.84-.06-1.65-.03-2.48a34.88 34.88 0 0 0 21.37 7.16c5.77 0 10.1-1 13.76-2.95 3.64-1.94 6.54-4.81 9.5-8.42a1 1 0 1 0-1.56-1.27c-2.89 3.53-5.58 6.16-8.89 7.93-3.3 1.76-7.28 2.7-12.81 2.7zm2.02 109v.04c0 1.63.03 3.73.7 5.4a4.3 4.3 0 0 0 1.42 1.95c.63.46 1.51.78 2.8.78 1.08 0 1.86-.2 2.42-.5.56-.29.97-.7 1.27-1.24.64-1.12.83-2.74.83-4.66 0-1.58-.16-3.13-.39-4.67a51.06 51.06 0 0 1-7.8 2.55l-1.25.35zm10.25-5.77a1 1 0 0 0-1.52.82c-2.46 1.18-5.3 1.95-8 2.67-.97.26-1.88.52-2.73.78a1 1 0 0 0-.7.84 19.84 19.84 0 0 1-5.87 12.03c-2.34-.18-4.2-1.78-5.56-4.06a16.8 16.8 0 0 1-2.24-7.48l.54-.3a14.02 14.02 0 0 0 4.41-4.32 1 1 0 0 0 .04-1.1 21.53 21.53 0 0 1-3.07-10.74c0-2.2.4-4.25 1.2-6.07a32.96 32.96 0 0 0 14.22 4.34l-.3.21a1 1 0 1 0 1.17 1.63c.98-.7 1.88-1.01 2.87-1.25l.87-.19a20.8 20.8 0 0 0 2.58-.66c.14-.04.26-.12.36-.21a32.8 32.8 0 0 0 5.47-1.51c.44 1.09.77 2.22.98 3.37-3.94.27-7.58.99-10.86 2.24a1 1 0 1 0 .71 1.87 35.84 35.84 0 0 1 10.38-2.12l.02.73a9.3 9.3 0 0 1-1.39 5.14 1 1 0 0 0-.95-.83h-.39c-2.62 0-5.3.06-7.87 1.22l-.03.02a9.61 9.61 0 0 0-.41.2c-.5.26-.67.82-.42 1.27.13.32.51.51.83.51.13 0 .32 0 .45-.06l.03-.02.3-.14c2.23-1.01 4.62-1.06 7.12-1.07h.51a11.4 11.4 0 0 1-2.75 2.24zm-32.89 6.87c1.64 0 3.05-.17 4.31-.52.2 2.36 1.02 5.3 2.48 7.75 1.23 2.06 2.98 3.9 5.3 4.67a18.43 18.43 0 0 1-10.87 3.35c-7.23 0-14.85-4.64-20.7-11.7-5.84-7.04-9.77-16.31-9.77-25.27 0-14.4 10.58-25.48 21.04-31.28a34.43 34.43 0 0 0 15.88 28.15c-.99 2.17-1.48 4.57-1.48 7.12a23.5 23.5 0 0 0 3.02 11.2 11.3 11.3 0 0 1-3.4 3.23c-1.43.83-3.24 1.3-5.81 1.3-4.38 0-7.29-2.02-9.15-4.93-1.89-2.96-2.7-6.87-2.7-10.54 0-2.83.55-5.45 1.65-7.9a1 1 0 0 0-1.82-.81 21.03 21.03 0 0 0-1.83 8.7c0 3.93.86 8.25 3.02 11.63a12.24 12.24 0 0 0 10.83 5.85zm37.19-23.81a1 1 0 0 0-.8.32 30.39 30.39 0 0 1-11.02 2.09c-15.24 0-31.6-13.1-31.6-32.62 0-13.2 7.82-23.82 19.75-27.23 5.2-1.47 10.24-1.79 16.41-1.79 3.81 0 8.74 1.41 13.4 4.05l.02.01c2.09 1.17 5.6 4.76 8.63 9.9 3 5.08 5.3 11.34 5.3 17.63 0 3.09-.59 6.05-1.64 8.7-3.71 8.89-10.46 15.58-18.45 18.94z" clip-rule="evenodd"/>
  <path fill="#181B2B" d="M139.52 56.17a23.27 23.27 0 0 1 11.74-10.43c4.94-1.9 10.13-1.52 13.97 3a1 1 0 0 0 1.06.3 15.88 15.88 0 0 1 10.4.25 8.7 8.7 0 0 1 5.69 7.76c.13 1.73-.01 3.28-.46 4.73a1 1 0 0 0 .29 1.04c1.01.9 1.6 2.06 1.68 3.2l.04.45a1 1 0 0 0 .53.81c1.63.85 2.91 2.24 3.82 3.74a9.92 9.92 0 0 1 1.46 4.03c.14 1.8-.58 3.69-1.87 5.64a36 36 0 0 1-4.87 5.6 1 1 0 0 0 1.4 1.43 37.87 37.87 0 0 0 5.14-5.93c1.4-2.12 2.38-4.46 2.2-6.9-.11-1.39-.72-3.2-1.75-4.91a12.24 12.24 0 0 0-4.11-4.2 6.76 6.76 0 0 0-1.88-4c.4-1.56.5-3.17.37-4.88a10.7 10.7 0 0 0-6.92-9.46 17.78 17.78 0 0 0-11.13-.49c-4.5-4.87-10.46-5.12-15.77-3.08a25.46 25.46 0 0 0-12.36 10.55c-5.02-2-10.83.3-14.29 4.26a12.57 12.57 0 0 0-3.22 7.7c-.1 2.58.7 5.28 2.67 7.82-2.91 1.75-6.4 4.74-6.02 9.6.2 2.48 1.5 5.09 3.4 7.14a12.5 12.5 0 0 0 6.35 3.83 12.07 12.07 0 0 0 5.86 11.67 16.73 16.73 0 0 0 9.79 2.38c6.15-.48 9.7-4.37 11.97-7.9a14.07 14.07 0 0 0 9.6 2.61c5.43-.42 10.27-3.47 12.57-7.84 1.03.34 2.1.44 3.27.35 3.83-.3 7.36-2.9 8.28-6.36a1 1 0 1 0-1.93-.52c-.67 2.52-3.37 4.65-6.5 4.89a6.02 6.02 0 0 1-3.19-.54 1 1 0 0 0-1.35.5c-1.75 4.08-6.17 7.13-11.3 7.53-3.44.26-6.49-.67-9.07-2.86a1 1 0 0 0-1.5.25c-2.15 3.6-5.3 7.45-11 7.9-2.65.2-5.92-.44-8.58-2.1a10.07 10.07 0 0 1-4.94-8.04c-.07-.82-.01-1.73.11-2.6a1 1 0 0 0-.87-1.14 10.13 10.13 0 0 1-6.1-3.36c-1.67-1.81-2.73-4.02-2.88-5.94-.31-4.12 3.02-6.67 6.05-8.28a1 1 0 0 0 .27-1.56c-2.24-2.47-3.06-5.01-2.97-7.36.1-2.36 1.13-4.62 2.74-6.46 3.26-3.74 8.62-5.5 12.76-3.38a1 1 0 0 0 1.35-.44zM183.86 100.19c-1.72 0-3.28.92-4 2.29a1 1 0 1 1-1.77-.92 6.49 6.49 0 0 1 5.77-3.37c1.41 0 2.9.44 4.06 1.33a5 5 0 0 1 2.01 4.04c0 .83-.02 1.6-.06 2.31.25-.02.5-.02.73-.02 1.87 0 3.24.66 4.08 1.97.77 1.2.97 2.82.97 4.5a1 1 0 0 1-2 0c0-1.6-.2-2.72-.66-3.43-.39-.6-1.04-1.04-2.39-1.04a6.7 6.7 0 0 0-1.55.16 1 1 0 0 1-1.24-1.03c.06-1.03.12-2.16.12-3.42a3 3 0 0 0-1.23-2.45 4.76 4.76 0 0 0-2.84-.92zM160.96 105.1a1 1 0 0 1 .75 1.2 13.6 13.6 0 0 0-.36 3.18c0 2.17 1.23 4.58 3 6.48.87.94 1.83 1.73 2.78 2.27.96.54 1.84.8 2.53.8.91 0 1.61-.39 2.2-1.02a8.48 8.48 0 0 0 1.44-2.42 1 1 0 0 1 1.58-.36c.54.47 1.08 1 1.52 1.45v.01l.02.02c.78.81 1.48 1.52 2.18 2.03.7.5 1.3.75 1.92.75.71 0 1.34-.3 1.8-.86a1 1 0 0 1 1.65.16l.02.04c.23.44.4.75.71 1.01.28.23.76.48 1.73.48 1.42 0 2.87-.69 3.85-1.88a1 1 0 0 1 1.55 1.27 7.06 7.06 0 0 1-5.4 2.61 4.5 4.5 0 0 1-3.01-.94c-.22-.19-.4-.39-.56-.58-.68.44-1.48.69-2.34.69-1.19 0-2.21-.5-3.1-1.13a19.12 19.12 0 0 1-2.43-2.26l-.46-.45c-.32.59-.72 1.19-1.2 1.72a4.89 4.89 0 0 1-3.67 1.67 7.31 7.31 0 0 1-3.52-1.08 13.99 13.99 0 0 1-3.26-2.64c-1.96-2.11-3.53-4.98-3.53-7.84 0-1.3.14-2.46.41-3.64a1 1 0 0 1 1.2-.74z"/>
  <path fill="#181B2B" d="M172.58 57.28c.28.47.14 1.1-.33 1.39a7 7 0 0 0-2.2 1.87c-.15.24-.21.44-.22.62-.01.19.02.42.16.73.04.09.07.1.1.12.03.02.13.05.33.06.4.03.88-.05 1.55-.16l.27-.05c1.43-.23 3.65-.56 5.21 1.15.08.08.14.17.18.27.44 1 .55 1.99.32 2.9-.24.9-.8 1.62-1.5 2.13a6.3 6.3 0 0 1-5.3.72 1.01 1.01 0 0 1 .56-1.94c1.44.41 2.8.16 3.6-.41.38-.27.61-.61.71-.99a2.3 2.3 0 0 0-.15-1.42c-.77-.72-1.85-.66-3.34-.42l-.27.04c-.63.1-1.35.22-1.97.2-.38-.03-.8-.1-1.19-.32-.4-.23-.72-.57-.92-1.02a3.33 3.33 0 0 1 .18-3.26 8.83 8.83 0 0 1 2.85-2.52.98.98 0 0 1 1.37.31zM165 62.32c.55 0 1 .44 1 1-.02 2.42.15 5.1.47 8.13.04.36-.12.72-.41.94a1 1 0 0 1-1.01.1c-.54-.26-1.16-.6-1.73-.95a36.2 36.2 0 0 0-2.61-1.44 35.79 35.79 0 0 1-.27 3.04c-.07.58-.12 1.14-.17 1.75l-.12 1.35c-.04.4-.3.73-.69.86a.98.98 0 0 1-1.05-.28 54.79 54.79 0 0 0-5.33-5.47 1 1 0 0 1-.11-1.42 1 1 0 0 1 1.4-.13 44.52 44.52 0 0 1 4 3.96l.1-.86c.13-.95.2-1.9.25-2.94v-.02c.05-.66.3-1.08.58-1.42.06-.08.13-.15.2-.2a1.72 1.72 0 0 1 1.75-.2c1.03.5 2.07 1.07 3.06 1.66-.21-2.32-.32-4.45-.31-6.44 0-.56.45-1.01 1-1.02zM151 71.84a1 1 0 0 1-.46 1.34c-.7.35-1.25.7-1.81 1.04l-.23.14c-.63.39-1.29.78-2.16 1.14l.38 1.22.09-.03.03-.01c1.2-.37 2.29-.77 3.15-1.36a1 1 0 1 1 1.13 1.64 13.16 13.16 0 0 1-3.69 1.63l-.07.02c.1.33.22.67.34 1l.45 1.27v.01l.1.27 1.38-.64.59-.27.17-.09c.29-.15.66-.34 1.07-.46a1 1 0 0 1 1.23.7 1 1 0 0 1-.7 1.23c-.2.06-.36.14-.62.27l-.28.14-.02.01-.57.27c-.8.38-1.62.76-2.48 1.1a1 1 0 0 1-1.29-.57c-.17-.43-.32-.87-.46-1.28v-.01l-.45-1.23-.01-.04-.37-1.08c-.46-1.35-.9-2.67-1.27-4.04a1 1 0 0 1 .6-1.2l.76-.3a12.82 12.82 0 0 0 2.15-1.15c.56-.35 1.19-.73 1.98-1.13a1 1 0 0 1 1.34.45zM139.86 75.78a.98.98 0 0 1 1.2.74c.72 3.1 1.1 6.55 1.11 9.6 0 .34-.17.66-.44.85a1 1 0 0 1-.94.1c-1.31-.54-2.39-1.6-3.34-2.53l-.18-.17c-1.03-1.01-2-1.91-3.19-2.44.03 1.58.34 3.03.72 4.56l.25.97c.32 1.23.66 2.54.89 3.96.08.54-.28 1.06-.83 1.16a.98.98 0 0 1-1.14-.81c-.21-1.32-.52-2.51-.84-3.73l-.26-1.04c-.4-1.56-.74-3.19-.78-5a2.18 2.18 0 0 1 .79-1.72c.6-.46 1.32-.5 1.9-.24 1.63.68 2.86 1.87 3.9 2.88l.04.05c.52.5.97.94 1.4 1.31-.11-2.4-.46-4.94-1-7.28-.13-.54.2-1.08.74-1.22z"/>
  <path fill="#8AFFCE" d="M93.26 158.3c-.14-.29-.3-.51-.52-.75-.29-.24-.9-.47-1.3-.41a1.61 1.61 0 0 0-1.92.2c-.3.27-.43.58-.48.9-.08.5-.04 1.03.28 1.41.16.22.4.4.62.56.29.25.58.43.95.56.44.13.83.14 1.19-.06.2-.1.44-.32.54-.5.65-.41.98-1.2.64-1.91z"/>
  <path fill="#E7EAF3" d="M114.64 145.53c-.08-1.84-2.7-1.76-3.1-.13-.73 3.14-1.95 6.13-5.5 6.7-3.49.59-5.44-1.76-6.92-4.56-.14-.28-.53-.29-.66.08-1.12 4.32 3.68 7.48 7.48 7.4 4.9-.14 8.93-4.68 8.7-9.49z"/>
  <path fill="#E7EAF3" d="M118.78 137.23c-.33-.32-.98.03-.85.44.66 2.99 1.74 6.24 2.13 9.37-.31.27-.57.62-.64 1.07-.98 5.77-3.45 11.16-9.1 13.73-5.01 2.28-12.01 1.68-15.46-2.95-.32-.44-1.14-.2-1.05.41.14.74.36 1.37.64 2-.73.47-1.4 1-2.15 1.53a1.67 1.67 0 0 0-2.54-1.54c-2.52 1.4-4.76 3.5-6.91 5.42-1.54 1.38-4.02 2.98-4.57 5.04-.03.19.2.42.4.4 2.18-.23 4.23-2.36 6-3.56 1.25-.83 2.55-1.6 3.8-2.42-.93.88-1.85 1.7-2.77 2.53-1.3 1.09-4.88 3.42-4.3 5.34.13.41.63.56 1.04.44 2.7-.92 4.95-3.08 7.18-4.72 1.65-1.3 3.48-2.48 5.14-3.83 7.6 3.24 18.73.62 24.61-4.9 6.68-6.38 5.58-17.53-.6-23.8z"/>
  <path fill="#E7EAF3" d="M103.27 159.2a12.6 12.6 0 0 1-7.28-4.3 11.68 11.68 0 0 1-2.42-9.54 11.67 11.67 0 0 1 12.23-9.55c.45.02.96.1 1.4.18 8.11 1.37 10.8 7.83 9.87 13.28-1.15 6.8-7.08 11.07-13.8 9.94zm3.61-21.31c-.38-.06-.82-.14-1.28-.15a9.67 9.67 0 0 0-10.2 7.93c-.68 4 1.42 10.49 8.13 11.62 5.64.96 10.61-2.64 11.58-8.35 1.16-6.46-3.48-10.25-8.23-11.05z"/>
  <path fill="#181B2B" fill-rule="evenodd" d="M106.97 131.34a16.05 16.05 0 0 0-16.88 13.13 16.5 16.5 0 0 0 1.16 9.63c-3 2.62-6.18 5.1-9.27 7.51l-.26.2c-2.1 1.61-4.22 3.29-6.34 5.02l-.02.02a2 2 0 0 0-.3 2.72c.43.53.86 1.01 1.3 1.5l.27.3v.01a27.9 27.9 0 0 1 2.39 2.86c.2.2.62.54 1.17.63.62.11 1.2-.07 1.66-.5 3.76-3.31 7.61-6.5 11.42-9.63l.4-.33 2.13-1.77c.55-.45 1.1-.9 1.65-1.37a16.08 16.08 0 0 0 6 2.37c9.32 1.58 17.55-4.34 19.09-13.8 1.26-7.5-2.44-16.4-13.59-18.3a20.5 20.5 0 0 0-1.98-.2zm-.14 2a14.05 14.05 0 0 0-14.77 11.47 14.54 14.54 0 0 0 11.73 16.86c8.2 1.39 15.41-3.77 16.77-12.16.57-3.33.02-6.92-1.85-9.85-1.83-2.88-5.03-5.29-10.09-6.14-.52-.1-1.14-.14-1.79-.19zM90.9 157.03l1.3-1.12a16.8 16.8 0 0 0 3.58 4.14l-1.16.96a1 1 0 0 0-.44-.54 9.16 9.16 0 0 1-2.2-2.15v-.01c-.35-.42-.71-.87-1.08-1.28zm-1.54 1.28c-2.05 1.68-4.13 3.3-6.14 4.86l-.3.23c-2.07 1.6-4.16 3.25-6.27 4.97.38.46.76.88 1.18 1.36l.28.31a30.36 30.36 0 0 1 2.4 2.85c3.78-3.35 7.66-6.55 11.47-9.69l.4-.33.8-.67a10.7 10.7 0 0 1-2.69-2.54l-.05-.07c-.38-.46-.73-.9-1.08-1.28zM77.4 170.69l-.02.02.06-.06-.04.04zm0 0l-.02.02.03-.03h-.01z" clip-rule="evenodd"/>
  <path fill="#8AFFCE" d="M29.74 140.62c-.13-.9-.26-1.86-.45-2.76-.26-1.8-2.9-1.74-3.6-.39-.64-1.03-2.31-1.03-3.08-.06-.7-.26-1.54-.07-2.06.77a1.83 1.83 0 0 0-2.18.58c-.06.06-.06.06-.06.13-.39-.2-.9-.13-1.35.06-.32-.32-.84-.26-1.03.26-.26.83-.45 1.6-.64 2.44-.2.58-.39 1.16-.52 1.74-.57 1.55 1.93 2.25 2.44.64 0-.06.07-.13.07-.19.45.45 1.22.64 1.86.39.84.58 2.25.25 2.76-.9 0-.07 0-.07.07-.13.7.77 1.86.9 2.63.26.7.7 1.8.9 2.7.06l.58-.58c1.02.06 2.05-1.03 1.86-2.32z"/>
  <path fill="#E7EAF3" d="M41.94 128.27v-2.51c0-1.42-1.41-2.19-2.57-1.93a14.1 14.1 0 0 0-1.99-3.09c-.51-.64-1.6.06-1.35.77a61.3 61.3 0 0 1 1.55 5.86 2.34 2.34 0 0 0-.39 2l.2.76c-.4 4.77-.4 9.72-3.28 13.39-.45-2.7-1.42-5.4-2.12-8.04a1.75 1.75 0 0 0-1.74-1.3c1.74-3.98 2.25-9.06-1.99-11.64-.64-.39-1.22.32-1.03.9-.19 0-.32 0-.57.07a46.1 46.1 0 0 0-12.79 5.53c-.51.32-.19 1.29.45 1.03 4.37-1.54 8.55-2.96 13.04-4.05.52-.13.77-.45.9-.84 1.1 2.77-.51 5.92-1.73 8.5-.77 1.54.7 2.95 1.99 2.7v.06c.51 1.67 1.1 3.28 1.54 4.96.2.7.9 2.12 1.03 3.21-2.06.39-4.37.32-6.43.65-2.7.38-5.33.83-7.9 1.67-.83.26-.7 1.6.2 1.6 3.08-.12 6.1-.5 9.18-.63h1.8c-6.1 2.63-12.91 2.57-18.82-.97-.2-.13-.32-.13-.51-.13a22.04 22.04 0 0 1-4.37-7.14c-.26-.65-1.29-.58-1.29.2.45 12.54 13.36 20.39 25 17.24a20.9 20.9 0 0 0 13.42-11c2.5-5.28 3.4-12.49.57-17.83z"/>
  <path fill="#181B2B" fill-rule="evenodd" d="M18.63 119.36c.06-.02.13-.04.19-.04.32-.06.64-.13 1.03-.13 6.42 0 9.31 4.25 9.31 8.24a9.37 9.37 0 0 1-2.67 6.8 17.4 17.4 0 0 1 4.34 11.35c0 .26-.13.51-.26.7-.19.2-.45.26-.7.26l-1.05-.03c-1.39-.05-2.66-.1-3.9-.1a75.28 75.28 0 0 0-10.32.68l-.21.03c-.07 0-.13.07-.13.07-.45 0-.84-.32-.96-.71a10.5 10.5 0 0 1-.23-1c-.16-.86-.22-1.73-.22-2.6 0-2.9.9-5.5 2.59-7.35-2.45-1.38-4.65-3.85-4.65-7.58 0-4.12 3.34-7.92 7.64-8.56.07 0 .13-.02.2-.03zm1.47 17.53c1.69 0 3.41-.5 4.9-1.45a14.94 14.94 0 0 1 3.6 7.16 17.12 17.12 0 0 1 .3 2.01h-.13a62.5 62.5 0 0 0-1.88-.05l-1.97-.01c-3.63 0-6.89.19-9.89.57h-.06a17.1 17.1 0 0 1-.16-1.17 13.58 13.58 0 0 1-.04-1.07 9 9 0 0 1 2.36-6.35l.02-.03c.05-.04.09-.1.12-.15a8.9 8.9 0 0 0 2.83.54zm-7.16-10.25a7.11 7.11 0 0 1 6.27-5.36c.33-.06.47-.09.64-.09.97 0 1.83.12 2.58.31-3.5 1.07-6.69 2.33-9.49 5.14zm.06 2.97c3.23-4.18 7.04-5.36 12.06-6.79a6.02 6.02 0 0 1 2.1 4.61c0 4.88-3.66 7.46-7.06 7.46a8.52 8.52 0 0 1-4.63-1.73 6.45 6.45 0 0 1-2.47-3.55z" clip-rule="evenodd"/>
  <path fill="#181B2B" fill-rule="evenodd" d="M0 134.45c0-9.2 5.97-17.5 14.45-20.14a31.3 31.3 0 0 1 9.06-1.48c11.11 0 18.3 8.04 18.3 20.4 0 12.86-8.86 21.8-21.58 21.8C7.58 155.04 0 144.62 0 134.46zm20.23 18.59C8.88 153.04 2 143.72 2 134.44c0-8.36 5.44-15.86 13.04-18.22 3-.92 5.88-1.4 8.47-1.4 5.04 0 9.06 1.82 11.83 4.9 2.79 3.12 4.47 7.7 4.47 13.5 0 5.97-2.04 10.9-5.44 14.33-3.4 3.43-8.26 5.49-14.14 5.49z" clip-rule="evenodd"/>
  <path fill="#181B2B" d="M13.42 83.84a1 1 0 1 0-2 0c0 1.34.06 2.68.16 4.02h-3.6a1 1 0 1 0 0 2h3.76c.13 1.46.3 2.91.46 4.32a1 1 0 1 0 1.99-.23 200 200 0 0 1-.44-4.09h3.22a1 1 0 1 0 0-2h-3.39a56.4 56.4 0 0 1-.16-4.02z"/>
  <path fill="#181B2B" stroke="#181B2B" stroke-linecap="round" stroke-linejoin="round" stroke-width="2" d="M87.02 38.94a1 1 0 0 0 1-1.09l.02.2a1 1 0 0 0 1 .89h.28a1 1 0 0 0-1 1.16 107.73 107.73 0 0 0-.04-.32 1 1 0 0 0-.99-.84h-.27z"/>
  <path fill="#181B2B" d="M135.76 173.73a1 1 0 0 0-2 0c0 1 .07 2 .18 3h-2.17a1 1 0 0 0 0 2h2.44c.17 1.08.37 2.14.57 3.18a1 1 0 1 0 1.96-.38c-.18-.94-.35-1.87-.5-2.8h2.51a1 1 0 0 0 0-2h-2.8c-.12-1.01-.19-2.01-.19-3zM278.5 88.86a1 1 0 1 0-2 0c0 1 .07 2 .18 3h-2.17a1 1 0 1 0 0 2h2.44c.18 1.08.38 2.14.57 3.18a1 1 0 0 0 1.97-.38c-.18-.93-.36-1.87-.51-2.8h2.52a1 1 0 1 0 0-2h-2.8c-.12-1.01-.2-2-.2-3zM339.4 104.84a1 1 0 1 0-2 0c0 1 .07 2 .18 3h-2.18a1 1 0 0 0 0 2h2.45c.17 1.07.37 2.14.56 3.17a1 1 0 0 0 1.97-.37c-.18-.94-.36-1.88-.5-2.8h2.51a1 1 0 1 0 0-2h-2.8c-.12-1.02-.2-2.01-.2-3zM317.44 147.77a1 1 0 1 0-2 0c0 1.66.1 3.33.25 5h-4.24a1 1 0 1 0 0 2h4.45c.17 1.39.36 2.77.55 4.12a1 1 0 0 0 1.98-.27c-.18-1.28-.36-2.57-.51-3.86h4.5a1 1 0 1 0 0-2h-4.72a52.14 52.14 0 0 1-.26-4.99z"/>
  <path fill="#181B2B" fill-rule="evenodd" d="M93.64 67.69a2.33 2.33 0 0 0-2.92 1.6 2.33 2.33 0 0 0 1.58 2.91l.23.05a2.35 2.35 0 0 0 1.1-4.56zm-4.85 1.08a4.33 4.33 0 0 1 5.38-3.01 4.35 4.35 0 1 1-2.03 8.45l-.3-.06h-.04a4.33 4.33 0 0 1-3-5.38zm16.46 6.89a2.51 2.51 0 0 0 1.13 3.22l.07.04.05.04a1 1 0 0 0 .2 0l.16-.03.16.03a2.3 2.3 0 0 0 2.52-1.17c.57-1.36.09-2.71-1.04-3.2a2.51 2.51 0 0 0-3.25 1.07zm-1.78-.91a4.51 4.51 0 0 1 5.82-2c2.38 1.03 3 3.71 2.07 5.86l-.01.02-.01.03a4.29 4.29 0 0 1-4.56 2.3c-.49.03-.97-.04-1.42-.35a4.51 4.51 0 0 1-1.92-5.79l.01-.04.02-.03zm-24.16-4.29c-.45-1.3-1.76-1.98-2.93-1.58-1.3.45-1.98 1.75-1.59 2.91.35.9 1.01 1.49 1.8 1.64.35.07.73.06 1.17-.05 1.28-.46 1.95-1.76 1.55-2.92zm-3.58-3.47c2.35-.81 4.71.61 5.47 2.82a4.34 4.34 0 0 1-2.82 5.47l-.03.01-.04.01c-.7.2-1.41.23-2.1.1a4.49 4.49 0 0 1-3.3-2.92v-.02a4.34 4.34 0 0 1 2.82-5.47zm-14.4 9.35a2.35 2.35 0 0 0-.53 3.24c.36.55.86.83 1.41.94.5.1 1.23-.03 1.82-.43 1.05-.7 1.3-2.03.53-3.2a2.36 2.36 0 0 0-3.23-.55zm-1.13-1.65a4.36 4.36 0 0 1 5.97 1.02l.02.02.02.02c1.31 1.97 1.03 4.6-1.07 6a4.6 4.6 0 0 1-3.32.73 4.35 4.35 0 0 1-1.66-7.77h.02l.02-.02zm-7.33 13.17a2.26 2.26 0 0 0-3.18.69 2.26 2.26 0 0 0 .66 3.17c.1.06.22.1.4.17l.03.01c.14.05.32.12.52.22a2.3 2.3 0 0 0 2.27-1.08c.7-1.12.4-2.49-.7-3.18zM48 87.48a4.26 4.26 0 0 1 5.94-1.3 4.26 4.26 0 0 1 1.31 5.94 4.3 4.3 0 0 1-4.48 1.94l-.16-.03-.14-.08c-.1-.06-.22-.1-.42-.19h-.02c-.18-.07-.43-.17-.69-.31l-.02-.01-.01-.01A4.26 4.26 0 0 1 48 87.48zm.95 17.48c.08-1.4-.87-2.5-2.15-2.56-1.4-.08-2.5.87-2.57 2.15-.06 1.29.7 2.27 1.9 2.5l.32.07c1.37.05 2.43-.9 2.5-2.16zm-2.04-4.56c2.5.14 4.17 2.3 4.04 4.67a4.33 4.33 0 0 1-4.68 4.05h-.07l-.46-.1a4.33 4.33 0 0 1-3.5-4.57 4.33 4.33 0 0 1 4.67-4.05z" clip-rule="evenodd"/>
  <path fill="#181B2B" d="M118.8 123.9a1.56 1.56 0 0 1 .12-2.25 1.55 1.55 0 0 1 2.25.13c.58.64.58 1.67-.13 2.25-.32.25-.7.45-1.1.45a2.2 2.2 0 0 1-1.15-.58zm6.16-4.64c-.39-.83 0-1.73.83-2.12.84-.39 1.74 0 2.12.84.39.83 0 1.73-.83 2.12-.2.07-.45.13-.64.13-.65 0-1.22-.39-1.48-.97zm23.5.26a1.6 1.6 0 0 1-.96-2.06 1.68 1.68 0 0 1 2.06-1.03 1.6 1.6 0 0 1 .96 2.06 1.6 1.6 0 0 1-1.54 1.1c-.2 0-.32 0-.51-.07zm-16.24-2.83a1.6 1.6 0 0 1 1.34-1.8 1.6 1.6 0 0 1 1.8 1.35 1.6 1.6 0 0 1-1.35 1.8h-.25a1.44 1.44 0 0 1-1.54-1.35zm9.12 1.22c-.9-.06-1.54-.9-1.42-1.73.07-.9.9-1.55 1.74-1.42.9.06 1.54.9 1.41 1.74a1.61 1.61 0 0 1-1.6 1.48c-.07-.07-.13-.07-.13-.07z"/>
  <path fill="#E7EAF3" d="M33.23 51.88l-1.16-3.28c-.32-.9-1.92-.83-1.8.26.07 1.16.13 2.25.26 3.41.07.84.7 1.48 1.6 1.35.71-.13 1.36-.96 1.1-1.74zM18.07 55.65c-.32.39-.64.84-.9 1.3-2.63.63-5 .63-7.9.25-.64-.07-1.35.7-.7 1.22a10.7 10.7 0 0 0 5.13 2.12c-.45.07-.96.07-1.54 0-1.03-.06-3.85-1.41-4.62-.38l-.07.13c-.19.25-.13.64 0 .96 1.48 2.58 4.7 3.67 7.58 3.41 3.34-.25 5.08-3.67 6.68-6.24 1.29-2.19-2.05-4.89-3.66-2.77zM38.18 54.78c-1.74-1.87-4.5.51-3.4 2.64.5.96-1.1 1.16-2.58 1.22 0-.06-.06-.2-.13-.26-.38-.64-1.28-.9-1.92-.51l-2.32 1.54c-.25.2-.45.39-.51.58h-.26c-.77 0-1.41.32-2.18.32-.7 0-1.41-.12-2.06-.45-1.34-.58-2.44 1.16-1.15 2 1.28.9 3.47 1.74 5.14 1.41-.07.13-.2.2-.26.33-1.16.9-4.3-.45-5.78-.52-.77-.06-.9.97-.39 1.35 2 1.48 5.91 4.57 8.55 3.48a4.03 4.03 0 0 0 1.92-1.8c.26-.52.45-1.03.52-1.61 0-.39.06-.84.06-1.23-.7-.32-.7-.38 0-.25 1.1-.45 2.83.13 4.05-.26a5.44 5.44 0 0 0 2.95-1.93c1.6-1.87 1.35-4.25-.25-6.05zM29.18 39.34c-.96.96-2.18 1.6-3.02 2.63-1.02 1.23-.9 2.7.39 3.6 1.48 1.1 3.4-1.34 2-2.57.31-1.03 1.08-2.06 1.66-2.9.39-.57-.51-1.28-1.03-.76z"/>
  <path fill="#181B2B" fill-rule="evenodd" d="M28.52 63.84a29.85 29.85 0 0 0 .17-1.41c.12-.93.25-1.9.5-2.57.31-.9.83-1.15 1.66-.83.13.08.32.17.5.25l.27.13c.32.2.65.39 1.03.52 2.12.77 4.05-.07 4.88-2.25.97-2.64-.13-5.35-1.8-5.99-.83-.32-1.67-.06-2.3.2-.06 0-.1.02-.15.04-.39.1-.72.2-.95.15-1.22-.45-1.48-1.55-.83-3.28.14-.45.33-.85.52-1.27l.18-.4.2-.46a.96.96 0 0 0 0-.83 1 1 0 0 0-.71-.52c-1.1-.2-2-.45-2.76-.7a6.4 6.4 0 0 1-2.06-1.1c-.51-.39-.7-.7-.64-.84.12-.43.66-.87 1.28-1.36l.07-.05.07-.06c.89-.77 2-1.72 2.56-3.16a3.86 3.86 0 0 0-.39-3.73 5.1 5.1 0 0 0-2.5-1.93 8.02 8.02 0 0 0-4.3-.26c-1.8.39-3.09 1.29-3.54 2.57-.55 1.49.14 2.8.7 3.87l.07.12c.33.58.71 1.29.58 1.61-.32.84-3.14.39-8.35-1.48a1.07 1.07 0 0 0-.77.07c-.2.12-.38.38-.45.64-.51 2.12-1.09 4.31-1.86 6.95-.06.32-.06.58.13.84.13.19.45.38.7.38a7.66 7.66 0 0 0 3.09-.38c.9-.26 1.67-.45 2.37-.2.9.39 1.61 1.87 1.1 3.16-.2.57-.97 1.15-1.87 1.48-1.09.38-2.37.38-3.4 0a4.72 4.72 0 0 1-1.8-1.23c-.2-.25-.58-.32-.9-.25-.32.06-.58.32-.7.64l-.52 1.67-.77 2.67-.77 2.67c-.13.26-.06.52.06.78.13.19.32.38.58.45l2.25.57c2.12.52 4.3 1.1 6.42 1.68.32.13.58.06.84-.13.25-.2.38-.45.38-.77.07-.71.13-1.42.39-2 .77-2 2.57-2.5 3.21-2.25.2.06.64.32.9 1.03.2.51.32 1.42-.2 2.7-.14.44-.32.85-.52 1.27l-.18.4v.07c-.13.2-.13.51 0 .77s.32.45.58.52c1.41.45 2.7.9 3.98 1.35.7.32 1.54.64 1.73.7.26.13.45.2.71.26.07.07.2.07.26.07.2 0 .32-.07.51-.26.26-.13.39-.39.45-.64a11.56 11.56 0 0 0 .11-.66zm-1.9-.85l-.07-.03a23.95 23.95 0 0 1-1.14-.48l-2.94-1.01c.1-.25.21-.52.3-.8.67-1.7.56-3.08.2-4.07a3.6 3.6 0 0 0-2.09-2.22 3.3 3.3 0 0 0-1.67-.13c-.51.08-1.04.26-1.54.54a5.73 5.73 0 0 0-2.54 2.96c-.2.46-.32.96-.4 1.41-1.75-.47-3.54-.94-5.3-1.37l-1.16-.3.48-1.67.77-2.66.05-.16c.37.24.78.46 1.26.63 1.49.56 3.25.54 4.76.01a6.35 6.35 0 0 0 1.76-.95 3.91 3.91 0 0 0 1.31-1.72 4.63 4.63 0 0 0-.03-3.33 4.18 4.18 0 0 0-2.25-2.4c-1.37-.5-2.73-.1-3.53.13a25.32 25.32 0 0 1-1.13.28c.46-1.64.86-3.12 1.22-4.55 2.12.73 3.87 1.21 5.2 1.45.77.13 1.54.2 2.22.12.55-.06 1.83-.34 2.34-1.64.23-.6.16-1.14.1-1.41a4.1 4.1 0 0 0-.24-.8 11.2 11.2 0 0 0-.57-1.13c-.3-.57-.51-.97-.63-1.38a1.35 1.35 0 0 1 .01-.95c.13-.37.63-.97 2.07-1.28a6.03 6.03 0 0 1 3.18.18 3.13 3.13 0 0 1 1.57 1.2c.35.51.44 1.14.16 1.85v.01c-.37.94-1.1 1.6-2.05 2.4l-.05.05c-.28.22-.64.5-.93.8a3.7 3.7 0 0 0-.98 1.44 2.2 2.2 0 0 0-.02 1.4c.1.33.26.59.39.76.24.34.56.64.9.9a8.46 8.46 0 0 0 2.68 1.44c.52.17 1.1.35 1.76.51-.15.34-.31.72-.44 1.11a5.64 5.64 0 0 0-.34 3.27 3.62 3.62 0 0 0 2.57 2.62c.6.15 1.15.04 1.39-.01l.64-.17.1-.03.2-.07c.27-.1.46-.17.62-.19.14-.02.2 0 .23 0 .1.05.47.3.7 1.02.22.66.26 1.52-.06 2.4-.26.68-.62.99-.91 1.12-.3.14-.76.2-1.41-.04l-.06-.02a3.33 3.33 0 0 1-.63-.33 9.76 9.76 0 0 0-.39-.2l-.08-.04a14.15 14.15 0 0 1-.23-.1v-.01a3.22 3.22 0 0 0-3.01-.15 3.42 3.42 0 0 0-1.64 1.99m4.2-12.9z" clip-rule="evenodd"/>
</svg>
