<svg width="38" height="38" fill="none" xmlns="http://www.w3.org/2000/svg"><circle cx="19" cy="19" r="18.5" fill="#fff" stroke="#E7EAF3"/><path d="M9 18.65c0-.55.14-.97.4-1.24.28-.28.65-.42 1.1-.42.47 0 .84.14 1.11.42.27.27.4.69.4 1.24 0 .57-.13 1-.4 1.27s-.64.41-1.1.41c-.46 0-.83-.14-1.1-.41-.27-.28-.41-.7-.41-1.27zm6.55 5.06a6.58 6.58 0 0 0 3.14.86c.66 0 1.22-.16 1.69-.49.46-.33.69-.86.69-1.59 0-.61-.14-1.12-.42-1.52-.28-.4-.64-.75-1.07-1.07-.44-.31-.9-.6-1.4-.87a7.62 7.62 0 0 1-1.41-.96 4 4 0 0 1-1.5-3.27c0-1.26.35-2.2 1.05-2.84.7-.64 1.67-.96 2.94-.96.82 0 1.54.07 2.14.22.6.15 1.13.35 1.57.6l-.57 1.78a6.31 6.31 0 0 0-2.87-.68c-.72 0-1.25.15-1.58.45-.34.3-.5.75-.5 1.39 0 .49.14.9.42 1.25.28.35.64.66 1.07.95.43.28.9.57 1.4.87a8 8 0 0 1 1.4 1.05c.44.4.8.89 1.08 1.45.28.56.42 1.27.42 2.11 0 .55-.09 1.08-.27 1.57-.18.5-.46.92-.83 1.28-.37.37-.83.66-1.39.88-.55.21-1.2.32-1.94.32a9.2 9.2 0 0 1-2.3-.25 5.86 5.86 0 0 1-1.63-.66l.67-1.87zm10.43-5.06c0-.55.14-.97.41-1.24.27-.28.64-.42 1.1-.42.47 0 .83.14 1.1.42.28.27.41.69.41 1.24 0 .57-.13 1-.4 1.27-.28.27-.64.41-1.1.41-.47 0-.84-.14-1.1-.41-.28-.28-.42-.7-.42-1.27z" fill="#2F354D"/></svg>