<svg xmlns="http://www.w3.org/2000/svg" width="464" height="242" fill="none">
  <path fill="#9FAAC4" d="M96.5 199.64c-.06-.57.24-1.09.68-1.4a1.28 1.28 0 0 1 1.47 0l9.83 6.23c.6.37.89 1.1.79 1.82a1.73 1.73 0 0 1-1.33 1.4l-8.25 1.56a2 2 0 0 1-1.63-.41 2.3 2.3 0 0 1-.83-1.51c-.3-2.6-.54-5.14-.74-7.69zM101.37 81.57a2.87 2.87 0 0 0-1.37 2.5c0 1.7 1.32 3.47 3.29 3.47 1.72 0 3.24-1.5 3.24-3.37A3.07 3.07 0 0 0 103.4 81c-.7 0-1.38.15-2.02.57z"/>
  <path fill="#E7EAF3" d="M1.38 141.57A2.87 2.87 0 0 0 0 144.06c0 1.71 1.33 3.48 3.3 3.48 1.71 0 3.24-1.5 3.24-3.38A3.07 3.07 0 0 0 3.39 141c-.69 0-1.37.15-2.01.57z"/>
  <path fill="#9FAAC4" d="M308.54 204.4c-.6.63-.94 1.5-.94 2.39 0 1.77 1.38 3.06 2.75 3.06.8 0 3.4-.67 3.4-3.32 0-1.5-1.38-2.9-3.25-2.9-.74-.06-1.47.2-1.96.77zM426.16 159.97a1.23 1.23 0 0 1 0-1.3c.25-.41.64-.67 1.08-.67 1.53 0 3.84.1 6.1.15.44 0 .88.26 1.13.73.24.47.24.93.05 1.4a98.96 98.96 0 0 0-2.4 5.2c-.25.56-.75.93-1.34.93a1.5 1.5 0 0 1-1.42-.78c-1.28-2.34-2.41-4.31-3.2-5.66z"/>
  <path fill="#E7EAF3" d="M151.03 44.92a1.24 1.24 0 0 1 0-1.3c.25-.41.64-.67 1.09-.67 1.52 0 3.83.1 6.09.16.44 0 .88.26 1.13.72.25.47.25.94.05 1.4a99.87 99.87 0 0 0-2.4 5.2c-.25.57-.75.93-1.34.93a1.49 1.49 0 0 1-1.42-.78c-1.28-2.33-2.4-4.3-3.2-5.66zM199.05 2.77c0 .18-.06.35-.06.47a3.5 3.5 0 0 0 3.39 3.52c1.49 0 3.44-1.5 3.44-3.47 0-1.85-1.43-3.29-3.27-3.29-1.26 0-2.35.7-3.04 1.8-.17.28-.4.57-.46.97z"/>
  <path fill="#9FAAC4" d="M260.62 23.38c0 .38-.13.75-.13 1 0 4.12 3.5 7.62 7.63 7.62 3.37 0 7.77-3.25 7.77-7.5 0-3.99-3.24-7.11-7.38-7.11-2.85 0-5.3 1.5-6.86 3.87-.39.62-.9 1.25-1.03 2.12z"/>
  <path fill="#E7EAF3" d="M393.77 93.17a2.84 2.84 0 0 0-.92-.17c-1.72 0-2.87 1.96-2.87 3.4 0 1.45 1.55 2.78 2.7 2.78 2 0 3.56-1.62 3.56-3.41 0-.35-.06-.64-.23-1.04-.46-.8-1.32-1.16-2.24-1.56zM35.45 76.4a1.75 1.75 0 0 0-1.27-1.34c-.63-.17-1.32 0-1.78.47a240.1 240.1 0 0 1-7.63 7.68 2.6 2.6 0 0 0-.75 2.2c.18.8.7 1.5 1.5 1.79l9.64 3.98c.75.3 1.55.18 2.12-.34a2.2 2.2 0 0 0 .7-2.08l-2.53-12.37zM461.43 114.4a1.74 1.74 0 0 0-1.27-1.34c-.63-.17-1.32 0-1.78.47-2.46 2.6-5.05 5.2-7.63 7.68a2.6 2.6 0 0 0-.75 2.2c.18.8.7 1.5 1.5 1.78l9.64 4c.75.28 1.55.16 2.12-.35a2.2 2.2 0 0 0 .7-2.09l-2.53-12.36zM337.98 104.5c-1.5 7.5 14.53 8.89 14.5 20-.03 12.9-10 12.64-11.5 24.5-1.5 11.85-13.5 21.5-19.5 29s2.5 18.5 9.5 12c3.17-2.95 3-17.5 10-20.5s9.87-24.3 13-25.5c5.73-2.2 7-15.5 11.5-19.5s4-9.5-4-11.5-22-16-23.5-8.5z"/>
  <path fill="#181B2B" fill-rule="evenodd" d="M326.82 104.21a.32.32 0 0 0-.16.16.28.28 0 0 0 0 .21c.03.1.1.17.15.2a1 1 0 0 1-.93 1.76 2.34 2.34 0 0 1-1.03-3.02c.5-1.04 1.8-1.7 2.98-1.09l33.1 16.71c.6.28 1.07.84 1.2 1.53.13.59.06 1.3-.37 1.87-6.14 9.37-11.83 20.56-17.4 31.52l-.41.81c-5.97 11.83-11.69 23.1-17.38 30.86-.18.34-.48.56-.7.69a2.1 2.1 0 0 1-1 .26c-.31 0-.6-.08-.74-.12l-.06-.02a1.07 1.07 0 0 1-.19-.07l-48.7-24.3-.02-.01c-.5-.27-.96-.73-1.14-1.4-.04-.16-.04-.3-.04-.32l.01-.18.05-.34.17-.95a112.15 112.15 0 0 1 1.54-6.6l.05-.13c.01-.03.05-.13.11-.22a1 1 0 0 1 1.74.98 9.76 9.76 0 0 0-.3 1.12 127.08 127.08 0 0 0-1.34 6.11v.1l.08.05 48.6 24.26h.04l.06.02.03.01h.04l.04-.05c5.6-7.6 11.25-18.73 17.26-30.65l.44-.86c5.56-10.94 11.3-22.23 17.5-31.7.02 0 .03-.02.04-.04l.02-.03s.02-.02.02-.06c.01-.04 0-.1 0-.14a.92.92 0 0 1-.03-.13v-.02a.14.14 0 0 0-.06-.04l-.04-.01-33.12-16.72-.02-.01s-.03-.02-.09 0z" clip-rule="evenodd"/>
  <path fill="#E7EAF3" d="M271.99 167.12c-10-7.5 10.5-13 10.5-21s-18.8-2.94-24.17-3.25c-24.57-1.04-47.67 8.3-72.24 6.23-3.44-.52-6.88-2.6-9.83-4.16-14.74-9.34-12.29-36.34 3.44-41.02 14.25-4.67 28.5-4.15 42.76-8.83 5.9-2.07 12.28-.52 18.18-2.07 14.75-4.57 30.23-10.8 42.12-21.81 5.37-9-7.96-23.53-28.16-9-7.15 5.05-32.08 9-41.22 9h-33.68c-21.43 0-33.37 24.44-33.37 47.76 0 9.45 8.43 15.95 8.43 30.13 0 9.7-8.43 11.75-8.43 20.74 0 23.25 10.72 20.1 25.89 20.1 15.97 0 25.76-26.1 31.66-32.59 5.9-6.49 14.2-6.17 16.66-4.62 14.94 7.9 5.59 49.95 16.02 52.92C247 208.62 248 194.62 263 193.12c15-1.5 19-18.5 9-26z"/>
  <path fill="#8AFFCE" d="M329 92.13c-2-20-11.22-39.5-19.37-41-8.14-1.5-12.64 11-13.14 15s.18 25.83 7 28.5c11.5 4.5 11 14.5 8.5 19s-17 20-10 27.5 1.5 20.5 13.93 24.12C342.5 147.63 331 112.13 329 92.13zM204.99 119c1-10.5 6-7 6-18.5s-31.5 2-35.99 8.5c-4.5 6.5-8.91 21.43-5 27 7.01 9.99 3.31 11.14 22.12 11.14 3.15 0 13.37 2.36 18.87-1.64 5.5-4-7-16-6-26.5z"/>
  <path fill="#181B2B" fill-rule="evenodd" d="M295.47 74.47a184.5 184.5 0 0 0-.16 16.72c.18-.04.37-.05.56-.04 4.08.12 8.05 1.83 10.88 4.71 3.7 3.68 5.6 8.5 5.6 13.84 0 8.72-5.29 15.78-13.23 17.4a.97.97 0 0 1-.29 0c1.3 7.4 2.93 14.21 4.78 19.89 1.31 4.07 3.03 8.44 5.08 11.76a16.28 16.28 0 0 0 3.23 3.96 5.2 5.2 0 0 0 3.31 1.4h.35c.77-.09 1.59-.54 2.45-1.58a16.95 16.95 0 0 0 2.56-4.83 1 1 0 0 1 1.87.7 18.88 18.88 0 0 1-2.9 5.41c-1.08 1.31-2.36 2.16-3.84 2.3h-.49c-1.7 0-3.24-.73-4.6-1.86a18.2 18.2 0 0 1-3.64-4.44l-.52-.88c-14.6-8.53-29.86-14.16-56.4-14.16-6.64 0-12.76.97-19.94 2.16l-1.37.23c.87.54 1.78 1.25 2.5 1.87.57.48 1.07.93 1.43 1.26l.15.14a101.5 101.5 0 0 1 3.8-1.09 80.3 80.3 0 0 1 3.45-.86c2.6-.58 5.62-.74 8.07.44.8.38 1.5.94 1.98 1.75.5.8.73 1.77.73 2.91 0 2.31-1.5 4.33-3.32 5.99l-.06.04a.54.54 0 0 0-.16.47v.1c0 .1.11.32.24.4l.03.03a5.6 5.6 0 0 1 2.53 4.6 7.8 7.8 0 0 1-1.76 4.6c-.19.25-.29.57-.25.98.02.29.18.57.46.8a6.06 6.06 0 0 1 2.3 4.58v.02l-.01.03a8.33 8.33 0 0 1-3.05 5.96c-.08.1-.1.16-.1.22s.02.13.11.23c.5.49 1.03 1.2 1.03 2.06 0 3.82-3 6.8-6.33 8.76-3.37 1.99-7.46 3.14-10.35 3.14-2.25 0-4.4-.38-6.03-1.5a6.21 6.21 0 0 1-2.62-4.96c-3.28-.11-5.36-.73-6.62-1.79-1.43-1.2-1.6-2.76-1.6-4.02 0-2.07.84-4.28 2.93-5.83a7.05 7.05 0 0 1-2.68-2.36 7.76 7.76 0 0 1-1.19-4.37c0-3.13 1.83-5.2 4.16-6.56-1.7-.42-3.39-.9-4.9-1.34l-.26-.08c-2.28 13.96-1.26 22.16.83 28.37a60.9 60.9 0 0 0 3.87 8.66l.15.28a67.24 67.24 0 0 1 3.9 8.55 1 1 0 0 1-.75 1.32c-2.17.43-5.06.59-9.24.59-1.53 0-3.06-.03-4.58-.06h-.01c-1.53-.02-3.04-.05-4.55-.05-13.62 0-28.07 4.36-41.1 9.84-.02.01-.05.03-.08.03-2.23 1.42-4.84 1.6-7.3 1.77l-1.23.1a1 1 0 1 1-.16-2l1.25-.1c3.26-.24 5.8-.43 7.75-2.64 1.11-1.26 2.1-3.24 2.8-6.46.69-3.23 1.1-7.62 1.1-13.64 0-1.08-.03-2.25-.06-3.3l-.01-.51a97.9 97.9 0 0 1-.04-2v-2.24c0-1.08 0-2.88-.57-4.39a4.03 4.03 0 0 0-1.2-1.78 3.58 3.58 0 0 0-2.34-.72c-.4 0-1.6.14-3.06.37-1.43.23-2.97.52-4 .8a1 1 0 1 1-.52-1.94c1.13-.3 2.76-.6 4.2-.83 1.43-.23 2.8-.4 3.38-.4a5.24 5.24 0 0 1 4.34 1.9l21.88-3.75c4.05-16.48 8.65-25.14 14.34-29.6-1.53.04-3.1.06-4.73.06-9.38 0-16.52-1.51-21.66-4.72a21.5 21.5 0 0 1-9.9-15.9c-.8-7.06-.14-12.62 1.79-17.04 1.94-4.44 5.13-7.64 9.25-10.02 4.11-2.37 9.15-3.93 14.83-5.12 5.68-1.2 12.07-2.04 18.88-2.93 8.8-1.15 18.78-2.5 29-4.77 27.3-6.16 43.75-19.92 56.4-32.16.16-.46.32-.92.49-1.36 1.86-4.9 4.8-8.56 9.43-8.56 2.3 0 3.64.41 4.68 1.26.49.39.87.85 1.22 1.28l.1.11c.31.4.63.8 1.05 1.21a1 1 0 1 1-1.41 1.42c-.5-.5-.88-.97-1.2-1.36l-.1-.12a6.56 6.56 0 0 0-.92-.99c-.54-.44-1.37-.81-3.42-.81-3.3 0-5.77 2.56-7.56 7.27-1.77 4.66-2.7 11.03-3.1 17.77zm-90.16 75.36c8.03-.37 14.78-1.3 20.86-2.25a1 1 0 0 0 .65.82c.82.3 2.05 1.22 3.16 2.16a39.86 39.86 0 0 1 1.75 1.57l.06.06.05.05.02.02h.01a14.72 14.72 0 0 1 2.14 2.4c.67.98 1.05 1.9 1.05 2.7a5.65 5.65 0 0 1-2.58 4.79c-1.6 1.08-3.83 1.65-6.3 1.65h-.48l-2.58-.01a21.05 21.05 0 0 1-3.04-.21c-.14-.08-.3-.14-.47-.18-1.86-.44-3.71-.97-5.4-1.46l-1.37-.39a1 1 0 0 0-1.26.8c-2.56 14.85-1.56 23.67.72 30.44a62.74 62.74 0 0 0 4 8.94l.12.24a73.71 73.71 0 0 1 3.4 7.22c-1.85.25-4.29.36-7.7.36-1.5 0-3.02-.03-4.55-.06-1.52-.02-3.05-.05-4.58-.05-12.66 0-25.93 3.66-38.05 8.44.8-1.42 1.44-3.22 1.93-5.48.74-3.42 1.14-7.97 1.14-14.06 0-1.1-.02-2.3-.05-3.34l-.01-.53-.04-1.94v-2.28c0-1.05 0-3.17-.7-5.05l-.02-.04L189 181.4a1 1 0 0 0 .8-.75c4.41-18.2 9.33-26.33 15.06-30.05a1 1 0 0 0 .45-.78zm15.55 15.86c-.14.4-.43.76-.85.98-2.23 1.16-3.64 2.75-3.64 5.09 0 1.44.34 2.49.85 3.27a5.18 5.18 0 0 0 2.15 1.79c.32.14.6.38.78.69 1.65-.2 6.32-.89 11.4-1.96 2.85-.6 5.82-1.31 8.44-2.14 2.55-.8 4.7-1.67 6.12-2.6a3.4 3.4 0 0 1 .65-2.2 5.84 5.84 0 0 0 1.37-3.4c0-1.24-.64-2.21-1.68-2.97a2.5 2.5 0 0 1-.57-.54 25.64 25.64 0 0 1-7.47 5.22c-4.19 1.98-9.72 3.24-17.01 2.57a1 1 0 1 1 .18-2c6.96.64 12.13-.56 15.98-2.38a24.79 24.79 0 0 0 8.11-6.37c.05-.05.1-.1.15-.13l.4-.54c1.7-1.56 2.65-3.06 2.65-4.49 0-.86-.18-1.45-.43-1.87a2.6 2.6 0 0 0-1.15-.99c-1.08-.52-2.65-.66-4.54-.66a13 13 0 0 0-2.23.37c-1.02.23-2.22.53-3.36.84l-2.69.76c.43.47.83.98 1.2 1.5a7 7 0 0 1 1.4 3.84v.02a7.65 7.65 0 0 1-3.47 6.41c-2.02 1.37-4.68 2-7.42 2h-.45l-2.65-.01c-.74-.02-1.53-.04-2.22-.1zm75.37-58.92l-.03-.4c-.19-2.31-.56-6.88-.8-12.46a.99.99 0 0 0 .14-.51c0-.1.04-.16.08-.2a.16.16 0 0 1 .13-.05h.05c3.57.1 7.06 1.6 9.53 4.12 3.3 3.28 5.02 7.6 5.02 12.43 0 7.82-4.65 13.92-11.43 15.4-.11-.02-.2 0-.25 0a.21.21 0 0 1-.08-.04.4.4 0 0 1-.12-.22 225.8 225.8 0 0 1-2.24-18.08zm8.6 48.98c-14.3-8.12-28.85-12.98-54.76-12.98-6.83 0-13.1 1-20.27 2.2-4.35.7-8.98 1.46-14.15 2.03-4.92-7.76-6.77-17.9-7.05-27.53-.26-9.17.91-17.76 2.14-23.17l.34-.04c8.8-1.14 18.86-2.5 29.18-4.8 26.1-5.89 42.47-18.62 54.95-30.37a84.6 84.6 0 0 0-1.73 13.25c-.81 13.22.34 27.44.72 32.19l.04.4c1.23 15 3.94 29.83 7.46 40.68a73.18 73.18 0 0 0 3.13 8.14zM192.35 99.16c4.92-1.03 10.39-1.8 16.28-2.58-1.2 5.58-2.28 14-2.03 22.95.28 9.46 2.04 19.63 6.84 27.7a160 160 0 0 1-15.81.78c-9.2 0-15.92-1.5-20.6-4.42a18.95 18.95 0 0 1-5.71-5.5c5.2-1.87 10.77-3.55 17.61-3.1a1 1 0 0 0 .14-1.99c-7.44-.5-13.44 1.4-18.8 3.33a20.25 20.25 0 0 1-2.22-7.16l-.01-.15c.11 0 .23-.03.34-.08a53.1 53.1 0 0 1 17.78-4.22 1 1 0 1 0-.11-2 54.89 54.89 0 0 0-18.2 4.28c-.18-2.57-.14-4.9.1-6.99l.05-.02 1.25-.5h.02c5.94-2.35 9.73-3.49 17.67-3.5a1 1 0 1 0 .12-1.99c-8.15-.48-12.54 1.25-18.5 3.62l-.27.1c.33-1.67.8-3.2 1.4-4.57 1.74-3.98 4.6-6.88 8.42-9.09 3.84-2.21 8.65-3.72 14.24-4.9zm106.18 25.97h0zm-51.66 47.58a30 30 0 0 1-6.28 2.61c-2.7.85-5.74 1.58-8.63 2.2a155.58 155.58 0 0 1-11.9 2.01c-.11.16-.26.3-.45.43a5.17 5.17 0 0 0-2.3 4.36c0 1.09.16 1.88.88 2.49.77.64 2.32 1.23 5.53 1.33 4.33-.3 9.74-1.44 13.55-2.6 3.85-1.18 6.92-2.54 8.49-3.64l.03-.03c.1-.43.32-.8.6-1.1l.02-.01.06-.05a6.36 6.36 0 0 0 2.4-4.56c0-.75-.4-2.12-1.52-2.98l-.03-.02a3.66 3.66 0 0 1-.45-.44zm-.56 11.22a38.41 38.41 0 0 1-8.45 3.52 61.44 61.44 0 0 1-12.34 2.43c.1 1.79.78 2.87 1.77 3.56 1.14.78 2.81 1.15 4.89 1.15 2.47 0 6.22-1.03 9.34-2.86 3.17-1.86 5.34-4.33 5.34-7.04 0-.06-.06-.28-.43-.63l-.02-.02-.02-.02a1.98 1.98 0 0 1-.08-.1zM39.52 205.75c-1.56-.74-3.33-3.01-2.13-5.6a4.31 4.31 0 0 1 4.53-2.48c2.43.4 4.55 2.84 3.33 5.47l-.35.75c-.85 1.83-3.82 2.6-5.38 1.86zm-.32-3c.28.57.78 1 1.16 1.19.18.08.76.17 1.5-.07.75-.23 1.13-.61 1.23-.84l.35-.75c.28-.6.2-1.11-.13-1.57-.35-.53-1-.95-1.7-1.06A2.33 2.33 0 0 0 39.2 201a1.9 1.9 0 0 0 0 1.75z" clip-rule="evenodd"/>
  <path fill="#181B2B" d="M62.78 213.08c.26-.96.1-1.29.02-1.37-.16-.16-.5-.4-1.07-.74a31.2 31.2 0 0 0-2.01-1.06c-1.58-.77-3.5-1.62-5.37-2.4-1.87-.8-3.68-1.52-5.02-2.05l-1.6-.63-.45-.17-.12-.05-.04-.01a1 1 0 0 1-.58-1.3 1 1 0 0 1 1.28-.58l-.35.94.35-.94.05.02.11.04.46.18a256.48 256.48 0 0 1 6.68 2.7c1.89.8 3.85 1.66 5.47 2.45.8.4 1.54.78 2.15 1.14.58.34 1.12.7 1.46 1.04.92.92.79 2.28.51 3.32-.3 1.12-.9 2.37-1.55 3.55a57.69 57.69 0 0 1-2.02 3.3l-.25.39c-.5.78-.86 1.32-1 1.6a1 1 0 0 1-1.33.45 1 1 0 0 1-.46-1.34c.2-.4.63-1.06 1.12-1.82a66.43 66.43 0 0 0 2.2-3.56 14.78 14.78 0 0 0 1.36-3.1z"/>
  <path fill="#181B2B" d="M66.3 222.9a1 1 0 0 1-.82 1.07c-.03 0-.08.03-.17.07-.2.1-.54.27-1.06.59-1.04.63-2.77 1.8-5.61 3.92a2.2 2.2 0 0 1-3.46-1.12c-.99-3.23-2.1-6.28-3.33-9.03a1 1 0 0 1 1.82-.81 81.9 81.9 0 0 1 3.44 9.3c0 .04.04.08.1.1l.13.01c.02 0 .05-.01.08-.04h.01a79.8 79.8 0 0 1 5.78-4.05c.56-.34.96-.55 1.25-.69.25-.12.52-.22.78-.24a1 1 0 0 1 1.07.93zM278.36 212.41c.68.3 1.4.66 2.08 1.07 5.44 3.23 7.64 8.61 8.12 13.89.48 5.31-.81 10.33-2.13 12.58a1 1 0 0 0 .36 1.37 1 1 0 0 0 1.36-.35c1.56-2.67 2.9-8.12 2.4-13.78-.52-5.7-2.93-11.78-9.1-15.44-.76-.45-1.55-.85-2.32-1.19a1 1 0 0 0-1.3.53 1 1 0 0 0 .53 1.32z"/>
  <path fill="#181B2B" d="M276.22 217.18c-.56-.33-1.14-.57-1.8-.84a1 1 0 0 1-.54-1.3 1 1 0 0 1 1.3-.56l.02.01a14.8 14.8 0 0 1 8.35 8.24c1.43 3.6 1.8 8.38.15 14.74a1 1 0 0 1-1.21.72 1 1 0 0 1-.72-1.23c1.56-6.06 1.17-10.39-.07-13.48a12.79 12.79 0 0 0-5.48-6.3z"/>
  <path fill="#181B2B" d="M270.47 221.46c.24.1.51.26.87.47 4.63 2.75 7.8 8.89 5.52 14.3a1 1 0 0 0 .52 1.32 1 1 0 0 0 1.31-.53c2.8-6.61-1.13-13.72-6.34-16.81l-.03-.02a8.58 8.58 0 0 0-1.1-.59 1 1 0 0 0-1.3.56 1 1 0 0 0 .55 1.3z"/>
  <path fill="#181B2B" fill-rule="evenodd" d="M270.5 226.6c3.06 1.81 2.12 4.2 1.54 5.19-.82 1.5-3.26 2.45-5.04 1.4-1.61-.96-2.1-3.17-1.05-4.96a3.75 3.75 0 0 1 3.42-1.94c.33.01.75.08 1.13.3zm-1.26 1.69h.03a1 1 0 0 1 .18.02l.05.02c.55.33.83.63.96.83.13.19.17.35.19.5.02.34-.13.76-.33 1.1l-.03.06a1.8 1.8 0 0 1-1.01.7c-.53.17-.97.11-1.27-.06-.53-.31-.91-1.23-.34-2.21.4-.7 1.05-1 1.57-.96zM222.9 53.77c11.1 0 12.08-1.46 12.13-8.99v-.88c0-2.55 2.31-3.69 3.98-3.69 4.13 0 4.57 3.17 4.87 5.45v.01c.34 2.75.64 5.14 5.45 5.55 1.48.1 3.2 1.82 3.2 9.14-.05 8.36-1.87 12.05-19.22 12.05-6.44 0-11.1-.26-14.6-.78a1.27 1.27 0 0 1-1.03-1.3c0-3.22-.2-6.44-.4-9.6-.02-.62-.06-1.23-.1-1.84-.08-1.26-.15-2.53-.19-3.83 0-.36.1-.72.35-.93.24-.26.59-.36.88-.42h.99l1.84.03 1.84.03zm18.28-10.64c.4.65.56 1.57.71 2.79l.03.18c.15 1.23.36 2.98 1.39 4.4 1.2 1.64 3.14 2.48 5.85 2.71h.03l.03.03c.05.04.23.2.44.67.44.97.87 2.89.87 6.44-.03 4.19-.54 6.24-2.32 7.57-.97.73-2.5 1.37-4.94 1.81-2.45.45-5.68.68-9.96.68-2.78 0-5.22-.05-7.36-.15a1 1 0 0 0 .04-.3c-.06-1.92-.21-3.88-.36-5.8l-.19-2.61v-.02c-.16-1.9-.32-3.86-.42-5.79 1.85-.04 3.42-.14 4.75-.34 1.8-.28 3.37-.77 4.58-1.74a6.56 6.56 0 0 0 2.28-3.85c.32-1.43.39-3.13.4-5.02v-.9c0-.58.23-.93.58-1.2.41-.32.97-.48 1.4-.48.78 0 1.24.15 1.52.3.28.14.48.34.65.62zm-18.16 12.64h-.13c-.63 0-1.27-.02-1.87-.03H221l-1.8-.03h-.2c.04 1.02.1 2 .17 3.01l.1 1.89c.19 2.97.38 6.04.4 9.14 1.27.16 2.7.3 4.32.4l-.01-.12c-.06-1.88-.2-3.77-.35-5.66l-.2-2.68c-.16-1.92-.32-3.93-.42-5.92zM80.75 53.61a540.28 540.28 0 0 1 24.48-3.64l1.33-.18a345 345 0 0 1 2.06-15.4c.1-.85.23-1.7.35-2.56a325.36 325.36 0 0 0-8.46 8.56 2 2 0 0 1-3.26-.5c-1.85-3.87-3.72-8.01-5.27-12.35l-5.61 14.19a2 2 0 0 1-2.48 1.17l-9.6-3.1 6.46 13.81zm-8.97-14.44c-.2-.46-.15-1.03.14-1.4.3-.41.84-.57 1.28-.41l11.3 3.63 6.4-16.15c.2-.52.63-.83 1.17-.78.5 0 .94.37 1.13.89 1.4 4.21 3.14 8.28 4.94 12.13l.91 1.94 1.48-1.55c2.94-3.04 5.96-6.02 8.7-8.68.39-.36.93-.47 1.42-.2.44.25.74.77.64 1.34-.25 1.56-.5 3.17-.69 4.73-.78 5.19-1.57 10.59-2.11 15.89a1.2 1.2 0 0 1-1.08 1.14l-1.92.26c-8.2 1.09-16.7 2.23-24.96 3.74-.1.05-.2.05-.25.05-.44 0-.89-.26-1.08-.73l-7.42-15.84z" clip-rule="evenodd"/>
  <path fill="#181B2B" d="M353.97 20.88c.72-.6 1.43-1.17 2.2-1.67l.1-.05h.01l.06.02c.05.02.12.08.17.17a47.3 47.3 0 0 0 3.49 6.78 1 1 0 0 0 1.36.36c.46-.28.6-.9.31-1.38a45.17 45.17 0 0 1-3.36-6.55 2.41 2.41 0 0 0-1.32-1.27 2.05 2.05 0 0 0-1.88.18l-.02.01c-.88.57-1.7 1.24-2.44 1.85l-.6.5c-.2.14-.37.28-.55.42-.5.4-.98.77-1.48 1.14-.44.32-.53.95-.2 1.41.32.46.94.57 1.37.25.54-.4 1.05-.8 1.57-1.2l.51-.41h.01l.69-.56z"/>
  <path fill="#181B2B" fill-rule="evenodd" d="M355.71 22.52c.54.14.87.68.75 1.23l-.3 1.42c-.58 2.68-1.24 5.7-1.95 8.26a30.17 30.17 0 0 1-1.37 4.01 8.7 8.7 0 0 1-.8 1.46c-.28.4-.64.79-1.09 1.01-.3.15-.64.2-.92.2a6.4 6.4 0 0 1-.98-.05c-.7-.08-1.55-.25-2.48-.48a88.63 88.63 0 0 1-6.32-1.9 218.82 218.82 0 0 1-8.32-2.96 4.62 4.62 0 0 1-5.8 2.19c-2.09-.8-3.3-3.69-2.53-5.93a4.4 4.4 0 0 1 6.6-2.35c.16.12.35.2.53.26.98.38 2 2.08 1.83 3.93l.02.01a192.11 192.11 0 0 0 8.24 2.94c2.17.72 4.38 1.4 6.16 1.84.9.22 1.66.38 2.24.45a4.5 4.5 0 0 0 .85.02c.06-.04.18-.14.36-.4.19-.26.4-.64.6-1.12.44-.96.86-2.25 1.28-3.73.7-2.5 1.33-5.45 1.91-8.13l.31-1.45a.96.96 0 0 1 1.18-.73zm-30.1 11.2c.3.71.75 1.14 1.16 1.3 1.46.55 3.05-.1 3.71-1.93a2.5 2.5 0 0 0-.38-2.25.85.85 0 0 0-.08-.08c-.16-.06-.5-.2-.83-.42a3.8 3.8 0 0 0-.58-.28c-1.16-.44-2.66.2-3.15 1.63-.2.58-.15 1.34.14 2.04z" clip-rule="evenodd"/>
  <path fill="#181B2B" d="M415.52 189.1a1 1 0 0 1 .87 1.05l.05.24c.06.25.18.67.41 1.33.47 1.3 1.37 3.5 3.08 7.15.36.75.28 1.54-.04 2.19-.35.7-1.03 1.2-1.82 1.29-3.79.54-7.4 1.25-10.73 2.15a1 1 0 0 1-1.22-.71 1 1 0 0 1 .7-1.23 91.72 91.72 0 0 1 10.98-2.2h.04c.09-.01.2-.08.27-.2.09-.2.07-.32.03-.4l-.01-.03a89.98 89.98 0 0 1-3.15-7.34c-.25-.7-.4-1.19-.48-1.54a2.56 2.56 0 0 1-.1-.88 1 1 0 0 1 1.12-.86z"/>
  <path fill="#181B2B" fill-rule="evenodd" d="M393.48 184.88h.08c.13.01.34.05.62.15.57.18 1.32.54 2.22 1.05a67.68 67.68 0 0 1 6.2 4.2 238.61 238.61 0 0 1 7.43 5.77c1.31 1.05 2.35 1.88 2.9 2.27a.99.99 0 0 0 1.38-.24 1 1 0 0 0-.23-1.4c-.5-.35-1.48-1.13-2.77-2.17l-1.16-.92c-1.85-1.47-4.1-3.25-6.36-4.92a69.66 69.66 0 0 0-6.41-4.33c-.94-.54-1.82-.97-2.58-1.22a4.45 4.45 0 0 0-1.13-.24c-.37-.02-.8.03-1.18.26-.45.27-.96.77-1.46 1.33-.53.58-1.12 1.31-1.75 2.13-1.26 1.64-2.7 3.68-4.04 5.66a294.59 294.59 0 0 0-4.67 7.07l-.17.26a4.99 4.99 0 0 0-5.76 2.08c-1.85 2.78-.54 5.9 1.66 7.38 2.53 1.71 5.92.26 7.07-1.47 1.58-2.37 1.06-5.13-1.23-6.99l.1-.17 1.12-1.72c.92-1.42 2.19-3.34 3.52-5.3 1.34-1.97 2.75-3.97 3.98-5.57.61-.8 1.17-1.49 1.65-2.01.46-.52.78-.81.97-.94zm-13.31 16.79a4.51 4.51 0 0 1-.1-.05c-1.24-.6-2.85-.21-3.77 1.17-1.08 1.61-.44 3.55 1.1 4.6.67.45 1.52.53 2.41.28a3.56 3.56 0 0 0 1.9-1.2c.56-.85.67-1.66.5-2.37a3.82 3.82 0 0 0-1.92-2.37.94.94 0 0 0-.12-.06z" clip-rule="evenodd"/>
  <path fill="#E7EAF3" d="M399.2 56.8c-2.58 5.56.33 9.16 5.28 9.2 4.94.04-.76-7.47 1.34-11.61 1.32-2.62 3.76-10.16 1.92-13.1-1.85-2.94 5.19-5.11 6.84-5.92 1.66-.82 4.38 2.33 6.9 1.63 3.1-.86 5-.5 5-2.5s-1.04-4.09-3.5-5c-2.46-.91-6.43 1.08-7.13 1.14-3.4.46-4.34.61-6.82.04-2.47-.58-6.31-.73-7.44.62-1.12 1.36-.12 3.14-.01 3.54.63 5.2-2.65 6.06-2.15 11.28.27 2.84 2.35 5.1-.23 10.67z"/>
  <path fill="#181B2B" fill-rule="evenodd" d="M405.84 62.15h-.04c-.34 0-.69-.11-.98-.4a1.43 1.43 0 0 1-.45-.98 337.6 337.6 0 0 1-.12-8.38V40.43c0-1.96 0-3.7-.06-5.31 0-.81.63-1.45 1.38-1.45 4.08-.11 7.46-.17 10.97-.17 2.98 0 5.68.06 8.26.17.75.06 1.32.64 1.38 1.39.11 3.18.28 6.35.46 9.47.28 5.15.57 10.46.57 15.72v.06c0 .8-.63 1.44-1.43 1.44-2.07.06-4.2.06-6.26.06l-4.74.1c-2.93.07-5.93.13-8.94.24zm18.36-26.5c-2.4-.1-4.9-.15-7.66-.15-3.31 0-6.52.05-10.33.15.04 1.48.04 3.05.04 4.76v11.98c0 3 .05 5.48.1 7.74 2.82-.1 5.66-.16 8.42-.21a962.12 962.12 0 0 0 4.75-.11c1.9 0 3.82 0 5.69-.05-.02-5.03-.3-10.13-.57-15.12a523.6 523.6 0 0 1-.44-9z" clip-rule="evenodd"/>
  <path fill="#E7EAF3" d="M74.5 147c1.5-5.5-3-3.5-8-10.5-5.3-7.42 12.78-17.34 0-18.5-11-1-6.5 13.4-6.5 20 0 14.5 12.74 20.53 18.5 23 6.48 2.78 14-8.5 19.5 5 1.82 4.47 8 3.44 8-3.5 0-10.19-13.9-11.24-20.5-10.5-4.5.5-12.5.5-11-5z"/>
  <path fill="#181B2B" fill-rule="evenodd" d="M79.47 141.67c1.76-.28 3.49-2.2 3.12-4.89-.27-1.71-2.2-3.32-4.36-2.98l-.57.1c-.63.1-1.18.25-1.7.68-.31.23-.72.58-.98 1.15-.4.77-.5 1.66-.36 2.52.38 2.39 2.4 3.81 4.85 3.42zm-2.72-5.01l.05-.1a.93.93 0 0 1 .33-.36l.12-.1a.66.66 0 0 1 .2-.11c.11-.04.26-.08.52-.12l.57-.09c.48-.08.98.06 1.4.36.43.31.63.7.68.94.21 1.66-.85 2.51-1.46 2.61-1.4.23-2.37-.5-2.56-1.76-.09-.53-.01-.96.15-1.27zM87.62 132.59c.43-.25.92-.45 1.37-.52 1.99-.32 3.89 1 4.18 2.89.26 1.6-.71 3.56-3.1 3.95-2.15.35-3.69-1.27-3.96-2.98a3.19 3.19 0 0 1 1.51-3.34zm1.05 4.06c.27.23.62.36 1.1.28.66-.1 1-.4 1.2-.67.2-.31.28-.68.23-.98-.11-.72-.92-1.4-1.9-1.23-.15.02-.41.11-.69.27-.36.21-.63.64-.52 1.29.06.4.28.79.58 1.04zM101.42 137.14a4.13 4.13 0 0 1-4.51-3.13l-.03-.17c-.17-1.08.4-2.23 1.4-2.97a4.96 4.96 0 0 1 1.97-.79c2.1-.34 3.9.83 4.21 2.77a3.86 3.86 0 0 1-3.04 4.3zm-.31-1.97c-.86.14-1.95-.52-2.24-1.57l-.01-.08c-.03-.16.05-.61.57-1.02.35-.23.72-.38 1.13-.44 1.2-.2 1.83.44 1.93 1.1.14.9-.6 1.88-1.38 2z" clip-rule="evenodd"/>
  <path fill="#181B2B" fill-rule="evenodd" d="M101.7 163.16a53.85 53.85 0 0 1-9.62-9.02l-6.95.82-5.22.62c-1.26.14-2.64.25-4.2.27a7.54 7.54 0 0 1-7.44-5.46 201.53 201.53 0 0 1-5.44-23.78 4.96 4.96 0 0 1 4.22-5.71l34.72-4.86a7.2 7.2 0 0 1 8.17 6.04l.61 3.88c.33 2.05 1.69 11.41 2.33 19.2a6.72 6.72 0 0 1-5.73 7.18l-4.9.62a26.1 26.1 0 0 0 .32 2.4c.33 2.11.84 4.25 1.45 6.25.16.62-.04 1.24-.56 1.61-.15.03-.27.06-.38.1-.1.03-.19.06-.3.07-.39.07-.76-.05-1.08-.23zm6.88-36.88c.32 2.03 1.67 11.33 2.31 19.04a4.7 4.7 0 0 1-4 5.04l-4.89.61a2.01 2.01 0 0 0-1.75 2.17c.08.88.22 1.73.34 2.51v.03a48.1 48.1 0 0 0 1.06 4.93 51.55 51.55 0 0 1-8.03-7.75c-.43-.52-1.1-.79-1.77-.71l-6.96.83c-2.18.26-3.99.48-5.2.61-1.2.14-2.51.24-4 .26h-.03a5.55 5.55 0 0 1-5.47-4v-.03a199.57 199.57 0 0 1-5.39-23.53 2.95 2.95 0 0 1 2.52-3.41l34.72-4.86h.02a5.21 5.21 0 0 1 5.9 4.38l.62 3.88z" clip-rule="evenodd"/>
</svg>
