<svg xmlns="http://www.w3.org/2000/svg" width="16" height="12" fill="none">
  <path fill="#9FAAC4" fill-rule="evenodd" d="M10.9 10.4l.9 1.1A5 5 0 0 0 16 9.43c-.04-2.77-.72-5.5-1.97-7.98A6.77 6.77 0 0 0 10.18 0l-.2.22c1.25.33 2.42.92 3.42 1.73A11.17 11.17 0 0 0 6.28.71c-1.07.12-2.12.41-3.1.86-.52.22-.82.4-.82.4a9.25 9.25 0 0 1 3.6-1.8L5.82 0c-1.4.07-2.74.57-3.85 1.44A18.34 18.34 0 0 0 0 9.42a4.96 4.96 0 0 0 4.18 2.09l.37-.46.55-.68a4.26 4.26 0 0 1-2.4-1.62c.49.33 1.01.6 1.56.81a9.59 9.59 0 0 0 7.55.01c.55-.2 1.08-.47 1.57-.8-.6.82-1.48 1.4-2.48 1.63zM4.44 5.6c.26-.29.62-.46 1-.49a1.45 1.45 0 0 1 1.4 1.52 1.46 1.46 0 0 1-1.4 1.52 1.53 1.53 0 0 1-1-2.55zm5.12-.3c.27-.15.57-.22.88-.19a1.46 1.46 0 0 1 1.4 1.52A1.53 1.53 0 1 1 9.56 5.3z" clip-rule="evenodd"/>
</svg>
