<svg width="394" height="273" fill="none" xmlns="http://www.w3.org/2000/svg">
  <path d="M174.8 183.5c0-20.6-6.3-38.2-19-52.9a87.8 87.8 0 0 0-48-30.8c2-12.7 6.8-26 14.6-39.6 7.7-13 15.8-23.7 24.3-32.1a4.1 4.1 0 0 0-.1-6.1L123.2 2a4 4 0 0 0-4.8-.3C39.4 55.1 0 115.7 0 183.5A91 91 0 0 0 24.8 248a87.7 87.7 0 0 0 62.6 25c24.3 0 44.7-8.8 61.2-26.4a86.5 86.5 0 0 0 26.2-63.1zm219.2 0c0-20.6-6.3-38.2-19-52.9a87.8 87.8 0 0 0-48-30.8c3-13.7 8.3-27.4 16-41A171.5 171.5 0 0 1 367.3 28a4.1 4.1 0 0 0-.2-6L342.4 1.8a4 4 0 0 0-4.8-.2c-79.9 55.3-119.8 116-119.8 181.8 0 24.4 8.7 45.5 26.2 63a85.2 85.2 0 0 0 62.6 26.5c23.3 0 43.7-8.8 61.2-26.4a86.5 86.5 0 0 0 26.2-63.1z" fill="#F9FAFC"/>
  <mask id="a" maskUnits="userSpaceOnUse" x="0" y="0" width="394" height="273">
    <path d="M174.8 183.5c0-20.6-6.3-38.2-19-52.9a87.8 87.8 0 0 0-48-30.8c2-12.7 6.8-26 14.6-39.6 7.7-13 15.8-23.7 24.3-32.1a4.1 4.1 0 0 0-.1-6.1L123.2 2a4 4 0 0 0-4.8-.3C39.4 55.1 0 115.7 0 183.5A91 91 0 0 0 24.8 248a87.7 87.7 0 0 0 62.6 25c24.3 0 44.7-8.8 61.2-26.4a86.5 86.5 0 0 0 26.2-63.1zm219.2 0c0-20.6-6.3-38.2-19-52.9a87.8 87.8 0 0 0-48-30.8c3-13.7 8.3-27.4 16-41A171.5 171.5 0 0 1 367.3 28a4.1 4.1 0 0 0-.2-6L342.4 1.8a4 4 0 0 0-4.8-.2c-79.9 55.3-119.8 116-119.8 181.8 0 24.4 8.7 45.5 26.2 63a85.2 85.2 0 0 0 62.6 26.5c23.3 0 43.7-8.8 61.2-26.4a86.5 86.5 0 0 0 26.2-63.1z" fill="#E7EAF3"/>
  </mask>
  <g mask="url(#a)" fill="#fff">
    <path d="M178.2 259.6l1.8-.4c29.7-6 60.4-6.4 86.5-5.9 11.2.2 23 0 34.3-.3 19.2-.4 39-.8 58 1a318 318 0 0 1 42.5 7.7c15.6 3.6 31.7 7.3 47.6 8 19.9 1 40.6 1 60.7 1a3370 3370 0 0 1 40.6.3c16 .2 32.5.5 48.4-.1 11.6-.5 22.2-4 33.4-7.8 9.4-3 19-6.3 29.3-7.6a626.5 626.5 0 0 0 77.4-14c15.4-3.4 31.4-7 46.4-12.2 9.9-3.4 20-4.1 29.7-4.8a87.7 87.7 0 0 0 31.9-6 243.8 243.8 0 0 0 31.9-19c7.4-5 15.2-10 23.2-14.5a310 310 0 0 0 33.4-22.7c7.2-5.3 14.6-10.8 22.2-15.8a181 181 0 0 0 30.4-27.4 238 238 0 0 1 25-23.7 3.8 3.8 0 0 1 4.6 5.9 230 230 0 0 0-24.2 23 189.3 189.3 0 0 1-31.7 28.4c-7.4 4.9-14.7 10.3-21.8 15.6-11 8.1-22.2 16.5-34.3 23.2a346 346 0 0 0-22.7 14.3c-10.5 7-21.3 14.1-32.9 19.5-11.3 5.2-23 6-34.5 6.7-9.7.7-18.8 1.3-27.8 4.4-15.3 5.4-31.5 9-47.2 12.4-4.7 1-9.4 2-14 3.2a630 630 0 0 1-64 11c-9.6 1.2-18.5 4.1-28 7.3-11.2 3.7-22.8 7.6-35.4 8.1-16.1.7-32.8.4-48.9.1a1841.7 1841.7 0 0 0-40.4-.3c-20.2 0-41 .1-61.1-.9-16.5-.8-33-4.6-48.8-8.2-13.7-3.1-27.8-6.4-41.6-7.6-18.5-1.7-38.2-1.3-57.1-1a839 839 0 0 1-34.6.3c-25.7-.4-55.9-.2-84.8 5.8-24.6 5-46.7 12.2-66 21.2-5 2.4-10 4.6-15 6.8-13.5 6-27.6 12-39.7 20.7-14 10-27.5 21.5-40.5 32.6l-4.9 4.2c-6 5.1-12.1 10.5-18 15.7a853.2 853.2 0 0 1-25.1 21.7 157 157 0 0 1-32 18.8 136.6 136.6 0 0 0-34.6 21.4c-9.9 7.9-20 16.1-33.6 19.6-6 1.5-11.9 3.2-17.5 4.8-16.1 4.6-31.3 9-48.7 9.8-20.4.9-41.5-5.4-62-11.5-9.7-2.8-18.8-5.6-28-7.6a497 497 0 0 1-82.4-28.8l-29.3-12c-2-.7-2.9-2.8-2.1-4.8.7-1.9 2.9-2.9 4.8-2.1 9.8 3.8 19.8 8 29.5 12 26.3 11 53.6 22.3 81.2 28.4 9.3 2 19 5 28.5 7.7 19.8 6 40.3 12 59.4 11.2 16.5-.8 31.3-5 47-9.5 5.7-1.7 11.6-3.3 17.7-4.9 12-3 21.1-10.4 30.7-18.2 6-4.7 12-9.6 19-13.5 5.5-3.2 11.4-6 17-8.8 10.6-5 21.6-10.3 30.6-17.8 8.4-6.8 16.8-14.3 25-21.5l18-15.8 5-4.2c13.1-11.2 26.7-22.8 41-33 12.7-9 27.1-15.4 41-21.5 5-2.1 10-4.4 14.8-6.6a299.1 299.1 0 0 1 65.8-21.5z"/>
    <path d="M162.5 225.7c21.9-4.6 45.2-4 67.7-3.3l16.2.3c19.1.3 38.5 2.6 57.2 4.9 12.8 1.5 26.1 3 39.1 4l39.9 3c15.3 1.1 31.2 2.4 46.3 3.3 12.6.9 25-1.7 38.3-4.4 10.6-2.2 21.7-4.4 32.8-4.7 12.1-.3 24.4.8 36.3 1.8 13.5 1.2 27.4 2.4 41 1.6 13.4-.8 26.9-3.6 39.8-6.2 8.6-1.8 17.5-3.6 26.3-4.9 6.7-1 13.6-1.8 20.3-2.6 15-1.9 30.7-3.8 45.5-7.1 12-2.8 23.9-7.3 35.4-11.7 8-3.1 16.3-6.3 24.7-8.9 11.7-3.6 22.5-9.8 33-15.8 7.8-4.6 16-9.3 24.4-12.9 10-4.2 20.3-5.5 30.3-6.9 11.8-1.5 22.9-3 33.1-8.6 20.3-11.2 40-22.2 58.5-34.2a588 588 0 0 1 24-14.6c12.1-7 24.6-14.3 36-22.7 1.6-1.3 4-1 5.2.7 1.3 1.7 1 4-.7 5.3-11.8 8.7-24.4 16-36.7 23.2-7.9 4.6-16 9.3-23.7 14.3a976 976 0 0 1-59 34.5 97.4 97.4 0 0 1-35.7 9.6c-10 1.3-19.3 2.5-28.3 6.3a219 219 0 0 0-23.7 12.4c-10.8 6.3-22 12.7-34.5 16.5-8.2 2.6-16.3 5.7-24.3 8.7-11.7 4.5-23.8 9.2-36.4 12-15.2 3.5-31 5.4-46.2 7.3l-20.2 2.6c-8.6 1.3-17.3 3-25.8 4.8-13.2 2.7-26.9 5.5-40.8 6.4-14.2.9-28.4-.4-42.2-1.6-11.7-1-23.7-2.1-35.5-1.8-10.4.2-21.1 2.4-31.5 4.6-13 2.6-26.6 5.4-40.2 4.5-15.1-1-31-2.2-46.4-3.4l-39.8-3c-13.2-.8-26.6-2.4-39.5-4-18.5-2.2-37.7-4.5-56.5-4.8a996 996 0 0 1-16.2-.3c-22.8-.7-46.4-1.3-68 3.6-20 4.5-40.2 11.4-63.7 21.6a259.1 259.1 0 0 0-43.7 26.4l-7.6 5.3c-7.1 4.9-14.8 8.9-22.3 12.8-9.1 4.7-18.5 9.6-26.5 16a117.6 117.6 0 0 0-18.4 20.2c-6.3 8-12.7 16.1-21.3 22.6a406.7 406.7 0 0 1-47 30.3c-11.6 6.6-24.5 8.4-37 10.2-7.3 1-14.3 2-21 3.9-22 6-44.3 9.4-66.2 10-7.6.2-15.2.6-22.6 1a240 240 0 0 1-58.4-1.2c-32.5-6-65.4-18-97.2-29.8a3670 3670 0 0 1-10-3.7c-2-.7-3-2.8-2.2-4.8.7-2 2.8-3 4.8-2.2l10 3.7c31.5 11.6 64.1 23.6 96 29.4 19 3.5 37.3 2.3 56.6 1.2 7.4-.5 15-1 22.8-1.2 21.3-.5 43-3.8 64.4-9.7 7.2-2 14.7-3 22-4 12.3-1.8 24-3.5 34.4-9.3 17.8-10 33-19.8 46.1-29.8 7.8-5.9 13.6-13.4 19.8-21.3 5.9-7.4 12-15.1 19.7-21.4 8.6-6.9 18.3-12 27.8-16.9 7.2-3.7 14.7-7.6 21.4-12.2l7.6-5.3c14-9.8 28.7-20 45-27.1 24-10.4 44.6-17.4 65.1-22.1l2.1-.4z"/>
    <path d="M191.1 185.2a91.7 91.7 0 0 1 20.4-2.1c17.1.2 34.3 2.4 51 4.5 14.7 1.8 29.9 3.7 44.9 4.3a404 404 0 0 1 49.5 5.9c15.4 2.5 30 4.9 44.4 5.5 12 .6 23.7-2.7 36-6.2 10.7-3 21.7-6.2 33.1-6.7 13-.6 26.3 1.1 39.1 2.8 14.3 1.8 29 3.6 43 2.3 13-1.3 26.5-4.1 39.6-6.8 9.2-2 18.7-4 28-5.4 9.6-1.4 19.4-2.3 28.8-3.2 13.4-1.2 27.3-2.4 40.6-5.4 13.8-3 27.6-7.9 40.8-12.5 7.2-2.5 14.6-5.1 21.9-7.4 8.3-2.6 16.8-4.8 25-7 13.1-3.3 26.6-6.7 39-11.7a189 189 0 0 0 32.2-18.3c8.5-5.6 17.3-11.4 26.8-16A699 699 0 0 0 936.8 69c9.6-5.9 20.2-10 30.5-13.8 11.5-4.4 23.4-9 33.8-16.2 1.7-1.1 4-.7 5.2 1 1.2 1.8.8 4.1-1 5.3-11 7.7-23.4 12.4-35.4 17-10.3 4-20.1 7.7-29.2 13.2-17 10.4-36.7 21-62.3 33.3-9 4.4-17.6 10-26 15.5C842 131 831 138.2 819 143c-13 5.2-26.6 8.7-39.9 12.1-8.1 2.1-16.6 4.3-24.7 6.8-7.2 2.3-14.5 4.8-21.6 7.3a361.4 361.4 0 0 1-41.7 12.8c-13.8 3-27.9 4.3-41.5 5.5-9.3.9-19 1.8-28.3 3.2-9.2 1.4-18.6 3.4-27.7 5.3-13.3 2.7-27 5.6-40.4 6.9-14.8 1.4-30-.5-44.6-2.4a227.3 227.3 0 0 0-37.9-2.6c-10.5.4-21 3.4-31.3 6.4-12.5 3.5-25.3 7.1-38.5 6.5-14.8-.7-30.3-3.2-45.2-5.6-16-2.6-32.5-5.3-48.6-5.9-15.3-.5-30.7-2.5-45.6-4.3-16.4-2-33.4-4.2-50-4.4-15-.3-28 4-41.9 8.5-8.9 3-18 6-27.8 7.7a287.7 287.7 0 0 0-63.4 18.7c-16.3 7-31.5 17.2-46.1 27l-4.3 2.9c-7.3 4.8-15.2 8.6-22.9 12.2-9.3 4.5-18.2 8.7-26 14.7-7 5.4-12.6 12.2-18.4 19.3A120.4 120.4 0 0 1-60 323a66.5 66.5 0 0 1-29.7 10.6 74.4 74.4 0 0 0-22.9 6.6l-.8.5c-16.2 8.7-33 17.8-51.3 22.6-20 5.2-41.9 7.9-64.8 8-21.8.1-50.5-.4-79.6-6-31.6-5.9-65.6-13-100-24.6-1.9-.6-3-2.8-2.3-4.8.7-2 2.8-3 4.8-2.3a720.5 720.5 0 0 0 98.9 24.3c22.2 4.2 46.3 6 78.1 5.8 22.3 0 43.5-2.7 63-7.8a225.7 225.7 0 0 0 49.6-21.9l.9-.5c8.1-4.3 16.7-5.9 25-7.4a59.9 59.9 0 0 0 26.6-9.2 112 112 0 0 0 19.3-20c5.8-7 12-14.5 19.6-20.4 8.5-6.6 18.1-11.1 27.4-15.5 7.4-3.6 15.1-7.2 22-11.8l4.2-2.8c15-10 30.4-20.4 47.4-27.7a294.2 294.2 0 0 1 65-19.2c9.2-1.6 18.1-4.5 26.8-7.3a225 225 0 0 1 23.8-6.9z"/>
    <path d="M70.6 172c7.3-1.6 14.8-2.8 22.1-4 5.5-1 11.2-1.8 16.6-2.9 7.2-1.3 14.5-3.2 21.6-5 15.3-3.8 31.2-7.7 48.2-7.7a283 283 0 0 1 52.2 6.6c15.9 3 32.2 6.2 48.6 6.5a880 880 0 0 1 43.5 2.3c15.6 1.1 31.8 2.3 47.2 2.3 12.7.1 26-2.2 38.8-4.4 11.9-2 24.2-4.2 36.2-4.5 12.5-.3 24.7-3.6 37.5-7.1 10.5-3 21.3-5.9 32.3-7 14.7-1.6 29.5.7 43.7 2.9 14.3 2.2 27.7 4.2 40.7 2.6 10.6-1.3 19.6-7.6 29-14.3 9-6.4 18.3-13 29.5-15.6 11.3-2.7 23-3.5 34.2-4.4 12.7-1 25.8-2 38.2-5.5 14-4 27.5-10.1 40.7-16 7.6-3.4 15.5-7 23.2-10 11-4.2 22.5-5.7 33.7-7.1 12.1-1.5 24.7-3 36-8.3a993.8 993.8 0 0 0 64-32.6c7.6-4.1 15.4-8.1 22.9-12 14.1-7.4 28.8-15 42.5-23.6 1.8-1 4-.6 5.2 1.2 1 1.8.6 4-1.2 5.2-14 8.7-28.8 16.4-43.1 23.8-7.4 3.9-15.2 7.9-22.6 12a1010 1010 0 0 1-64.6 32.9C855 83.9 842 85.5 829.3 87c-11.3 1.5-21.9 2.8-32 6.7-7.5 3-15.3 6.5-22.8 9.9-13.4 6-27.3 12.2-41.7 16.3a195.3 195.3 0 0 1-39.7 5.8c-11.5.8-22.3 1.7-33 4.2-9.9 2.3-18.2 8.2-26.9 14.4-9.8 7-20 14.1-32.5 15.7-14 1.7-28.6-.5-42.8-2.7-13.8-2.1-28-4.3-41.7-2.9-10.5 1.1-21 4-31.2 6.8a163.4 163.4 0 0 1-39.3 7.4c-11.5.3-23.5 2.4-35 4.4a226 226 0 0 1-40.2 4.6 772 772 0 0 1-47.6-2.4c-14.2-1-29-2-43.2-2.3-17-.3-33.7-3.5-49.9-6.6-16.6-3.2-33.7-6.5-50.8-6.5-16 0-30.8 3.7-46.4 7.5a390.3 390.3 0 0 1-38.7 8 209.1 209.1 0 0 0-47 11.3c-12.9 5.4-25 13.2-36.8 20.8l-11.4 7.2a686.2 686.2 0 0 0-44.4 29.6c-11.7 8.4-17.5 11.7-23.7 15.2-5.3 3-10.7 6-20.4 12.6a192 192 0 0 0-17.1 13c-6.5 5.4-11.5 9.7-26 17-13.5 7-28.4 10.6-42.9 14l-10.3 2.5c-8 2-14.5 6.4-21.3 11-9.6 6.6-19.5 13.3-34 13-17.5-.4-35.3-5.9-52.4-11.1-9.7-3-19.7-6-29.3-8-11.6-2.4-23.3-4.3-34.6-6-19-3-38.8-6-58.6-12.1-2-.6-3-2.7-2.5-4.7.6-2 2.7-3 4.7-2.5 19.2 6 38.7 9 57.6 11.9 11.4 1.7 23.2 3.5 35 6 9.8 2 20 5.2 29.8 8.2 16.7 5.1 34 10.4 50.6 10.8 12 .3 20.4-5.5 29.4-11.6 7-4.8 14.4-9.8 23.8-12.2l10.4-2.5c14-3.3 28.5-6.7 41.2-13.3 13.7-7 18.2-10.8 24.5-16A235.1 235.1 0 0 1-73 253c6-3.4 11.7-6.6 23-14.8a689 689 0 0 1 44.8-29.9L6 201.2c12-7.8 24.4-15.8 38-21.4 8.7-3.6 17.6-6 26.6-7.9z"/>
    <path d="M25.5 142.7c9.3-2 18.8-2.5 28-3 8.7-.6 17.7-1.1 26-2.8l17-3.7c16.2-3.6 32.9-7.3 50-8a391 391 0 0 1 48 2.2c14.3 1.3 29.1 2.5 43.4 2.4 16-.3 32.2-1.2 48-2 12.5-.8 25.4-1.5 38-1.9 15.6-.4 31.7-2.3 47.3-4.2 10.9-1.3 22.1-2.6 33.2-3.4 15.2-1.2 30.4.6 45.2 2.4 15.4 1.8 30 3.6 44.4 2.2 12.3-1.2 24.2-5.4 36.7-9.7 10.4-3.7 21.2-7.4 32.1-9.3 12-2.1 24.5-2.6 36.5-3.1 13.6-.6 27.7-1.1 41-4 20.6-4.5 43.1-10 71-17 11.7-3.1 22-9.7 33-16.7 9.6-6 19.4-12.4 30.6-16.2 27.6-9.6 49.5-18 68.9-26.3 11-4.7 22.6-8 33.9-11 12.5-3.5 25.4-7 37.2-12.7 12.8-6 24.9-14.6 36.5-22.9 9.8-7 20-14.1 30.7-20 1.8-1 4-.3 5.1 1.5 1 1.8.3 4-1.5 5-10.3 5.7-20.3 12.8-29.9 19.6-12 8.5-24.3 17.2-37.7 23.6-12.3 5.9-25.6 9.5-38.4 13-11 3.1-22.4 6.2-33 10.8-19.4 8.4-41.5 16.8-69.4 26.4-10.2 3.6-19.7 9.6-29 15.5-11 7-22.2 14.2-35.2 17.5-27.9 7.2-50.5 12.6-71.1 17.1-14 3-28.4 3.7-42.4 4.2-11.7.5-23.9 1-35.5 3-10.4 1.8-20.8 5.5-30.9 9-12.4 4.3-25.3 8.8-38.4 10.1-15.2 1.5-31-.4-46.1-2.2a228 228 0 0 0-43.7-2.4c-11 .8-22.1 2.2-33 3.4a544 544 0 0 1-47.8 4.3c-12.5.3-25.4 1-37.9 1.8-15.8.9-32.2 1.8-48.3 2-14.7.2-29.6-1-44-2.4a384.5 384.5 0 0 0-47.1-2.1c-16.5.6-32.1 4-48.7 7.8L81 144.2c-8.9 1.8-18 2.3-27 2.9-13.4.8-26.1 1.6-38 6.2a73.5 73.5 0 0 0-23.6 17 106.8 106.8 0 0 1-18.2 14.8c-7.1 4.3-14.9 7.2-22.4 10-9 3.4-17.5 6.5-25 11.8-7.2 5-10.7 12.2-14.5 19.8-4 8.3-8.3 17-17.5 23.1l-4.8 3.2a248 248 0 0 1-39.3 22.6 68.2 68.2 0 0 1-33.3 5c-8-.1-15.7-.2-23.2 1.8l-11 3c-15 4.3-30.4 8.7-46.7 9-21.2.2-42.3-3.6-62.7-7.3l-11.4-2c-10.8-1.9-21.7-3.1-32.2-4.3-17.9-2-36.3-4.1-55-9.4-2-.6-3.2-2.7-2.6-4.6.6-2 2.7-3.2 4.7-2.6 18 5.2 36.2 7.2 53.8 9.2 10.6 1.2 21.6 2.4 32.6 4.3l11.4 2c20 3.7 40.8 7.5 61.2 7.2 15.4-.2 30.4-4.5 44.9-8.6 3.7-1 7.4-2.2 11-3.1 8.6-2.3 17.1-2.2 25.4-2 10.4.2 20.4.4 29.7-4.3 20.9-10.3 22.2-11.2 38.5-22.1l4.7-3.2c7.6-5 11.2-12.4 15-20.2 4-8 8.2-16.4 16.9-22.5 8.3-6 17.7-9.4 26.7-12.8 7.6-2.8 14.7-5.5 21.2-9.4 6.2-3.7 11.4-8.6 16.9-13.8a80.5 80.5 0 0 1 26-18.6 79 79 0 0 1 12.3-3.6z"/>
    <path d="M10 110.2c6.7-1.5 13.5-2.5 20.3-3.6 5.8-.9 12-1.8 17.7-3 6.6-1.3 13.3-3 19.8-4.8 13.7-3.7 28-7.4 43-7.4 15.8 0 31.6 2.7 47 5.3 16.3 2.8 33.1 5.6 49.9 5.2l22.1-.6c23-.7 46.8-1.4 68.6-1.4 12.5 0 24-4.8 36.3-9.8 11.2-4.6 22.8-9.4 35.5-10.5 15.2-1.2 30.6.4 45.6 2 16.1 1.9 31.3 3.6 46.4 1.8 13.5-1.5 27.3-5.5 40.6-9.4 10.8-3.1 21.9-6.4 33-8.3 13.2-2.5 26.8-2.5 39.9-2.5 13.9 0 28.2 0 42-2.9h.3c17.1-3.7 34.4-8.5 51.2-13.1l21.3-5.9c13.6-3.6 27.4-8.7 40.6-13.6 10-3.6 20.3-7.5 30.4-10.6 12.6-4 24-10.7 36-17.9a212.4 212.4 0 0 1 32.3-16.8c22.7-8.7 45.5-19.2 67.4-29.4l4.3-2c11.4-5.2 23.7-8.7 35.5-12 13.2-3.7 26.8-7.6 39.1-14 1.9-.9 4.1-.1 5 1.7 1 1.9.3 4.2-1.6 5-13 6.8-27 10.7-40.5 14.6A229 229 0 0 0 904.6-42l-4.2 2c-22.1 10.1-45 20.7-68 29.5a204.6 204.6 0 0 0-31 16.2c-12 7-24.2 14.4-37.7 18.6-10 3.1-20.1 6.9-30 10.5-13.4 5-27.3 10.1-41.3 13.8l-21.2 5.9a843 843 0 0 1-51.7 13.2h-.3c-14.5 3-29.3 3-43.5 3-12.9 0-26.1 0-38.7 2.4-10.6 2-21.5 5-32.1 8.1-13.7 4-27.8 8-41.9 9.7-15.9 1.8-32.3 0-48-1.7a230.3 230.3 0 0 0-44.2-2c-11.6 1-22.6 5.5-33.3 9.9-12.4 5-25.1 10.3-39 10.3-21.8 0-45.5.7-68.5 1.4l-22.1.6c-17.5.5-34.7-2.5-51.4-5.3-15-2.5-30.6-5.2-45.7-5.2-14 0-27.8 3.6-41.1 7.2-6.6 1.7-13.4 3.5-20.2 4.9-6 1.2-12.1 2.1-18 3-13.6 2.2-27.5 4.3-40.2 9.4-13 5.3-16.8 9.8-21.3 15-4 4.6-8.4 9.8-18.9 16-11.8 6.8-16.3 10.8-21.4 15.5-4.2 3.7-8.9 8-18.2 14.3a46.5 46.5 0 0 1-26 8.8c-6.5.5-12.6 1-21.7 6.8-12.1 7.6-18.2 9.7-25.1 12-4.9 1.7-10.4 3.5-19.4 7.8-7.5 3.6-12.1 6.3-16.2 8.7-7.4 4.4-12.8 7.6-29.7 12-20.8 5.4-39.1 8.4-56.1 9-19.2.8-38.5-2.3-57.2-5.3l-12.2-2-11.3-1.7c-24.2-3.6-47-7-70.8-13.5-2-.5-3.1-2.6-2.6-4.6.5-2 2.6-3.2 4.6-2.7 23.3 6.4 46 9.8 69.9 13.4l11.3 1.7 12.3 1.9c18.3 3 37.2 6 55.7 5.3 16.4-.6 34.2-3.5 54.5-8.8 15.8-4.1 20.6-7 27.8-11.2a194 194 0 0 1 37-17.2 90 90 0 0 0 23.5-11.2c10.7-6.8 18.3-7.4 25-8 6.6-.5 13-1 22.5-7.5 8.8-6 13.2-9.9 17.4-13.7 5.2-4.7 10.1-9.1 22.6-16.4 9.4-5.5 13.2-10 17-14.3 4.9-5.7 9.5-11.1 24.2-17a130 130 0 0 1 21.4-6.3z"/>
    <path d="M63.9 60c4.4-.8 9-1.4 13.6-1.5 13.9 0 28 1.5 41.7 3 16 1.8 32.7 3.7 49 2.8 14.2-.7 28.6-.6 42.6-.5 17 .1 34.6.3 51.6-1.1 14.7-1.2 29.8-3.5 44.4-5.7 13-2 26.5-4 39.6-5.2 14-1.4 28.3-4.3 42.2-7.2 12.7-2.6 25.8-5.2 38.6-6.7 12.5-1.5 25.5-1.8 38.1-2 15.9-.4 32.3-.7 47.7-3.4 13.8-2.5 28.1-4 42-5.4 13.2-1.4 26.8-2.8 39.6-5 12.6-2 23.1-9.5 34.2-17.4 10.2-7.1 20.7-14.5 33.2-18 13-3.5 26.4-4.6 39.4-5.6 13.7-1.1 28-2.3 41.3-6.4 9-2.8 18.4-5.6 27.4-8.2 16-4.8 32.7-9.7 48.5-15 13.8-4.8 27-13 39.7-20.7a260 260 0 0 1 32.3-17.9 157 157 0 0 1 38.9-9.5c13.4-2 27.4-4.2 40-10.1 1.9-1 4.1-.1 5 1.7 1 2 .1 4.1-1.8 5a151.6 151.6 0 0 1-42 10.8c-13.2 2-25.5 4-37.1 9-10.7 4.6-21.2 11.1-31.4 17.4-13 8-26.5 16.3-41.2 21.3a1274 1274 0 0 1-48.7 15.1L744.9-18c-14 4.3-28.7 5.5-42.9 6.6A205 205 0 0 0 664-6a103.4 103.4 0 0 0-30.8 16.9c-11.3 8-23 16.2-37.3 18.6-13 2.3-26.7 3.7-40 5-13.8 1.5-28 3-41.6 5.4-16 2.8-32.6 3.1-48.8 3.5-12.4.2-25.2.5-37.4 1.9-12.5 1.5-25.5 4.1-38 6.7-14 2.9-28.6 5.9-43 7.2-12.8 1.2-26.2 3.3-39.1 5.2-14.8 2.2-30 4.5-45 5.7-17.3 1.5-35 1.3-52.3 1.2-13.8 0-28.1-.2-42 .5-17 1-34-1-50.3-2.8-14-1.6-27.4-3-40.8-3A97.9 97.9 0 0 0 45 73.9c-7.4 2.7-15 5.4-23 7a305 305 0 0 0-53.8 14c-22 8.6-23.7 9.6-40 18.6l-4.8 2.7c-12.1 6.7-16.6 10-22.3 14.2-4.1 3-8.8 6.5-17.2 12a81 81 0 0 0-17.4 14c-4.3 4.5-8.7 9.1-19.3 15.5a54 54 0 0 1-25 8.6c-5.5.7-11.3 1.4-20.7 5.8-8.3 3.8-12.9 6.9-17 9.6-6.2 4.2-11.6 7.8-26.8 11.8-15.6 4.2-31.8 5-47.4 5.7l-7.8.4c-14.5.8-28.4-2.8-41.9-6.3-8.5-2.2-17.3-4.5-26-5.5-9.5-1.2-19-1.7-28.2-2.2-15.2-.9-31-1.8-47.2-5.5-2-.4-3.3-2.4-2.8-4.5.5-2 2.5-3.2 4.5-2.8a266 266 0 0 0 46 5.3c9.2.5 18.9 1 28.6 2.2 9.2 1.1 18.3 3.5 27 5.8 13.6 3.5 26.3 6.8 39.6 6l7.8-.3a224 224 0 0 0 45.9-5.5c14-3.7 18.7-6.8 24.6-10.8 4.3-2.9 9.1-6.2 18-10.2 10.4-4.9 17-5.7 23-6.4 6.4-.8 12-1.6 22-7.6 9.7-5.9 13.6-10 17.7-14.2a89 89 0 0 1 18.7-15.3c8.2-5.2 12.8-8.6 16.8-11.6 5.7-4.2 10.6-7.8 23.1-14.7l5-2.7a243.8 243.8 0 0 1 40.7-19.1c18-7.1 37.7-11 55-14.3 7.5-1.5 14.9-4.1 22-6.7 7-2.6 14.1-5.1 21.6-6.7z"/>
    <path d="M-9.3 34c14.2-3 28.7-3.1 42.7-3.2 6.7 0 13.7 0 20.4-.4 13.5-.7 27.3-.8 40.6-.8a814 814 0 0 0 42.2-1c37.5-2.2 66-4.2 92.3-6.5 16.2-1.4 32.8-1.2 48.9-1 15.6.2 30.4.4 44.8-.8 13.3-1 25.8-6.3 39-11.8 12-5 24.5-10.3 37.9-12.2 15.5-2.3 31.3-1 46.5.1 15.6 1.2 30.4 2.4 44.7 0a151 151 0 0 0 37.7-13.3c11.8-5.4 24-11 37.1-13.7h.2c32.6-6.8 57.3-12.5 80-18.3a672 672 0 0 1 35-7.5c15-3 30.4-6 45.2-10.5 11.8-3.5 24-6.5 36-9.5 14.3-3.5 29.1-7.2 43.2-11.8 13.9-4.4 27.3-11.4 40.3-18.2 11.4-6 23.2-12.1 35.6-16.7a1393 1393 0 0 0 57.8-23.5l20.7-8.7a3.8 3.8 0 0 1 2.9 7l-20.6 8.6c-19 8-38.6 16.3-58.2 23.6-11.9 4.4-23.5 10.5-34.8 16.3-13.2 7-27 14.1-41.4 18.8a694 694 0 0 1-43.8 11.9c-11.8 3-24 6-35.6 9.4-15 4.5-30.7 7.6-46 10.6-11.3 2.3-23.1 4.6-34.5 7.5-22.8 5.8-47.6 11.4-80.3 18.3h-.1c-12.3 2.6-24.1 8-35.6 13.2a158.9 158.9 0 0 1-39.5 14c-15.3 2.4-31.2 1.2-46.5 0a202.9 202.9 0 0 0-45-.2 152.5 152.5 0 0 0-36 11.7 138 138 0 0 1-41.2 12.4c-14.8 1.2-30.5 1-45.6.8-16-.2-32.3-.5-48 1-26.5 2.3-55 4.3-92.7 6.5-14.1.8-28.6.9-42.5 1-13.3 0-27 0-40.3.8-7 .4-14 .4-20.8.4-13.6 0-27.7.2-41.1 3H-8a63 63 0 0 0-26 10.4c-4.7 3-10 6.4-20.2 10.4-14 5.3-18.5 8.3-24.9 12.4-4.2 2.8-9 5.9-17.2 10.3-11.1 5.8-18.5 6-25 6.1-6.4.2-11.8.3-20.9 5.6-8.7 5-11.3 10.5-14.3 16.7-3 6.5-6.6 13.8-17.4 20a39.8 39.8 0 0 1-25.3 5.6c-6-.3-11.7-.6-20.9 3.4a98.3 98.3 0 0 0-16.8 9.4c-6 4-11.3 7.5-25.8 11.3a63 63 0 0 0-18.8 8c-6.5 4-12.7 7.7-29.7 8.8-15.3 1-30.7-1.1-45.5-3.3l-17.7-2.3c-28.9-3-52.3-7.3-73.6-13a3.7 3.7 0 1 1 2-7.3c20.9 5.7 44 9.8 72.4 13 6 .6 12 1.4 18 2.3a213 213 0 0 0 44 3.2c15.1-1 20-4 26.3-7.8a70 70 0 0 1 20.7-8.9 64.6 64.6 0 0 0 23.5-10.3c4.3-2.8 9-6 18-9.9 10.8-4.7 18-4.4 24.3-4 6.4.3 12 .5 21.2-4.7a32 32 0 0 0 14.4-16.7A40 40 0 0 1-146 90c10.7-6.2 17.7-6.4 24.4-6.5 6.3-.2 12.1-.3 21.7-5.3 8-4.3 12.6-7.3 16.6-10 6.5-4.2 11.6-7.5 26.3-13.1 9.5-3.7 14.2-6.7 18.7-9.7A70 70 0 0 1-9.5 34h.2z"/>
    <path d="M-69.8 9.4C-62.5 8-55.1 7.5-48 7.1c7.6-.4 14.8-.8 21.9-2.4C-10.6 1 5.6 0 21.2-1l11.5-.7c14.3-1 29-.5 43.3 0 13.1.6 26.7 1.1 39.7.4 15.5-.9 31-4.7 45.9-8.4 13.6-3.3 27.6-6.8 41.9-8.1 13.2-1.2 26.9-1.3 40.1-1.5 17.4-.1 35.4-.3 52.3-2.9 14.4-2.2 28.8-6.6 42.7-10.8 12.9-3.9 26.2-8 39.7-10.3 15.7-2.9 31.8-1.7 47.3-.5 15.3 1.2 29.8 2.3 43.9-.1 13.3-2.3 26.1-7.5 39.7-12.9 12.5-5 25.5-10.1 39-13 20.3-4.1 41-9 61-13.6L630-88c15.3-3.5 30.6-9 45.4-14.3 11-4 22.6-8.1 34-11.4 13.3-3.8 27.3-6 40.8-8 14-2 28.4-4.2 42-8.3 15.1-4.5 30.2-11 44.8-17.4a541 541 0 0 1 34.2-14 2789 2789 0 0 1 32.1-11.2c16.2-5.5 32.8-11.2 49-17.3a3.7 3.7 0 1 1 2.6 7c-16.3 6-33 11.8-49.1 17.4l-32 11.1c-11.3 4-22.7 9-33.8 13.8a414.2 414.2 0 0 1-45.7 17.7c-14 4.3-28.8 6.5-43 8.6-13.3 2-27 4-39.9 7.8A531.8 531.8 0 0 0 678-95.4c-15 5.4-30.5 11-46.2 14.6L610.8-76c-20 4.6-40.7 9.5-61.1 13.7h-.5A229.2 229.2 0 0 0 512-49.6a209.5 209.5 0 0 1-41.3 13.2c-15 2.6-30.6 1.4-45.6.3-15.1-1.2-30.8-2.3-45.5.3-13 2.4-26.2 6.3-38.8 10.2-14.2 4.3-29 8.7-43.8 11-17.4 2.7-35.7 2.9-53.4 3-13 .2-26.6.3-39.5 1.5-13.7 1.2-27.4 4.6-40.8 7.9a258 258 0 0 1-47.2 8.6A423 423 0 0 1 75.7 6c-14-.6-28.6-1.2-42.5-.2l-11.6.8c-15.3 1-31.2 2-46 5.4-7.7 1.7-15.6 2.2-23.2 2.6-10 .5-19.5 1-28.5 4.4a43.5 43.5 0 0 0-20 13.5c-4.2 4.5-8.9 9.6-19.1 14.6-10.6 5.2-16.8 6.3-22.3 7.4-5.7 1-10.7 2-20.2 7.1-10.4 5.6-15.7 7.5-21.2 9.5-4.9 1.7-9.9 3.5-19 8.1-8.3 4.3-12.9 7.3-16.8 10-5.6 3.7-10.4 7-22.6 12-8.7 3.5-13 6.6-17.2 9.6-5.6 4-10.9 7.9-24.5 11.5a82.8 82.8 0 0 1-32 .3c-7.4-1-14.5-1.8-21.5-1.1-7.8.7-14.6 3.5-21.9 6.6-9.7 4-19.8 8.3-32.1 6.9l-1.5-.2c-22-2.4-44.8-4.9-67.3-9.3-2-.4-3.3-2.4-3-4.4.5-2 2.5-3.4 4.5-3 22.2 4.4 44.8 6.9 66.6 9.3l1.5.2a55.7 55.7 0 0 0 28.4-6.4c7.5-3.1 15.2-6.4 24.1-7.2 7.9-.7 15.7.3 23.2 1.2 10 1.2 19.5 2.4 29-.1a55.7 55.7 0 0 0 22.1-10.3c4.4-3.1 9.3-6.7 18.7-10.6 11.5-4.7 16-7.8 21.3-11.3 4.1-2.7 8.8-5.9 17.5-10.3 9.6-5 14.9-6.8 20-8.6 5.2-1.9 10.2-3.6 20.1-9a66.1 66.1 0 0 1 22.4-8c5.3-1 10.7-2 20.3-6.6 9-4.4 12.9-8.6 17-13a51 51 0 0 1 22.8-15.5c3-1 6-1.9 9-2.5z"/>
    <path d="M-78.2-23.2c7-1.5 12-1.2 17-1 6.1.4 12.5.7 24-1.8a395 395 0 0 1 52.9-6.7l3.5-.3L91-39l6.1-.6c15.4-1.3 30.4-6 44.9-10.6 14.1-4.4 28.7-9 43.8-10.6 14-1.5 28.4-1.7 42.4-2 16.2-.2 33-.5 49-2.7 14.8-2 29.7-6 44.2-9.6 13.5-3.5 27.5-7 41.4-9.2 18.4-2.9 37.4-6.8 55.7-10.7l29.3-6c15.2-3 30.2-1.4 44.7.1 15.3 1.6 29.7 3.1 44.2-.3l30-7c17.4-4 35.3-8.3 52.7-12.2 14-3.2 27.5-9.5 40.5-15.6 12.4-5.9 25.3-12 38.9-15.3a225 225 0 0 1 40.6-5.2c14.8-1 30-2 44-6.2 13.4-4 26-11.4 38.2-18.5a190 190 0 0 1 40.6-19.5c27.3-8.1 55.7-17.6 82.3-26.7 2-.6 4.1.4 4.8 2.4.7 2-.4 4-2.4 4.8-26.6 9-55.1 18.6-82.5 26.7a185.6 185.6 0 0 0-39 18.8 193.6 193.6 0 0 1-39.8 19.2c-14.8 4.5-30.5 5.5-45.7 6.5a221 221 0 0 0-39.2 5c-13 3.2-25 8.8-37.6 14.7-13.3 6.3-27.1 12.8-42 16.2L568.5-101l-30.1 7c-15.8 3.6-31.5 2-46.7.5-14-1.5-28.4-3-42.4-.2l-29.2 6c-18.4 3.8-37.5 7.8-56 10.7a437.2 437.2 0 0 0-40.8 9 406.6 406.6 0 0 1-45 9.8 414.5 414.5 0 0 1-50 2.8c-13.8.2-28.1.5-41.7 2-14.4 1.4-28.6 5.9-42.3 10.2-15 4.7-30.4 9.6-46.5 11l-6.1.5-71.9 6-3.5.4c-17.2 1.3-35 2.8-51.8 6.5-12.7 2.8-19.8 2.4-26 2-7-.4-12.4-.7-24 3.3-12.8 4.4-18 7.5-23.9 11-4.5 2.7-9.7 5.7-18.7 9.7l-12.6 5.5c-9.7 4.3-13.3 6-28.3 13.2-9.5 4.7-14.2 8-18.7 11-4.8 3.3-9.9 6.7-20.3 11.7-14 6.6-18.3 8.2-26.9 11.4l-14.4 5.4c-9 3.5-13.4 6.4-17.8 9.3a70.8 70.8 0 0 1-24.7 10.8l-.9.2a220 220 0 0 1-48.5 8.6c-12.3 1.3-23.6-1.9-34.6-5-8.5-2.3-16.6-4.5-25-4.8a81.3 81.3 0 0 0-24.9 4.2c-11.3 3.1-23.1 6.3-36.9 3-2-.6-3.2-2.6-2.7-4.6.5-2 2.5-3.2 4.6-2.7 11.8 3 22.1 0 33-3a88.1 88.1 0 0 1 27.2-4.4c9.3.4 18.1 2.8 26.7 5.2 10.8 3 21 5.8 31.8 4.7 25.3-2.7 25.3-2.7 47.5-8.4l.8-.2c12.3-3.2 17-6.3 22.5-9.9 4.5-3 9.6-6.2 19.2-10l14.5-5.5c8.4-3 12.6-4.6 26.3-11.1 10-4.7 14.5-7.8 19.3-11 4.7-3.3 9.6-6.7 19.7-11.6 15-7.4 18.7-9 28.5-13.3l12.5-5.6c8.7-3.8 13.5-6.6 18-9.3 6.3-3.7 11.8-7 25.4-11.6 3.6-1.2 6.7-2.1 9.6-2.7z"/>
    <path d="M-72.9-61.6c3.4-.7 6.4-1.2 9.8-1.7 5.2-.8 11.2-1.7 21.4-4 12.4-2.8 25.2-3.9 37.5-4.9L13-73.8c13.3-1.5 27-1.1 40.3-.8 12 .3 24.3.6 36.1-.5 15.7-1.4 31.4-5.4 46.6-9.4 14.2-3.7 29-7.5 43.8-9.2 16.2-1.9 32.7-5.3 48.6-8.6 13-2.7 26.5-5.4 39.7-7.4 14-2 28.5-2.6 42.6-3.1 14.9-.6 30.3-1.2 45-3.6 14.2-2.4 28.2-7.3 41.8-12.1 13.7-4.8 27.9-9.8 42.5-12.3 25-4.3 53.3-9.8 84-16.3h.2c14.2-3 28.5-2.2 42.3-1.3 14.9.9 29 1.8 43-1.8 12-3.1 24.4-6.5 36.4-9.8 15.1-4.2 30.8-8.5 46-12.3 13.6-3.3 26.6-9.6 39-15.8 13.2-6.4 26.7-13 41.5-16.6 12.1-2.9 24.6-5.2 36.6-7.5 15.5-3 31.5-6 46.7-10.3 14.4-4 28.6-9.9 42.5-15.6a437.5 437.5 0 0 1 39-14.6c2-.6 4 .5 4.7 2.5.6 2-.5 4.1-2.5 4.7-13 4-25.9 9.3-38.4 14.4-14 5.8-28.5 11.8-43.3 16-15.5 4.3-31.7 7.3-47.3 10.3-12 2.3-24.3 4.6-36.2 7.5-14 3.4-27.2 9.8-40 16a206.8 206.8 0 0 1-40.5 16.4c-15.1 3.8-30.7 8-45.8 12.2-12 3.3-24.4 6.7-36.5 9.8-15.2 3.9-30.5 3-45.4 2-13.3-.8-27-1.6-40.2 1.1h-.2c-30.8 6.7-59.2 12.2-84.4 16.5-14 2.4-27.8 7.3-41.2 12A261 261 0 0 1 357-109c-15.1 2.5-30.8 3.2-46 3.7-13.7.6-28 1.1-41.7 3.1-13 2-26.4 4.7-39.3 7.4-16.1 3.3-32.7 6.7-49.2 8.6-14.4 1.7-28.9 5.4-42.9 9-15.4 4-31.5 8.2-47.7 9.7-12.3 1-24.8.7-37 .4-13-.3-26.5-.6-39.3.8C8-65.6 2.1-65-3.6-64.7c-12 1-24.6 2-36.4 4.7a290.4 290.4 0 0 1-22 4.2c-7.4 1.1-12.8 2-26.4 6.3a134 134 0 0 0-25 10.5c-4.9 2.6-10.4 5.4-20 9.3-11 4.4-16.1 7.9-21.5 11.5-5.1 3.4-10.4 7-20.6 11.5C-185-2.4-190 0-195 2.5c-5.5 2.7-10.7 5.2-21.9 10a43.3 43.3 0 0 1-23.9 4c-5.5-.4-10.6-.8-20.5 2.7-8.7 3-13.8 5.3-18.3 7.3-7 3-12.4 5.5-26.8 9.2-8.4 2.1-13.6 3.8-18.2 5.3-8.2 2.6-14 4.5-30.7 6.7-11.5 1.6-22.6-.4-33.3-2.3-8.3-1.4-16-2.8-24-2.7-8.3.2-16 2.6-24 5.1a70.6 70.6 0 0 1-35.4 4.7c-2-.4-3.4-2.4-3-4.4.3-2 2.2-3.4 4.3-3 11.3 2 21.3-1.1 31.7-4.5 8.3-2.6 16.8-5.3 26.3-5.4 8.6-.1 17.1 1.4 25.3 2.8a99.8 99.8 0 0 0 31 2.2c16-2.1 21.7-4 29.4-6.4 4.7-1.5 10-3.3 18.8-5.5 13.6-3.4 18.9-5.8 25.5-8.7 4.6-2 9.9-4.4 18.8-7.5A50 50 0 0 1-240.3 9c5.7.4 10.6.8 20.4-3.4 11-4.7 16.1-7.2 21.6-10 4.9-2.3 10-4.9 19.8-9.2 9.5-4.2 14.5-7.6 19.3-10.8 5.5-3.8 11.2-7.6 23-12.3 9.2-3.7 14.3-6.4 19.2-9 6.5-3.3 12.6-6.5 26.2-11 8.1-2.6 13.4-4 17.9-4.9z"/>
    <path d="M-74-98.6a54 54 0 0 1 16.8-1c5.3.2 10.8.6 22.7-2.2 11.7-2.7 23.8-3.6 35.6-4.5 6-.4 12.2-.9 18.2-1.6 13.2-1.5 27.1-6.2 40.6-10.8C72.2-122.8 85-127 97.5-129c15.9-2.6 32.7-4.6 48.8-6.6 12.8-1.6 25.9-3.2 38.6-5l34.2-5 51.8-7.5c14-2 28.5-3.2 42.5-4.2 13.7-1.1 27.9-2.2 41.6-4.1 12.7-1.8 25.6-2.7 38.1-3.6 15-1 30.7-2 45.6-4.7 14.7-2.6 28.3-9.4 41.5-16A162.2 162.2 0 0 1 522-202c10-1.9 20.5-3.7 30.6-5.4 16.9-2.9 34.4-5.9 51.2-9.6 27.8-6 55.6-12.6 81.6-18.8 10.8-2.6 22-5 32.7-7.4 16-3.5 32.7-7.1 48.6-11.4 13.5-3.5 27.4-5.8 41-7.9 13.6-2.2 27.8-4.4 41.2-8a232 232 0 0 0 38.8-15.9c13-6.2 26.5-12.7 41-16.5 2.1-.5 4.1.7 4.7 2.7.5 2-.7 4.2-2.7 4.7-13.9 3.6-27 10-39.8 16-12.7 6.2-26 12.5-40 16.4-13.9 3.7-28.2 6-42 8.2-13.4 2.1-27.2 4.3-40.2 7.8-16.1 4.3-32.8 7.9-49 11.4-10.7 2.4-21.8 4.8-32.6 7.4-26 6.2-53.8 12.8-81.6 18.8-17 3.8-34.6 6.8-51.6 9.7-10 1.7-20.5 3.5-30.5 5.4-14 2.6-26.6 8.9-40 15.6-13.6 6.7-27.7 13.8-43.5 16.6-15.3 2.7-31 3.8-46.3 4.8-12.4.8-25.2 1.7-37.6 3.5-14 2-28.3 3-42.1 4.1-13.9 1-28.2 2.2-42 4.2a16659.2 16659.2 0 0 0-86 12.5c-12.8 1.8-26 3.5-38.7 5-16.2 2-32.9 4-48.6 6.6-11.9 1.9-24.4 6-36.5 10.1-13.8 4.7-28 9.5-42 11.1-6.1.8-12.5 1.2-18.6 1.7-11.4.9-23.3 1.7-34.4 4.3a75 75 0 0 1-24.8 2.2c-5.7-.3-10.7-.6-22.7 3-9.6 2.9-17.6 8.4-26 14.2a111 111 0 0 1-24.4 14.1c-12.6 4.7-18.5 2.6-23.8.8-4.8-1.7-8.9-3-19.1.7-8.5 3-15.3 8.4-22.5 14.1a90.6 90.6 0 0 1-23.7 15c-18.5 7-21.8 8.1-35.5 12.5l-10 3.3a55.2 55.2 0 0 1-26 2.9c-5.6-.5-11.5-1.1-22.6 1.5a82.1 82.1 0 0 0-21.7 9.8A77.9 77.9 0 0 1-363.2 11c-17 2.4-35.6 4-55.2 5-12 .6-23.4-2-34.5-4.4-9.1-2-18.6-4.2-28.1-4.4-2 0-3.7-1.8-3.7-4 0-2 1.7-3.7 3.8-3.7 10.2.3 20 2.5 29.6 4.6 11 2.5 21.5 4.8 32.5 4.3 19.4-1 37.7-2.6 54.5-5 9.2-1.3 16.9-5.7 25-10.3a89.8 89.8 0 0 1 23.7-10.5c12.2-3 19-2.3 25-1.8 6.3.6 11.7 1.1 23-2.6l10-3.2a541 541 0 0 0 35.1-12.4c8.2-3 14.8-8.3 21.8-13.9 7.4-5.8 15-11.8 24.5-15.3 12.7-4.6 18.7-2.5 24-.7 4.8 1.6 8.9 3 19-.7 8.2-3 15.2-8 22.7-13.2 8.5-6 17.3-12 28-15.3 3.3-1 6-1.6 8.5-2.1z"/>
  </g>
</svg>
